<?xml version="1.0" encoding="UTF-8" standalone="no"?>
<!-- Created with Inkscape (http://www.inkscape.org/) -->

<svg
   xmlns:dc="http://purl.org/dc/elements/1.1/"
   xmlns:cc="http://creativecommons.org/ns#"
   xmlns:rdf="http://www.w3.org/1999/02/22-rdf-syntax-ns#"
   xmlns:svg="http://www.w3.org/2000/svg"
   xmlns="http://www.w3.org/2000/svg"
   xmlns:xlink="http://www.w3.org/1999/xlink"
   xmlns:sodipodi="http://sodipodi.sourceforge.net/DTD/sodipodi-0.dtd"
   xmlns:inkscape="http://www.inkscape.org/namespaces/inkscape"
   width="210mm"
   height="297mm"
   viewBox="0 0 210 297"
   version="1.1"
   id="svg8"
   sodipodi:docname="full2.svg"
   inkscape:version="0.92.3 (2405546, 2018-03-11)">
  <defs
     id="defs2">
    <linearGradient
       id="linearGradient1585"
       inkscape:collect="always">
      <stop
         id="stop1581"
         offset="0"
         style="stop-color:#f7e4fc;stop-opacity:1" />
      <stop
         id="stop1583"
         offset="1"
         style="stop-color:#eeb7fc;stop-opacity:1" />
    </linearGradient>
    <linearGradient
       inkscape:collect="always"
       id="linearGradient1375">
      <stop
         style="stop-color:#f5dcfb;stop-opacity:1"
         offset="0"
         id="stop1371" />
      <stop
         style="stop-color:#e697fa;stop-opacity:1"
         offset="1"
         id="stop1373" />
    </linearGradient>
    <marker
       inkscape:stockid="Arrow1Lstart"
       orient="auto"
       refY="0.0"
       refX="0.0"
       id="marker1241"
       style="overflow:visible"
       inkscape:isstock="true">
      <path
         id="path1239"
         d="M 0.0,0.0 L 5.0,-5.0 L -12.5,0.0 L 5.0,5.0 L 0.0,0.0 z "
         style="fill-rule:evenodd;stroke:none;stroke-width:1pt;stroke-opacity:1;fill:#ff0000;fill-opacity:1"
         transform="scale(0.8) translate(12.5,0)" />
    </marker>
    <marker
       inkscape:stockid="Arrow1Lstart"
       orient="auto"
       refY="0.0"
       refX="0.0"
       id="Arrow1Lstart"
       style="overflow:visible"
       inkscape:isstock="true">
      <path
         id="path957"
         d="M 0.0,0.0 L 5.0,-5.0 L -12.5,0.0 L 5.0,5.0 L 0.0,0.0 z "
         style="fill-rule:evenodd;stroke:none;stroke-width:1pt;stroke-opacity:1;fill:#ff0000;fill-opacity:1"
         transform="scale(0.8) translate(12.5,0)" />
    </marker>
    <radialGradient
       inkscape:collect="always"
       xlink:href="#linearGradient1375"
       id="radialGradient1381"
       cx="211.6468"
       cy="600.50568"
       fx="211.6468"
       fy="600.50568"
       r="263.73279"
       gradientTransform="matrix(0.08350002,0,0,0.07981468,38.325648,107.86161)"
       gradientUnits="userSpaceOnUse" />
    <radialGradient
       inkscape:collect="always"
       xlink:href="#linearGradient1585"
       id="radialGradient1446"
       cx="213.25417"
       cy="162.32709"
       fx="213.25417"
       fy="162.32709"
       r="45.508331"
       gradientTransform="matrix(3.7795275,0,0,1.5821278,0,356.69749)"
       gradientUnits="userSpaceOnUse" />
    <radialGradient
       inkscape:collect="always"
       xlink:href="#linearGradient1585"
       id="radialGradient1587"
       gradientUnits="userSpaceOnUse"
       gradientTransform="matrix(3.7795275,0,0,1.5821278,0,356.69749)"
       cx="213.25417"
       cy="162.32709"
       fx="213.25417"
       fy="162.32709"
       r="45.508331" />
    <radialGradient
       inkscape:collect="always"
       xlink:href="#linearGradient1585"
       id="radialGradient1589"
       gradientUnits="userSpaceOnUse"
       gradientTransform="matrix(3.7795275,0,0,1.5821278,0,356.69749)"
       cx="213.25417"
       cy="162.32709"
       fx="213.25417"
       fy="162.32709"
       r="45.508331" />
  </defs>
  <sodipodi:namedview
     id="base"
     pagecolor="#ffffff"
     bordercolor="#666666"
     borderopacity="1.0"
     inkscape:pageopacity="0.0"
     inkscape:pageshadow="2"
     inkscape:zoom="2"
     inkscape:cx="699.68181"
     inkscape:cy="519.27648"
     inkscape:document-units="px"
     inkscape:current-layer="layer1"
     showgrid="false"
     showborder="false"
     inkscape:snap-nodes="true"
     inkscape:window-width="1920"
     inkscape:window-height="1026"
     inkscape:window-x="1080"
     inkscape:window-y="695"
     inkscape:window-maximized="1"
     inkscape:snap-smooth-nodes="true"
     inkscape:snap-intersection-paths="true"
     inkscape:snap-object-midpoints="true"
     inkscape:snap-center="false"
     inkscape:measure-start="212.662,583.717"
     inkscape:measure-end="211.647,561.575"
     inkscape:snap-others="false" />
  <metadata
     id="metadata5">
    <rdf:RDF>
      <cc:Work
         rdf:about="">
        <dc:format>image/svg+xml</dc:format>
        <dc:type
           rdf:resource="http://purl.org/dc/dcmitype/StillImage" />
        <dc:title></dc:title>
      </cc:Work>
    </rdf:RDF>
  </metadata>
  <g
     inkscape:label="Calque 1"
     inkscape:groupmode="layer"
     id="layer1">
    <path
       style="opacity:1;fill:url(#radialGradient1446);fill-opacity:1;stroke:none;stroke-width:15.00000286;stroke-linecap:round;stroke-linejoin:miter;stroke-miterlimit:4;stroke-dasharray:none;stroke-opacity:1;paint-order:fill markers stroke"
       d="M 961.06836 614.73438 C 960.19812 614.74532 959.24731 614.88493 958.26758 615.16211 C 957.28785 615.43929 956.27921 615.85406 955.29688 616.41797 C 953.93608 617.19925 952.89525 618.13216 952.05664 619.20703 C 951.21803 620.2819 950.58163 621.49874 950.02734 622.84766 L 950.01953 622.85352 L 945.62695 635.8457 C 950.49015 636.82105 955.72496 638.13569 960.28711 638.77734 C 961.46082 638.89462 962.87737 638.9174 964.30469 638.73828 C 965.732 638.55916 967.17008 638.17814 968.38477 637.48438 C 969.52529 636.82967 970.50316 636.03799 971.29492 635.18359 C 972.08668 634.3292 972.69233 633.41207 973.08789 632.50977 C 973.48372 631.60748 973.6774 630.74895 973.67773 629.95508 C 973.67807 629.1612 973.48506 628.43198 973.10938 627.78516 C 972.8529 627.34414 972.50446 626.94664 972.07422 626.60742 C 971.64398 626.2682 971.13252 625.98716 970.54883 625.7793 C 969.96514 625.57144 969.30863 625.43756 968.5918 625.39062 C 967.87497 625.34369 967.09724 625.3838 966.26758 625.52734 C 965.81899 625.60472 965.40419 625.53494 965.05273 625.36328 C 964.70128 625.19162 964.41296 624.91759 964.21484 624.58984 C 964.01673 624.26209 963.91045 623.87918 963.92188 623.48828 C 963.9333 623.09738 964.06267 622.699 964.33984 622.33789 C 965.21569 621.19621 965.69807 620.10258 965.86719 619.13086 C 966.0363 618.15914 965.89216 617.30934 965.51367 616.6543 C 965.20766 616.12979 964.74494 615.68933 964.125 615.36328 C 963.50506 615.03723 962.72789 614.82559 961.79297 614.75586 C 961.55887 614.73838 961.317 614.73125 961.06836 614.73438 z "
       id="path1479"
       transform="scale(0.26458333)" />
    <path
       style="opacity:1;fill:#ce8ae2;fill-opacity:1;stroke:none;stroke-width:15.00000286;stroke-linecap:round;stroke-linejoin:miter;stroke-miterlimit:4;stroke-dasharray:none;stroke-opacity:1;paint-order:fill markers stroke"
       d="M 961.02344 610.72852 C 959.7669 610.74037 958.47016 610.93397 957.17188 611.30469 C 955.87359 611.6754 954.57377 612.22323 953.3125 612.94727 C 952.40701 613.46714 951.59875 614.05254 950.875 614.6875 C 950.15125 615.32246 949.51202 616.00721 948.94531 616.72656 C 947.8119 618.16528 946.96786 619.74188 946.31445 621.33398 C 946.29934 621.37291 946.28352 621.41149 946.26953 621.45117 L 941.10938 636.7168 C 940.91749 637.2883 940.99875 637.8798 941.27539 638.35742 C 941.55203 638.83504 942.02404 639.19879 942.61523 639.31641 L 959.68945 642.74805 C 959.92832 642.79454 960.17448 642.79743 960.41406 642.75586 C 961.8023 642.87132 963.43937 642.91023 965.15625 642.67578 C 966.01469 642.55856 966.89201 642.37234 967.76953 642.09375 C 968.64705 641.81516 969.52435 641.4443 970.37891 640.95508 C 971.8646 640.10225 973.16091 639.06861 974.23438 637.91016 C 975.30784 636.75171 976.15847 635.46845 976.75 634.11914 C 977.34155 632.76983 977.66642 631.32424 977.6582 629.89648 C 977.65409 629.1826 977.56827 628.47455 977.38867 627.7832 C 977.20907 627.09185 976.93657 626.41807 976.56445 625.77734 L 976.56445 625.76953 C 976.18131 625.11072 975.70966 624.55143 975.16602 624.07812 C 974.62237 623.60482 974.00715 623.21844 973.33984 622.90625 C 972.00523 622.28187 970.45973 621.9544 968.85156 621.82812 C 969.35371 620.60054 969.70222 619.3508 969.76758 618.13477 C 969.80026 617.52675 969.76186 616.92776 969.63672 616.34375 C 969.51157 615.75974 969.29976 615.19047 968.98438 614.64453 L 968.97656 614.64453 C 968.62425 614.03808 968.19319 613.50625 967.70117 613.04492 C 967.20916 612.5836 966.65562 612.19367 966.05859 611.87305 C 964.86455 611.23181 963.49575 610.86667 962.08984 610.76172 L 962.08984 610.76367 C 961.73837 610.73745 961.38245 610.72513 961.02344 610.72852 z M 961.06836 614.73438 C 961.317 614.73125 961.55887 614.73838 961.79297 614.75586 C 962.72789 614.82559 963.50506 615.03723 964.125 615.36328 C 964.74494 615.68933 965.20766 616.12979 965.51367 616.6543 C 965.89216 617.30934 966.0363 618.15914 965.86719 619.13086 C 965.69807 620.10258 965.21569 621.19621 964.33984 622.33789 C 964.06267 622.699 963.9333 623.09738 963.92188 623.48828 C 963.91045 623.87918 964.01673 624.26209 964.21484 624.58984 C 964.41296 624.91759 964.70128 625.19162 965.05273 625.36328 C 965.40419 625.53494 965.81899 625.60472 966.26758 625.52734 C 967.09724 625.3838 967.87497 625.34369 968.5918 625.39062 C 969.30863 625.43756 969.96514 625.57144 970.54883 625.7793 C 971.13252 625.98716 971.64398 626.2682 972.07422 626.60742 C 972.50446 626.94664 972.8529 627.34414 973.10938 627.78516 C 973.48506 628.43198 973.67807 629.1612 973.67773 629.95508 C 973.6774 630.74895 973.48372 631.60748 973.08789 632.50977 C 972.69233 633.41207 972.08668 634.3292 971.29492 635.18359 C 970.50316 636.03799 969.52529 636.82967 968.38477 637.48438 C 967.17008 638.17814 965.732 638.55916 964.30469 638.73828 C 962.87737 638.9174 961.46082 638.89462 960.28711 638.77734 C 955.72496 638.13569 950.49015 636.82105 945.62695 635.8457 L 950.01953 622.85352 L 950.02734 622.84766 C 950.58163 621.49874 951.21803 620.2819 952.05664 619.20703 C 952.89525 618.13216 953.93608 617.19925 955.29688 616.41797 C 956.27921 615.85406 957.28785 615.43929 958.26758 615.16211 C 959.24731 614.88493 960.19812 614.74532 961.06836 614.73438 z "
       id="path1477"
       transform="scale(0.26458333)" />
    <path
       style="opacity:1;fill:#ce8ae2;fill-opacity:1;stroke:none;stroke-width:15.00000286;stroke-linecap:round;stroke-linejoin:miter;stroke-miterlimit:4;stroke-dasharray:none;stroke-opacity:1;paint-order:fill markers stroke"
       d="M 910.54883 581.85352 C 909.33356 581.83178 908.05924 581.93424 906.72461 582.16211 C 905.38997 582.38998 903.99502 582.74327 902.54102 583.2207 C 900.80491 583.77408 899.18321 584.45768 897.67773 585.27148 C 896.17226 586.08528 894.78269 587.0293 893.50781 588.10352 C 892.23294 589.17774 891.07362 590.38216 890.0293 591.7168 C 888.98498 593.05143 888.05598 594.51627 887.24219 596.11133 C 886.42838 597.69553 885.73568 599.28021 885.16602 600.86719 C 884.59635 602.45416 884.14974 604.0431 883.82422 605.63281 C 883.4987 607.22252 883.29427 608.81385 883.21289 610.40625 C 883.13151 611.99865 883.17317 613.59245 883.33594 615.1875 C 883.49869 616.7717 883.72782 618.24013 884.02344 619.59375 C 884.31905 620.94737 884.68085 622.18555 885.10938 623.30859 C 885.5379 624.43164 886.03228 625.43956 886.59375 626.33203 C 887.15522 627.2245 887.78406 628.00217 888.47852 628.66406 C 889.18381 629.3151 889.92082 629.82743 890.69141 630.2207 C 891.46199 630.61398 892.26712 630.88788 893.10352 631.06445 C 893.93991 631.24102 894.8082 631.3194 895.71094 631.32031 C 896.61368 631.32123 897.54992 631.24501 898.51953 631.11133 C 899.02304 631.0244 899.32507 630.95945 900.05078 630.77539 C 900.78862 630.54446 902.28058 629.74781 904.49414 628.01172 C 905.95898 626.86154 907.39718 625.51529 908.81055 623.97461 C 910.22391 622.43393 911.61276 620.69884 912.97461 618.76758 C 914.33645 616.83632 915.67214 614.7106 916.98242 612.38867 C 918.29271 610.06675 919.57726 607.54861 920.83594 604.83594 C 922.13802 602.01478 923.07052 599.75715 923.63477 598.06445 C 923.85398 597.10801 923.94026 596.35018 923.89453 595.39453 C 923.75347 593.9297 923.50682 592.58236 923.1543 591.35352 C 922.80177 590.12468 922.34337 589.01433 921.7793 588.02148 C 921.21522 587.02864 920.54523 586.15332 919.76953 585.39648 C 918.99383 584.63965 918.11241 584.0013 917.125 583.48047 C 916.14845 582.95963 915.11171 582.56407 914.01562 582.29297 C 912.91954 582.02187 911.76411 581.87523 910.54883 581.85352 z M 910.42773 585.83008 L 910.42578 585.83203 C 911.3646 585.84526 912.22571 585.95909 913.02344 586.16016 C 913.82117 586.36122 914.55551 586.64952 915.23828 587.01367 L 915.25195 587.01367 L 915.25977 587.02148 C 915.91048 587.36472 916.49062 587.7679 917.00391 588.25586 C 917.51719 588.74382 917.96343 589.31567 918.34375 589.99609 C 918.72407 590.67651 919.03919 591.46611 919.29102 592.38672 C 919.54284 593.30732 919.73158 594.35984 919.85938 595.56836 C 919.89716 596.18121 919.90993 596.54348 919.70508 597.11914 C 919.20781 598.56383 918.40641 600.55105 917.20312 603.1582 C 915.98442 605.78407 914.74564 608.20288 913.49219 610.41797 C 912.23874 612.63306 910.97143 614.644 909.69727 616.45117 C 908.4231 618.25835 907.14218 619.8635 905.86133 621.26562 C 904.58048 622.66775 903.29889 623.86727 902.02539 624.86719 C 900.99717 625.67366 900.17212 626.25109 899.66211 626.55859 C 899.47994 626.66858 899.35145 626.71327 899.27344 626.73633 C 898.69419 626.93627 898.0971 627.0484 897.4375 627.16016 L 897.43359 627.14844 L 897.375 627.17188 C 895.94636 627.3833 894.88949 627.46709 893.94922 627.27734 C 893.00895 627.0876 892.18527 626.62434 891.22461 625.74414 C 890.79203 625.32895 890.36805 624.7993 889.9668 624.14648 C 889.56554 623.49366 889.18733 622.71682 888.84375 621.8125 C 888.1566 620.00385 887.61083 617.67916 887.3125 614.78125 L 887.3125 614.77344 C 887.17066 613.37973 887.13197 611.99007 887.20117 610.59961 C 887.27037 609.20915 887.44806 607.81865 887.73438 606.42188 C 888.02069 605.0251 888.41628 603.62165 888.92578 602.20898 C 889.43529 600.79632 890.05811 599.37367 890.79688 597.93555 L 890.80469 597.92969 C 891.50893 596.54936 892.29143 595.29926 893.16406 594.16992 C 894.03669 593.04059 894.99873 592.03278 896.0625 591.13672 C 897.12627 590.24066 898.29265 589.4559 899.57031 588.77539 C 900.84797 588.09488 902.23764 587.51784 903.75195 587.03516 L 903.77539 587.02734 L 903.79102 587.01953 C 905.07955 586.59643 906.26875 586.2926 907.37109 586.09766 C 908.47344 585.90271 909.48894 585.81666 910.42773 585.83008 z "
       id="path1471"
       transform="scale(0.26458333)" />
    <path
       style="opacity:1;fill:url(#radialGradient1446);fill-opacity:1;stroke:none;stroke-width:15.00000286;stroke-linecap:round;stroke-linejoin:miter;stroke-miterlimit:4;stroke-dasharray:none;stroke-opacity:1;paint-order:fill markers stroke"
       d="M 812.08398 574.60938 C 811.2783 574.67449 810.53513 574.98371 809.85156 575.53711 C 809.39583 575.90603 809.03778 576.32264 808.77734 576.78906 C 808.51691 577.25548 808.35407 577.77171 808.28906 578.33594 C 807.67057 583.82639 807.27404 588.97678 807.09766 593.78906 C 806.92127 598.60134 806.96471 603.07487 807.23047 607.20898 C 807.49623 611.3431 807.98346 615.1378 808.69141 618.59375 C 809.39935 622.0497 810.32835 625.16753 811.47852 627.94531 C 812.29232 629.93098 813.19108 631.68648 814.17578 633.21094 C 815.16048 634.7354 816.23112 636.02851 817.38672 637.0918 C 818.54232 638.15508 819.78288 638.98769 821.10938 639.58984 C 822.43587 640.192 823.84831 640.56402 825.3457 640.70508 C 826.85395 640.85699 828.3399 640.7731 829.80469 640.45312 C 831.26947 640.13315 832.71341 639.57709 834.13477 638.78516 C 835.55612 637.99322 836.95601 636.96515 838.33398 635.70117 C 839.71196 634.43719 841.06771 632.93728 842.40234 631.20117 C 844.16015 628.92252 845.78282 626.37706 847.26953 623.56641 C 848.75624 620.75575 850.10698 617.6799 851.32227 614.33789 C 851.23545 620.37089 850.94726 626.03972 850.45898 631.3457 C 849.97071 636.65169 849.28233 641.59483 848.39258 646.17383 C 847.70898 649.6569 846.92899 652.79925 846.05273 655.60156 C 845.17648 658.40387 844.20364 660.86681 843.13477 662.98828 C 842.06589 665.10975 840.90013 666.88952 839.63867 668.33008 C 838.37722 669.77063 837.0204 670.87131 835.56641 671.63086 C 834.61155 672.12998 833.59332 672.47537 832.51367 672.66797 C 831.43403 672.86057 830.29232 672.90104 829.08789 672.78711 C 827.88346 672.67318 826.61632 672.40484 825.28711 671.98438 C 823.9579 671.56391 822.56728 670.99067 821.11328 670.26367 C 820.59246 670.025 820.06174 669.89 819.51953 669.85742 C 818.97732 669.82485 818.42362 669.89469 817.85938 670.06836 C 817.29515 670.26368 816.80702 670.53396 816.39453 670.88086 C 815.98204 671.22775 815.64519 671.65127 815.38477 672.15039 C 815.14609 672.67123 815.01109 673.2034 814.97852 673.74609 C 814.94594 674.28879 815.01578 674.84201 815.18945 675.40625 C 815.38478 675.97049 815.66146 676.45861 816.01953 676.87109 C 816.3776 677.28358 816.81706 677.62045 817.33789 677.88086 C 819.55143 678.96592 821.69493 679.79631 823.76758 680.37109 C 825.84023 680.94588 827.84202 681.26507 829.77344 681.33008 C 831.56381 681.38433 833.27046 681.23892 834.89258 680.89453 C 836.5147 680.55014 838.05195 680.00678 839.50586 679.26367 C 840.95977 678.52056 842.32949 677.57746 843.61523 676.43555 C 844.90098 675.29363 846.10308 673.95291 847.2207 672.41211 C 848.52279 670.62717 849.72355 668.6324 850.82422 666.42969 C 851.92489 664.22698 852.92497 661.81579 853.82422 659.19531 C 854.72347 656.57484 855.52287 653.74526 856.2207 650.70703 C 856.91854 647.6688 857.5153 644.42278 858.01172 640.9668 C 858.50814 637.51081 858.90422 633.84639 859.19922 629.97266 C 859.49422 626.09892 859.68766 622.01609 859.78125 617.72461 C 859.87484 613.43313 859.86759 608.93188 859.75977 604.22266 C 859.65194 599.51344 859.44401 594.5957 859.13477 589.46875 L 858.35352 579.70312 C 858.28839 579.20399 858.14686 578.74349 857.92969 578.32031 C 857.71252 577.89714 857.41972 577.51127 857.05078 577.16406 C 856.68186 576.81684 856.27463 576.5449 855.83008 576.34961 C 855.38553 576.15431 854.90365 576.03565 854.38281 575.99219 C 853.86199 575.94878 853.35102 576.01405 852.85156 576.1875 C 852.3521 576.36095 851.86415 576.64259 851.38672 577.0332 C 850.93098 577.40212 850.5793 577.8202 850.33008 578.28711 C 850.08085 578.75402 849.93409 579.26976 849.89062 579.83398 C 849.4132 585.08572 848.75982 589.98732 847.92969 594.53906 C 847.09955 599.09081 846.09296 603.2927 844.91016 607.14453 C 843.72735 610.99637 842.36747 614.49839 840.83203 617.65039 C 839.2966 620.80239 837.58529 623.60439 835.69727 626.05664 C 834.83464 627.17427 833.99365 628.14535 833.17578 628.9707 C 832.35791 629.79605 831.56217 630.47474 830.78906 631.00781 C 830.01595 631.54088 829.26546 631.92913 828.53711 632.16992 C 827.80876 632.41071 827.10352 632.50463 826.41992 632.45312 C 825.73633 632.40162 825.07438 632.20512 824.43555 631.86133 C 823.79671 631.51753 823.18001 631.02672 822.58594 630.39062 C 821.99186 629.75453 821.42041 628.97332 820.87109 628.04492 C 820.32178 627.11653 819.79557 626.04101 819.29102 624.82031 C 818.2819 622.36806 817.47042 619.58127 816.85742 616.45898 C 816.24442 613.3367 815.83021 609.87826 815.61328 606.08594 C 815.39635 602.29362 815.37754 598.16743 815.55664 593.70508 C 815.73574 589.24273 816.11242 584.44488 816.6875 579.3125 C 816.7526 578.72658 816.70871 578.17318 816.55664 577.65234 C 816.40457 577.13151 816.14431 576.64323 815.77539 576.1875 C 815.40647 575.73179 814.98345 575.37372 814.50586 575.11328 C 814.02827 574.85284 813.4961 574.69001 812.91016 574.625 C 812.62805 574.59476 812.35271 574.58865 812.08398 574.61133 L 812.08398 574.60938 z "
       id="path1469"
       transform="scale(0.26458333)" />
    <path
       style="opacity:1;fill:url(#radialGradient1446);fill-opacity:1;stroke:none;stroke-width:15.00000286;stroke-linecap:round;stroke-linejoin:miter;stroke-miterlimit:4;stroke-dasharray:none;stroke-opacity:1;paint-order:fill markers stroke"
       d="M 910.0332 573.4043 C 908.43341 573.40607 906.79186 573.55295 905.10938 573.84375 C 903.42689 574.13455 901.70344 574.56928 899.9375 575.14844 C 897.63715 575.88628 895.48406 576.80937 893.47656 577.91602 C 891.46906 579.02266 889.60715 580.31353 887.89258 581.78906 C 886.17801 583.26459 884.60906 584.92308 883.1875 586.76758 C 881.76594 588.61207 880.49175 590.64192 879.36328 592.85547 C 878.41927 594.71093 877.61924 596.59287 876.96289 598.5 C 876.30654 600.40713 875.79454 602.34012 875.42578 604.29883 C 875.05702 606.25754 874.83126 608.24174 874.75 610.25195 C 874.66874 612.26217 874.73134 614.29774 874.9375 616.35938 C 875.15451 618.41015 875.48612 620.33789 875.93359 622.14453 C 876.38106 623.95117 876.94504 625.63672 877.62305 627.19922 C 878.30105 628.76172 879.09333 630.20117 880.00195 631.51953 C 880.91058 632.83789 881.9349 634.03515 883.07422 635.10938 C 884.2461 636.21613 885.50575 637.15549 886.85156 637.9043 C 888.19737 638.6531 889.62935 639.21137 891.14844 639.55859 C 892.68924 639.9058 894.23057 640.00558 895.7793 639.92773 C 897.32802 639.84989 898.88414 639.59443 900.45703 639.23242 C 901.93368 638.89257 903.43134 638.46978 904.91797 637.84375 C 906.4046 637.21772 907.88021 636.38845 909.3125 635.23828 C 911.65626 633.35026 913.9349 631.09922 916.14844 628.48438 C 918.36198 625.86953 920.51042 622.89085 922.59375 619.54883 C 922.63716 623.36828 922.83724 626.86301 923.19531 630.03125 C 923.55338 633.19949 924.06945 636.04124 924.74219 638.55859 C 924.8941 639.12284 925.13347 639.61588 925.45898 640.03906 C 925.7845 640.46224 926.19617 640.81555 926.69531 641.09766 C 927.21613 641.40159 927.74191 641.59171 928.27344 641.66797 C 928.80496 641.74423 929.34223 641.70662 929.88477 641.55469 C 930.44901 641.40277 930.94206 641.16341 931.36523 640.83789 C 931.78841 640.51237 932.14172 640.10071 932.42383 639.60156 C 932.72772 639.10244 932.91836 638.5867 932.99414 638.05469 C 933.06992 637.52268 933.03084 636.97438 932.87891 636.41016 C 932.33637 634.41363 931.91068 632.15233 931.60156 629.62695 C 931.29244 627.10158 931.09923 624.31212 931.02344 621.25781 C 930.94765 618.20351 930.98903 614.8841 931.14648 611.30078 C 931.30394 607.71746 931.57813 603.87023 931.96875 599.75781 C 932.31136 597.71709 932.44138 596.15486 932.35938 594.80859 C 932.15321 592.5625 931.77421 590.49186 931.2207 588.5957 C 930.6672 586.69954 929.93983 584.97786 929.03906 583.43164 C 928.13829 581.88542 927.06241 580.51465 925.81445 579.31836 C 924.5665 578.12207 923.14584 577.10025 921.55078 576.25391 C 919.76855 575.30175 917.91766 574.58812 915.99805 574.11328 C 914.07843 573.63845 912.09008 573.40241 910.0332 573.4043 z M 910.54883 581.85352 C 911.76411 581.87523 912.91954 582.02187 914.01562 582.29297 C 915.11171 582.56407 916.14845 582.95963 917.125 583.48047 C 918.11241 584.0013 918.99383 584.63965 919.76953 585.39648 C 920.54523 586.15332 921.21522 587.02864 921.7793 588.02148 C 922.34337 589.01433 922.80177 590.12468 923.1543 591.35352 C 923.50682 592.58236 923.75347 593.9297 923.89453 595.39453 C 923.94026 596.35018 923.85398 597.10801 923.63477 598.06445 C 923.07052 599.75715 922.13802 602.01478 920.83594 604.83594 C 919.57726 607.54861 918.29271 610.06675 916.98242 612.38867 C 915.67214 614.7106 914.33645 616.83632 912.97461 618.76758 C 911.61276 620.69884 910.22391 622.43393 908.81055 623.97461 C 907.39718 625.51529 905.95898 626.86154 904.49414 628.01172 C 902.28058 629.74781 900.78862 630.54446 900.05078 630.77539 C 899.32507 630.95945 899.02304 631.0244 898.51953 631.11133 C 897.54992 631.24501 896.61368 631.32123 895.71094 631.32031 C 894.8082 631.3194 893.93991 631.24102 893.10352 631.06445 C 892.26712 630.88788 891.46199 630.61398 890.69141 630.2207 C 889.92082 629.82743 889.18381 629.3151 888.47852 628.66406 C 887.78406 628.00217 887.15522 627.2245 886.59375 626.33203 C 886.03228 625.43956 885.5379 624.43164 885.10938 623.30859 C 884.68085 622.18555 884.31905 620.94737 884.02344 619.59375 C 883.72782 618.24013 883.49869 616.7717 883.33594 615.1875 C 883.17317 613.59245 883.13151 611.99865 883.21289 610.40625 C 883.29427 608.81385 883.4987 607.22252 883.82422 605.63281 C 884.14974 604.0431 884.59635 602.45416 885.16602 600.86719 C 885.73568 599.28021 886.42838 597.69553 887.24219 596.11133 C 888.05598 594.51627 888.98498 593.05143 890.0293 591.7168 C 891.07362 590.38216 892.23294 589.17774 893.50781 588.10352 C 894.78269 587.0293 896.17226 586.08528 897.67773 585.27148 C 899.18321 584.45768 900.80491 583.77408 902.54102 583.2207 C 903.99502 582.74327 905.38997 582.38998 906.72461 582.16211 C 908.05924 581.93424 909.33356 581.83178 910.54883 581.85352 z "
       id="path1467"
       transform="scale(0.26458333)" />
    <path
       style="opacity:1;fill:url(#radialGradient1587);fill-opacity:1.0;stroke:none;stroke-width:15.00000286;stroke-linecap:round;stroke-linejoin:miter;stroke-miterlimit:4;stroke-dasharray:none;stroke-opacity:1;paint-order:fill markers stroke"
       d="M 727.11914 573 C 726.53322 572.95659 725.98476 573.01693 725.47461 573.17969 C 724.96446 573.34245 724.49262 573.60764 724.05859 573.97656 C 723.62455 574.34548 723.28246 574.76899 723.0332 575.24609 C 722.78394 575.7232 722.62751 576.2539 722.5625 576.83984 C 722.51911 577.42578 722.62826 578.0344 722.88867 578.66406 C 723.14909 579.29373 723.56078 579.94445 724.125 580.61719 C 724.68924 581.28992 725.27995 582.42448 725.89844 584.01953 C 726.51693 585.61459 727.1632 587.67015 727.83594 590.1875 C 728.53037 592.68316 729.12354 595.82709 729.50781 599.57422 C 729.89208 603.32135 730.06745 607.67167 729.92969 612.58203 C 729.82957 616.14875 729.51253 619.84334 729.26367 623.7207 C 729.01481 627.59807 728.83414 631.65821 729.00781 635.95508 C 729.0512 636.86655 729.41883 637.75696 730.11328 638.625 C 730.4822 639.03733 730.89388 639.36299 731.34961 639.60156 C 731.80534 639.84014 732.30512 639.99163 732.84766 640.05664 C 733.4119 640.10005 733.94884 640.03972 734.45898 639.87695 C 734.96913 639.71419 735.45249 639.449 735.9082 639.08008 C 736.36394 638.71114 736.71708 638.29258 736.9668 637.82617 C 737.21651 637.35976 737.36279 636.84549 737.40625 636.28125 L 737.66602 633.74219 C 738.03493 630.29167 738.25323 626.83539 738.41602 623.39844 C 738.5788 619.96148 738.68608 616.54384 738.83008 613.16797 C 739.1365 611.06771 739.54015 609.0479 740.03711 607.11133 C 740.53407 605.17476 741.125 603.32175 741.80078 601.55469 C 742.47656 599.78762 743.2372 598.10736 744.08008 596.51562 C 744.92296 594.92389 745.84745 593.42035 746.8457 592.00977 C 747.84397 590.58832 748.88689 589.32005 749.97461 588.20508 C 751.06233 587.09011 752.19388 586.12877 753.37109 585.32031 C 754.54831 584.51185 755.77035 583.85542 757.03711 583.35352 C 758.30387 582.85161 759.61632 582.5039 760.97266 582.30859 C 762.33984 582.11328 763.67555 582.04818 764.98047 582.11328 C 766.28539 582.17838 767.56017 582.3737 768.80273 582.69922 C 770.0453 583.02474 771.25541 583.48047 772.43555 584.06641 C 773.61568 584.65235 774.76519 585.36849 775.88281 586.21484 C 777.01128 587.06119 778.04026 588.00395 778.9707 589.04297 C 779.90115 590.08198 780.73242 591.21758 781.46484 592.44922 C 782.19726 593.68086 782.83084 595.00938 783.36523 596.43359 C 783.89963 597.85781 784.3355 599.37739 784.67188 600.99414 C 785.1927 603.50065 785.43095 606.07459 785.38477 608.7168 C 785.33859 611.359 785.00768 614.0698 784.39453 616.84766 C 783.78138 619.62551 782.88515 622.47129 781.70508 625.38477 C 780.52501 628.29824 779.06141 631.27908 777.31445 634.32812 C 777.03239 634.82725 776.85809 635.34841 776.79297 635.89062 C 776.72785 636.43284 776.77189 636.99609 776.92383 637.58203 C 777.07574 638.14626 777.31511 638.63932 777.64062 639.0625 C 777.96614 639.48568 778.37781 639.83897 778.87695 640.12109 C 779.37608 640.40314 779.89035 640.57745 780.42188 640.64258 C 780.9534 640.70771 781.50216 640.66365 782.06641 640.51172 C 782.65233 640.35982 783.1633 640.12045 783.59766 639.79492 C 784.03201 639.4694 784.38975 639.05772 784.67188 638.55859 C 786.69006 635.04297 788.37817 631.58761 789.73438 628.19141 C 791.09058 624.7952 792.1143 621.45847 792.80859 618.18164 C 793.50288 614.90481 793.86599 611.68679 793.89844 608.5293 C 793.91466 606.95055 793.84845 605.38681 793.69922 603.83789 C 793.54999 602.28897 793.31857 600.75543 793.00391 599.23633 C 792.54817 597.09874 791.95187 595.08177 791.2168 593.18555 C 790.48172 591.28933 789.60821 589.51419 788.59375 587.85938 C 787.57929 586.20456 786.42474 584.66922 785.13086 583.25586 C 783.83698 581.84249 782.40343 580.55079 780.83008 579.37891 C 779.26758 578.19618 777.65625 577.19423 775.99609 576.375 C 774.33594 575.55577 772.62695 574.91862 770.86914 574.46289 C 769.11133 574.00716 767.30469 573.73286 765.44922 573.64062 C 763.59375 573.54839 761.68946 573.63889 759.73633 573.91016 C 757.38173 574.25738 755.13922 574.89321 753.00977 575.81836 C 750.88031 576.7435 748.86328 577.95795 746.95898 579.46094 C 745.05469 580.96392 743.26313 582.7552 741.58398 584.83594 C 739.90484 586.91668 738.33875 589.2869 736.88477 591.94531 C 736.52669 589.98134 736.11621 588.14465 735.65234 586.43555 C 735.18848 584.72644 734.67122 583.14556 734.10156 581.69141 C 733.5319 580.23725 732.90983 578.91006 732.23438 577.71094 C 731.55892 576.51181 730.83008 575.44011 730.04883 574.49609 C 729.67991 574.04036 729.25195 573.68868 728.76367 573.43945 C 728.27539 573.19023 727.7268 573.04346 727.11914 573 z "
       id="path1465"
       transform="scale(0.26458333)" />
    <path
       style="opacity:1;fill:#ce8ae2;fill-opacity:1;stroke:none;stroke-width:15.00000286;stroke-linecap:round;stroke-linejoin:miter;stroke-miterlimit:4;stroke-dasharray:none;stroke-opacity:1;paint-order:fill markers stroke"
       d="M 812.56055 570.60547 L 812.55859 570.60938 C 811.6238 570.6056 810.67112 570.77279 809.77539 571.08398 C 808.87966 571.39518 808.04087 571.85037 807.33008 572.42578 C 806.52298 573.07915 805.82771 573.9216 805.30469 574.86133 C 804.78166 575.80105 804.43087 576.83805 804.31055 577.88086 L 804.31055 577.88867 C 803.68244 583.46449 803.26894 588.71324 803.08203 593.64062 C 802.89513 598.56801 802.93568 603.17435 803.21094 607.46484 C 803.48619 611.75533 803.99749 615.72941 804.75586 619.39453 C 805.51423 623.05966 806.51881 626.41551 807.78125 629.4668 C 808.67294 631.64254 809.71341 633.63606 810.89258 635.41406 C 812.07175 637.19206 813.3904 638.75522 814.83594 640.06836 C 816.28148 641.3815 817.8541 642.4454 819.54492 643.22656 C 821.23574 644.00772 823.04398 644.50544 824.95898 644.6875 C 825.91446 644.78294 826.87107 644.78433 827.82617 644.69922 C 828.78127 644.61411 829.735 644.44254 830.68164 644.19141 C 832.57492 643.68914 834.44302 642.87026 836.25391 641.79102 C 838.06479 640.71177 839.81864 639.37207 841.48242 637.83203 C 843.1462 636.29199 844.71991 634.55067 846.17188 632.66602 C 845.73988 636.44173 845.11822 642.06976 844.46875 645.41211 C 843.80828 648.77579 843.04477 651.75088 842.21094 654.35156 C 841.3771 656.95224 840.47388 659.17802 839.5332 661.04688 C 838.59253 662.91573 837.6138 664.42748 836.63281 665.5957 C 835.65183 666.76392 834.66766 667.58913 833.71289 668.08789 C 833.11934 668.39815 832.4701 668.627 831.75 668.75586 C 831.0299 668.88472 830.23837 668.9134 829.35938 668.82227 C 828.48038 668.73113 827.51359 668.51964 826.44336 668.16992 C 825.37313 667.8202 824.20005 667.33244 822.90625 666.68555 L 822.83984 666.6543 L 822.78125 666.625 C 821.8448 666.19597 820.80806 665.95074 819.76172 665.88867 C 818.71537 665.8266 817.65941 665.94769 816.68359 666.24805 L 816.61719 666.26367 L 816.55078 666.28516 C 815.57875 666.62163 814.6421 667.16024 813.82812 667.84766 C 813.01415 668.53507 812.32284 669.3713 811.83789 670.30078 L 811.78906 670.38867 L 811.74414 670.48438 C 811.31494 671.42082 811.07129 672.45757 811.00977 673.50391 C 810.94825 674.55025 811.06886 675.6062 811.36914 676.58203 L 811.38281 676.64844 L 811.41406 676.71484 C 811.75802 677.70852 812.31668 678.65649 813.02734 679.47461 C 813.738 680.29273 814.60066 680.98099 815.54883 681.45508 L 815.56445 681.46289 L 815.57812 681.4707 C 817.98391 682.64999 820.35885 683.57575 822.70312 684.22656 C 825.0474 684.87737 827.36103 685.25324 829.64062 685.33008 L 829.64844 685.33008 L 829.65625 685.33008 C 831.73939 685.3932 833.76322 685.20155 835.70703 684.76953 C 837.65084 684.33751 839.51551 683.665 841.27734 682.76562 C 843.03918 681.86625 844.69913 680.73935 846.23633 679.40039 C 847.77353 678.06143 849.18711 676.51053 850.45703 674.75977 C 851.90419 672.77535 853.22635 670.59612 854.42773 668.22266 C 855.62912 665.84919 856.70887 663.28082 857.67188 660.51562 C 858.63488 657.75043 859.48087 654.78852 860.21289 651.62891 C 860.94491 648.46929 861.56383 645.11336 862.07227 641.55664 C 862.5807 637.99992 862.97924 634.24362 863.27148 630.28711 C 863.56373 626.3306 863.75054 622.17344 863.83398 617.81445 C 863.91743 613.45547 863.89725 608.89501 863.7793 604.13086 C 863.66134 599.36671 863.44477 594.39856 863.13281 589.22656 L 863.125 589.1875 L 862.33398 579.28125 L 862.31836 579.18555 C 862.19836 578.26502 861.90344 577.34995 861.4707 576.50586 C 861.03797 575.66177 860.46742 574.88868 859.79297 574.25391 C 859.11227 573.61326 858.30447 573.0887 857.43555 572.70508 C 856.56662 572.32146 855.63658 572.07877 854.71484 572.00195 C 853.64998 571.91314 852.57804 572.07726 851.57617 572.42383 C 850.57431 572.7704 849.64252 573.29942 848.86133 573.9375 C 848.04552 574.60103 847.34594 575.46799 846.83008 576.43359 C 846.31422 577.39919 845.98209 578.46344 845.90039 579.52539 C 845.43154 584.66491 844.7869 589.43874 843.97656 593.8457 C 843.16622 598.25266 842.19003 602.29245 841.06055 605.9668 C 839.93107 609.64115 838.64698 612.94893 837.2207 615.89062 C 835.79443 618.83232 834.22611 621.40821 832.52539 623.61719 C 830.9687 625.6312 829.62874 626.85135 828.62305 627.56445 C 827.61736 628.27756 826.94593 628.48363 826.72266 628.4668 C 826.49891 628.45168 826.2143 628.41427 825.51172 627.66211 C 824.81005 626.91078 823.87836 625.45025 822.98828 623.29883 L 822.98828 623.29102 C 822.09847 621.12746 821.36642 618.58722 820.80469 615.67773 C 820.24296 612.76825 819.85234 609.48873 819.64258 605.84961 C 819.43281 602.21049 819.40424 598.21183 819.57031 593.85938 C 819.73639 589.50692 820.09631 584.80146 820.66211 579.75195 C 820.77927 578.69737 820.66822 577.58936 820.36133 576.53906 C 820.05443 575.48877 819.5517 574.49618 818.88281 573.66992 C 818.21807 572.84878 817.36231 572.15306 816.41016 571.63281 C 815.45801 571.11256 814.40947 570.76778 813.36133 570.65039 L 813.35547 570.65039 C 813.09279 570.62015 812.82765 570.6066 812.56055 570.60547 z M 812.08398 574.60938 L 812.08398 574.61133 C 812.35271 574.58865 812.62805 574.59476 812.91016 574.625 C 813.4961 574.69001 814.02827 574.85284 814.50586 575.11328 C 814.98345 575.37372 815.40647 575.73179 815.77539 576.1875 C 816.14431 576.64323 816.40457 577.13151 816.55664 577.65234 C 816.70871 578.17318 816.7526 578.72658 816.6875 579.3125 C 816.11242 584.44488 815.73574 589.24273 815.55664 593.70508 C 815.37754 598.16743 815.39635 602.29362 815.61328 606.08594 C 815.83021 609.87826 816.24442 613.3367 816.85742 616.45898 C 817.47042 619.58127 818.2819 622.36806 819.29102 624.82031 C 819.79557 626.04101 820.32178 627.11653 820.87109 628.04492 C 821.42041 628.97332 821.99186 629.75453 822.58594 630.39062 C 823.18001 631.02672 823.79671 631.51753 824.43555 631.86133 C 825.07438 632.20512 825.73633 632.40162 826.41992 632.45312 C 827.10352 632.50463 827.80876 632.41071 828.53711 632.16992 C 829.26546 631.92913 830.01595 631.54088 830.78906 631.00781 C 831.56217 630.47474 832.35791 629.79605 833.17578 628.9707 C 833.99365 628.14535 834.83464 627.17427 835.69727 626.05664 C 837.58529 623.60439 839.2966 620.80239 840.83203 617.65039 C 842.36747 614.49839 843.72735 610.99637 844.91016 607.14453 C 846.09296 603.2927 847.09955 599.09081 847.92969 594.53906 C 848.75982 589.98732 849.4132 585.08572 849.89062 579.83398 C 849.93409 579.26976 850.08085 578.75402 850.33008 578.28711 C 850.5793 577.8202 850.93098 577.40212 851.38672 577.0332 C 851.86415 576.64259 852.3521 576.36095 852.85156 576.1875 C 853.35102 576.01405 853.86199 575.94878 854.38281 575.99219 C 854.90365 576.03565 855.38553 576.15431 855.83008 576.34961 C 856.27463 576.5449 856.68186 576.81684 857.05078 577.16406 C 857.41972 577.51127 857.71252 577.89714 857.92969 578.32031 C 858.14686 578.74349 858.28839 579.20399 858.35352 579.70312 L 859.13477 589.46875 C 859.44401 594.5957 859.65194 599.51344 859.75977 604.22266 C 859.86759 608.93188 859.87484 613.43313 859.78125 617.72461 C 859.68766 622.01609 859.49422 626.09892 859.19922 629.97266 C 858.90422 633.84639 858.50814 637.51081 858.01172 640.9668 C 857.5153 644.42278 856.91854 647.6688 856.2207 650.70703 C 855.52287 653.74526 854.72347 656.57484 853.82422 659.19531 C 852.92497 661.81579 851.92489 664.22698 850.82422 666.42969 C 849.72355 668.6324 848.52279 670.62717 847.2207 672.41211 C 846.10308 673.95291 844.90098 675.29363 843.61523 676.43555 C 842.32949 677.57746 840.95977 678.52056 839.50586 679.26367 C 838.05195 680.00678 836.5147 680.55014 834.89258 680.89453 C 833.27046 681.23892 831.56381 681.38433 829.77344 681.33008 C 827.84202 681.26507 825.84023 680.94588 823.76758 680.37109 C 821.69493 679.79631 819.55143 678.96592 817.33789 677.88086 C 816.81706 677.62045 816.3776 677.28358 816.01953 676.87109 C 815.66146 676.45861 815.38478 675.97049 815.18945 675.40625 C 815.01578 674.84201 814.94594 674.28879 814.97852 673.74609 C 815.01109 673.2034 815.14609 672.67123 815.38477 672.15039 C 815.64519 671.65127 815.98204 671.22775 816.39453 670.88086 C 816.80702 670.53396 817.29515 670.26368 817.85938 670.06836 C 818.42362 669.89469 818.97732 669.82485 819.51953 669.85742 C 820.06174 669.89 820.59246 670.025 821.11328 670.26367 C 822.56728 670.99067 823.9579 671.56391 825.28711 671.98438 C 826.61632 672.40484 827.88346 672.67318 829.08789 672.78711 C 830.29232 672.90104 831.43403 672.86057 832.51367 672.66797 C 833.59332 672.47537 834.61155 672.12998 835.56641 671.63086 C 837.0204 670.87131 838.37722 669.77063 839.63867 668.33008 C 840.90013 666.88952 842.06589 665.10975 843.13477 662.98828 C 844.20364 660.86681 845.17648 658.40387 846.05273 655.60156 C 846.92899 652.79925 847.70898 649.6569 848.39258 646.17383 C 849.28233 641.59483 849.97071 636.65169 850.45898 631.3457 C 850.94726 626.03972 851.23545 620.37089 851.32227 614.33789 C 850.10698 617.6799 848.75624 620.75575 847.26953 623.56641 C 845.78282 626.37706 844.16015 628.92252 842.40234 631.20117 C 841.06771 632.93728 839.71196 634.43719 838.33398 635.70117 C 836.95601 636.96515 835.55612 637.99322 834.13477 638.78516 C 832.71341 639.57709 831.26947 640.13315 829.80469 640.45312 C 828.3399 640.7731 826.85395 640.85699 825.3457 640.70508 C 823.84831 640.56402 822.43587 640.192 821.10938 639.58984 C 819.78288 638.98769 818.54232 638.15508 817.38672 637.0918 C 816.23112 636.02851 815.16048 634.7354 814.17578 633.21094 C 813.19108 631.68648 812.29232 629.93098 811.47852 627.94531 C 810.32835 625.16753 809.39935 622.0497 808.69141 618.59375 C 807.98346 615.1378 807.49623 611.3431 807.23047 607.20898 C 806.96471 603.07487 806.92127 598.60134 807.09766 593.78906 C 807.27404 588.97678 807.67057 583.82639 808.28906 578.33594 C 808.35407 577.77171 808.51691 577.25548 808.77734 576.78906 C 809.03778 576.32264 809.39583 575.90603 809.85156 575.53711 C 810.53513 574.98371 811.2783 574.67449 812.08398 574.60938 z "
       id="path1463"
       transform="scale(0.26458333)" />
    <path
       style="opacity:1;fill:#ce8ae2;fill-opacity:1;stroke:none;stroke-width:15.00000286;stroke-linecap:round;stroke-linejoin:miter;stroke-miterlimit:4;stroke-dasharray:none;stroke-opacity:1;paint-order:fill markers stroke"
       d="M 910.0625 569.43945 C 908.22537 569.43756 906.35346 569.59785 904.45898 569.91602 C 902.56451 570.23418 900.64747 570.71022 898.7168 571.3418 C 898.71377 571.34278 898.71454 571.34961 898.70898 571.34961 C 896.17818 572.16207 893.78834 573.19497 891.55078 574.4375 C 889.31323 575.68003 887.22811 577.13174 885.30469 578.78516 C 883.38126 580.43857 881.61967 582.29277 880.03125 584.33789 C 878.44283 586.38301 877.02744 588.61947 875.79492 591.03711 L 875.79492 591.04297 C 874.7697 593.05808 873.89784 595.11324 873.18164 597.20117 C 872.46544 599.2891 871.90496 601.4106 871.5 603.56055 C 871.09504 605.71049 870.84541 607.88869 870.75391 610.08984 C 870.6624 612.291 870.72897 614.5143 870.95312 616.75586 L 870.95312 616.77148 L 870.96094 616.7793 C 871.19524 618.99342 871.56105 621.10988 872.0625 623.11914 C 872.56395 625.1284 873.20067 627.03078 873.97656 628.81445 C 874.75246 630.59812 875.66697 632.26342 876.72461 633.80078 C 877.78225 635.33814 878.98339 636.74724 880.33008 638.01758 C 881.73967 639.34886 883.29059 640.47623 884.95508 641.37695 C 886.61957 642.27768 888.39764 642.95176 890.25781 643.37695 L 890.26562 643.37695 C 892.06031 643.78138 893.86505 643.84788 895.68164 643.74414 C 897.49823 643.64041 899.32668 643.36644 901.16797 643.08789 C 903.02183 642.65431 904.87046 642.12513 906.66211 641.37891 C 908.45376 640.63268 910.18842 639.66942 911.8125 638.36523 L 911.81836 638.35742 C 913.24203 637.21058 914.55762 635.68964 915.8418 634.05859 C 917.12597 632.42755 918.37873 630.68639 919.67383 629.09961 C 919.86224 630.86245 919.96974 632.76508 920.12695 634.58789 C 920.28416 636.4107 920.49108 638.15369 920.87695 639.59766 L 920.87695 639.60547 C 921.14846 640.61394 921.64868 641.59122 922.30859 642.44727 C 922.9685 643.30332 923.7881 644.03814 924.70117 644.56055 C 925.60516 645.08435 926.65115 645.43929 927.72852 645.5918 C 928.80588 645.7443 929.91462 645.69439 930.94531 645.4082 C 931.94305 645.13566 932.90828 644.63957 933.75391 643.98633 C 934.59954 643.33308 935.32557 642.52268 935.84766 641.62109 C 936.38875 640.71295 936.74975 639.66113 936.90625 638.58203 C 937.06275 637.50293 937.01474 636.39656 936.74023 635.37695 L 936.74023 635.36914 C 936.26175 633.6083 935.87754 631.54797 935.59375 629.19531 C 935.30996 626.84266 935.12694 624.1981 935.05078 621.27148 C 934.97462 618.34487 935.006 615.13506 935.15039 611.65234 C 935.29478 608.16962 935.55182 604.41355 935.92969 600.39258 C 936.25851 598.18446 936.36338 596.16625 936.20898 594.01562 C 935.95774 591.60697 935.50026 589.31992 934.83984 587.18359 C 934.17943 585.04727 933.31641 583.06161 932.25 581.25195 C 931.18359 579.4423 929.91454 577.80952 928.44531 576.38086 C 926.97609 574.9522 925.30636 573.72771 923.4375 572.73438 C 921.60207 571.7538 919.69021 570.99674 917.7168 570.45703 C 915.74338 569.91732 913.7084 569.59495 911.62695 569.48633 L 911.62695 569.48438 C 911.1078 569.45792 910.58545 569.44412 910.06055 569.44336 L 910.0625 569.43945 z M 910.0332 573.4043 C 912.09008 573.40241 914.07843 573.63845 915.99805 574.11328 C 917.91766 574.58812 919.76855 575.30175 921.55078 576.25391 C 923.14584 577.10025 924.5665 578.12207 925.81445 579.31836 C 927.06241 580.51465 928.13829 581.88542 929.03906 583.43164 C 929.93983 584.97786 930.6672 586.69954 931.2207 588.5957 C 931.77421 590.49186 932.15321 592.5625 932.35938 594.80859 C 932.44138 596.15486 932.31136 597.71709 931.96875 599.75781 C 931.57813 603.87023 931.30394 607.71746 931.14648 611.30078 C 930.98903 614.8841 930.94765 618.20351 931.02344 621.25781 C 931.09923 624.31212 931.29244 627.10158 931.60156 629.62695 C 931.91068 632.15233 932.33637 634.41363 932.87891 636.41016 C 933.03084 636.97438 933.06992 637.52268 932.99414 638.05469 C 932.91836 638.5867 932.72772 639.10244 932.42383 639.60156 C 932.14172 640.10071 931.78841 640.51237 931.36523 640.83789 C 930.94206 641.16341 930.44901 641.40277 929.88477 641.55469 C 929.34223 641.70662 928.80496 641.74423 928.27344 641.66797 C 927.74191 641.59171 927.21613 641.40159 926.69531 641.09766 C 926.19617 640.81555 925.7845 640.46224 925.45898 640.03906 C 925.13347 639.61588 924.8941 639.12284 924.74219 638.55859 C 924.06945 636.04124 923.55338 633.19949 923.19531 630.03125 C 922.83724 626.86301 922.63716 623.36828 922.59375 619.54883 C 920.51042 622.89085 918.36198 625.86953 916.14844 628.48438 C 913.9349 631.09922 911.65626 633.35026 909.3125 635.23828 C 907.88021 636.38845 906.4046 637.21772 904.91797 637.84375 C 903.43134 638.46978 901.93368 638.89257 900.45703 639.23242 C 898.88414 639.59443 897.32802 639.84989 895.7793 639.92773 C 894.23057 640.00558 892.68924 639.9058 891.14844 639.55859 C 889.62935 639.21137 888.19737 638.6531 886.85156 637.9043 C 885.50575 637.15549 884.2461 636.21613 883.07422 635.10938 C 881.9349 634.03515 880.91058 632.83789 880.00195 631.51953 C 879.09333 630.20117 878.30105 628.76172 877.62305 627.19922 C 876.94504 625.63672 876.38106 623.95117 875.93359 622.14453 C 875.48612 620.33789 875.15451 618.41015 874.9375 616.35938 C 874.73134 614.29774 874.66874 612.26217 874.75 610.25195 C 874.83126 608.24174 875.05702 606.25754 875.42578 604.29883 C 875.79454 602.34012 876.30654 600.40713 876.96289 598.5 C 877.61924 596.59287 878.41927 594.71093 879.36328 592.85547 C 880.49175 590.64192 881.76594 588.61207 883.1875 586.76758 C 884.60906 584.92308 886.17801 583.26459 887.89258 581.78906 C 889.60715 580.31353 891.46906 579.02266 893.47656 577.91602 C 895.48406 576.80937 897.63715 575.88628 899.9375 575.14844 C 901.70344 574.56928 903.42689 574.13455 905.10938 573.84375 C 906.79186 573.55295 908.43341 573.40607 910.0332 573.4043 z "
       id="path1461"
       transform="scale(0.26458333)" />
    <path
       style="opacity:1;fill:#ce8ae2;fill-opacity:1;stroke:none;stroke-width:15.00000286;stroke-linecap:round;stroke-linejoin:miter;stroke-miterlimit:4;stroke-dasharray:none;stroke-opacity:1;paint-order:fill markers stroke"
       d="M 726.61914 568.98828 L 726.61719 568.99219 C 725.69534 569.01921 724.75711 569.20484 723.875 569.5332 C 722.99289 569.86157 722.1669 570.33267 721.4668 570.92773 C 720.67226 571.6031 720.0102 572.4578 719.51758 573.40039 C 719.02495 574.34298 718.70177 575.37347 718.58789 576.39844 L 718.58203 576.4707 L 718.57422 576.54492 C 718.47954 577.82382 718.71913 579.02895 719.17383 580.14258 C 719.62852 581.2562 720.29832 582.27832 721.0625 583.18945 C 721.08895 583.22101 721.4924 584.01662 722.05078 585.41016 C 722.60917 586.80369 723.3225 588.79515 723.9707 591.2207 L 723.97852 591.24219 L 723.98438 591.25781 C 724.5863 593.42099 725.08631 596.29238 725.45898 599.82422 C 725.83166 603.35606 726.07701 607.54834 726.16797 612.35352 C 725.60327 615.95257 725.22721 619.73132 725.03516 623.69141 C 724.8431 627.65149 724.83506 631.79292 725.00977 636.11719 L 725.00977 636.13281 L 725.00977 636.14648 C 725.05417 637.07829 725.27452 637.97886 725.62109 638.81836 C 725.96766 639.65786 726.44046 640.4363 726.98828 641.12109 L 727.0625 641.21094 L 727.13672 641.29102 C 727.79562 642.02742 728.61074 642.65213 729.50781 643.12305 C 730.40489 643.59396 731.38393 643.91107 732.36914 644.0293 L 732.45898 644.03711 L 732.53906 644.04492 C 733.57639 644.12467 734.64812 643.98562 735.66016 643.66406 C 736.6722 643.34251 737.62455 642.83844 738.42383 642.19141 C 739.24298 641.52827 739.9445 640.65983 740.46094 639.69141 C 740.97737 638.72298 741.30873 637.65456 741.39062 636.58984 L 741.64844 634.14648 L 741.64062 634.16992 C 742.00658 630.74711 742.26589 627.33414 742.42578 623.92969 C 742.58567 620.52524 742.64615 617.1293 742.61523 613.74414 C 742.96554 611.75568 743.38538 609.86266 743.875 608.0625 C 744.36462 606.26234 744.9246 604.55529 745.55078 602.93945 C 746.17696 601.32362 746.87086 599.79877 747.63086 598.36328 C 748.39086 596.92779 749.21635 595.58139 750.10742 594.32227 L 750.11523 594.31445 L 750.11523 594.30664 C 751.00299 593.04256 751.89805 591.94517 752.80664 591.00195 C 753.71523 590.05873 754.63731 589.27004 755.58008 588.61914 C 756.52284 587.96824 757.48628 587.45547 758.47656 587.06836 C 759.46685 586.68125 760.48401 586.41944 761.53516 586.26758 C 762.66439 586.10626 763.74225 586.04456 764.78125 586.08789 C 765.82025 586.13122 766.82089 586.27913 767.79688 586.53516 C 768.77286 586.79119 769.72386 587.15604 770.66406 587.63281 C 771.60427 588.10959 772.53319 588.69873 773.46484 589.4043 L 773.47266 589.41211 L 773.48047 589.41211 C 774.40259 590.1037 775.24385 590.86693 776.00586 591.71094 C 776.76787 592.55494 777.45006 593.47975 778.05469 594.49805 C 778.65932 595.51634 779.18675 596.62734 779.63672 597.8418 C 780.08669 599.05625 780.45978 600.37415 780.75781 601.80664 C 781.2169 604.01602 781.43005 606.30251 781.38867 608.66992 C 781.34729 611.03733 781.05082 613.48475 780.48828 616.02148 C 779.92574 618.55822 779.09853 621.18302 777.99414 623.90039 C 776.88975 626.61776 775.50873 629.42859 773.8418 632.33789 L 773.8418 632.35352 L 773.83398 632.36133 C 773.31124 633.28618 772.98413 634.33885 772.85352 635.41211 C 772.7229 636.48537 772.78877 637.57922 773.05078 638.58984 L 773.05859 638.60352 L 773.05859 638.61914 C 773.3317 639.63357 773.83507 640.61857 774.5 641.48047 C 775.16493 642.34237 775.99143 643.08118 776.91211 643.60156 C 777.82294 644.11639 778.86371 644.44419 779.92773 644.57617 C 780.99176 644.70815 782.07903 644.64432 783.08398 644.37695 C 784.10578 644.10968 785.10626 643.61369 785.98438 642.95117 C 786.86249 642.28865 787.61824 641.45961 788.14844 640.52344 C 788.14893 640.52257 788.15247 640.52431 788.15625 640.52344 C 790.25539 636.86378 792.02433 633.23263 793.45508 629.63672 C 794.88582 626.04081 795.97914 622.48074 796.72266 618.96289 C 797.09441 617.20397 797.3778 615.45547 797.57422 613.71875 C 797.77064 611.98203 797.87971 610.2557 797.89844 608.54297 C 797.91716 606.83024 797.84687 605.13031 797.68555 603.44336 C 797.52422 601.75641 797.27146 600.08321 796.92773 598.42383 L 796.91992 598.4082 L 796.91992 598.40039 C 796.42344 596.07175 795.76146 593.84795 794.9375 591.74023 C 794.11354 589.63252 793.12738 587.64104 791.98242 585.77539 C 790.83747 583.90974 789.53367 582.17081 788.07422 580.56836 C 786.61477 578.9659 784.99988 577.49976 783.23242 576.18164 C 781.48143 574.85758 779.64971 573.73044 777.75 572.80273 C 775.85029 571.87503 773.88275 571.1474 771.86133 570.62305 C 769.83991 570.09869 767.76457 569.77808 765.64844 569.66406 C 763.53231 569.55005 761.37524 569.64201 759.19141 569.94531 L 759.16797 569.95312 L 759.1543 569.95312 C 757.10754 570.25494 755.16048 570.81025 753.30273 571.58398 C 751.44499 572.35772 749.67706 573.349 747.98828 574.52344 C 746.2995 575.69787 744.69026 577.05664 743.15039 578.56055 C 741.61052 580.06446 740.13953 581.71441 738.72852 583.47656 C 738.02084 581.22374 737.23988 579.09091 736.32812 577.15039 C 735.41637 575.20987 734.37383 573.46164 733.14648 571.97461 C 732.4595 571.13015 731.56236 570.42723 730.56836 569.91602 C 729.57436 569.4048 728.48351 569.08529 727.41211 569.00781 L 727.4043 569.00391 C 727.14502 568.98501 726.8825 568.98072 726.61914 568.98828 z M 727.11914 573 C 727.7268 573.04346 728.27539 573.19023 728.76367 573.43945 C 729.25195 573.68868 729.67991 574.04036 730.04883 574.49609 C 730.83008 575.44011 731.55892 576.51181 732.23438 577.71094 C 732.90983 578.91006 733.5319 580.23725 734.10156 581.69141 C 734.67122 583.14556 735.18848 584.72644 735.65234 586.43555 C 736.11621 588.14465 736.52669 589.98134 736.88477 591.94531 C 738.33875 589.2869 739.90484 586.91668 741.58398 584.83594 C 743.26313 582.7552 745.05469 580.96392 746.95898 579.46094 C 748.86328 577.95795 750.88031 576.7435 753.00977 575.81836 C 755.13922 574.89321 757.38173 574.25738 759.73633 573.91016 C 761.68946 573.63889 763.59375 573.54839 765.44922 573.64062 C 767.30469 573.73286 769.11133 574.00716 770.86914 574.46289 C 772.62695 574.91862 774.33594 575.55577 775.99609 576.375 C 777.65625 577.19423 779.26758 578.19618 780.83008 579.37891 C 782.40343 580.55079 783.83698 581.84249 785.13086 583.25586 C 786.42474 584.66922 787.57929 586.20456 788.59375 587.85938 C 789.60821 589.51419 790.48172 591.28933 791.2168 593.18555 C 791.95187 595.08177 792.54817 597.09874 793.00391 599.23633 C 793.31857 600.75543 793.54999 602.28897 793.69922 603.83789 C 793.84845 605.38681 793.91466 606.95055 793.89844 608.5293 C 793.86599 611.68679 793.50288 614.90481 792.80859 618.18164 C 792.1143 621.45847 791.09058 624.7952 789.73438 628.19141 C 788.37817 631.58761 786.69006 635.04297 784.67188 638.55859 C 784.38975 639.05772 784.03201 639.4694 783.59766 639.79492 C 783.1633 640.12045 782.65233 640.35982 782.06641 640.51172 C 781.50216 640.66365 780.9534 640.70771 780.42188 640.64258 C 779.89035 640.57745 779.37608 640.40314 778.87695 640.12109 C 778.37781 639.83897 777.96614 639.48568 777.64062 639.0625 C 777.31511 638.63932 777.07574 638.14626 776.92383 637.58203 C 776.77189 636.99609 776.72785 636.43284 776.79297 635.89062 C 776.85809 635.34841 777.03239 634.82725 777.31445 634.32812 C 779.06141 631.27908 780.52501 628.29824 781.70508 625.38477 C 782.88515 622.47129 783.78138 619.62551 784.39453 616.84766 C 785.00768 614.0698 785.33859 611.359 785.38477 608.7168 C 785.43095 606.07459 785.1927 603.50065 784.67188 600.99414 C 784.3355 599.37739 783.89963 597.85781 783.36523 596.43359 C 782.83084 595.00938 782.19726 593.68086 781.46484 592.44922 C 780.73242 591.21758 779.90115 590.08198 778.9707 589.04297 C 778.04026 588.00395 777.01128 587.06119 775.88281 586.21484 C 774.76519 585.36849 773.61568 584.65235 772.43555 584.06641 C 771.25541 583.48047 770.0453 583.02474 768.80273 582.69922 C 767.56017 582.3737 766.28539 582.17838 764.98047 582.11328 C 763.67555 582.04818 762.33984 582.11328 760.97266 582.30859 C 759.61632 582.5039 758.30387 582.85161 757.03711 583.35352 C 755.77035 583.85542 754.54831 584.51185 753.37109 585.32031 C 752.19388 586.12877 751.06233 587.09011 749.97461 588.20508 C 748.88689 589.32005 747.84397 590.58832 746.8457 592.00977 C 745.84745 593.42035 744.92296 594.92389 744.08008 596.51562 C 743.2372 598.10736 742.47656 599.78762 741.80078 601.55469 C 741.125 603.32175 740.53407 605.17476 740.03711 607.11133 C 739.54015 609.0479 739.1365 611.06771 738.83008 613.16797 C 738.68608 616.54384 738.5788 619.96148 738.41602 623.39844 C 738.25323 626.83539 738.03493 630.29167 737.66602 633.74219 L 737.40625 636.28125 C 737.36279 636.84549 737.21651 637.35976 736.9668 637.82617 C 736.71708 638.29258 736.36394 638.71114 735.9082 639.08008 C 735.45249 639.449 734.96913 639.71419 734.45898 639.87695 C 733.94884 640.03972 733.4119 640.10005 732.84766 640.05664 C 732.30512 639.99163 731.80534 639.84014 731.34961 639.60156 C 730.89388 639.36299 730.4822 639.03733 730.11328 638.625 C 729.41883 637.75696 729.0512 636.86655 729.00781 635.95508 C 728.83414 631.65821 729.01481 627.59807 729.26367 623.7207 C 729.51253 619.84334 729.82957 616.14875 729.92969 612.58203 C 730.06745 607.67167 729.89208 603.32135 729.50781 599.57422 C 729.12354 595.82709 728.53037 592.68316 727.83594 590.1875 C 727.1632 587.67015 726.51693 585.61459 725.89844 584.01953 C 725.27995 582.42448 724.68924 581.28992 724.125 580.61719 C 723.56078 579.94445 723.14909 579.29373 722.88867 578.66406 C 722.62826 578.0344 722.51911 577.42578 722.5625 576.83984 C 722.62751 576.2539 722.78394 575.7232 723.0332 575.24609 C 723.28246 574.76899 723.62455 574.34548 724.05859 573.97656 C 724.49262 573.60764 724.96446 573.34245 725.47461 573.17969 C 725.98476 573.01693 726.53322 572.95659 727.11914 573 z "
       id="path1459"
       transform="scale(0.26458333)" />
    <path
       style="opacity:1;fill:#ce8ae2;fill-opacity:1;stroke:none;stroke-width:15.00000286;stroke-linecap:round;stroke-linejoin:miter;stroke-miterlimit:4;stroke-dasharray:none;stroke-opacity:1;paint-order:fill markers stroke"
       d="M 675.39258 554.31445 C 674.71983 554.39045 674.0434 554.58446 673.36523 554.89648 C 672.68707 555.20851 672.00781 555.63946 671.32422 556.1875 C 669.95704 557.28358 668.57835 558.85072 667.18945 560.89062 C 665.86568 562.86545 664.59846 565.04411 663.38867 567.42578 C 662.17888 569.80745 661.02553 572.39114 659.92969 575.17969 C 658.83385 577.96824 657.79638 580.96078 656.81445 584.15625 C 655.83252 587.35172 654.90712 590.75109 654.03906 594.35352 L 696.61719 594.35352 C 695.38021 590.02409 694.13858 586.03162 692.89062 582.375 C 691.64268 578.71838 690.38775 575.39792 689.12891 572.41406 C 687.87006 569.4302 686.60559 566.78184 685.33594 564.4707 C 684.06629 562.15956 682.79209 560.18533 681.51172 558.54688 C 680.86066 557.72222 680.22591 557.02745 679.60742 556.46289 C 678.98894 555.89833 678.38672 555.46399 677.80078 555.16016 C 676.67233 554.55252 675.87001 554.27106 675.39258 554.31445 z M 675.54102 558.5625 L 675.54297 558.5625 C 675.6841 558.6084 675.73656 558.5895 675.90234 558.68164 L 675.93164 558.69531 L 675.96289 558.71094 C 676.35683 558.91503 677.28362 559.64575 678.36328 561.00781 C 679.34485 562.26388 680.35586 563.85489 681.38867 565.75391 C 682.42149 567.65293 683.47605 569.85948 684.54297 572.34375 C 686.67682 577.31229 688.86181 583.3941 691.0293 590.35742 L 659.44922 590.35742 C 661.02343 584.62414 662.72547 579.40338 664.56445 574.82422 C 665.48394 572.53464 666.43888 570.40577 667.42773 568.45312 C 668.41658 566.50049 669.43968 564.72406 670.5 563.14062 L 670.50781 563.13281 C 671.66791 561.43142 672.69313 560.3398 673.54492 559.64844 C 674.39671 558.95707 675.07506 558.66596 675.54102 558.5625 z "
       transform="scale(0.26458333)"
       id="path1503" />
    <path
       style="opacity:1;fill:url(#radialGradient1589);fill-opacity:1.0;stroke:none;stroke-width:15.00000286;stroke-linecap:round;stroke-linejoin:miter;stroke-miterlimit:4;stroke-dasharray:none;stroke-opacity:1;paint-order:fill markers stroke"
       d="M 676.09961 545.4707 C 675.84912 545.4625 675.59917 545.46324 675.34766 545.47266 C 674.00623 545.52285 672.64967 545.82353 671.2793 546.375 C 669.90892 546.92647 668.52473 547.72873 667.125 548.78125 C 665.33464 550.13759 663.60723 551.8455 661.94141 553.9043 C 660.27558 555.9631 658.67198 558.37343 657.13086 561.13477 C 655.58973 563.8961 654.10962 567.0087 652.69336 570.47266 C 651.2771 573.93662 649.92404 577.7513 648.63281 581.91797 C 647.35243 586.07379 646.18163 590.36941 645.12109 594.80469 C 644.06056 599.23997 643.1103 603.81459 642.26953 608.5293 C 641.42876 613.244 640.69725 618.09966 640.07617 623.09375 C 639.45509 628.08784 638.94444 633.2207 638.54297 638.49414 C 638.52127 638.94986 638.59608 639.40066 638.76953 639.8457 C 638.94298 640.29075 639.21507 640.73004 639.58398 641.16406 C 639.97462 641.6198 640.40913 641.97148 640.88672 642.2207 C 641.36431 642.46993 641.88497 642.61669 642.44922 642.66016 C 643.03516 642.70354 643.58361 642.63829 644.09375 642.46484 C 644.60389 642.2914 645.07572 642.00978 645.50977 641.61914 C 645.96548 641.22851 646.31864 640.794 646.56836 640.31641 C 646.81807 639.83881 646.96435 639.31813 647.00781 638.75391 C 647.42014 633.19834 648.05507 627.42513 648.91211 621.43555 C 649.76915 615.44597 650.84831 609.24002 652.15039 602.81641 L 698.76367 602.81641 L 698.83008 602.81641 C 700.00194 607.3954 701.12994 612.234 702.21484 617.33398 C 703.29975 622.43397 704.34158 627.79535 705.33984 633.41602 L 706.31641 639.08008 C 706.44663 639.6443 706.66461 640.1487 706.96875 640.59375 C 707.27289 641.0388 707.6632 641.42449 708.14062 641.75 C 708.61805 642.09798 709.11144 642.33039 709.62109 642.44922 C 710.13075 642.56805 710.65667 642.57332 711.19922 642.46484 C 711.76344 642.37803 712.27278 642.1939 712.72852 641.91211 C 713.18425 641.63032 713.58639 641.25087 713.93359 640.77344 C 714.28076 640.29601 714.52019 639.79623 714.65039 639.27539 C 714.7806 638.75455 714.80158 638.21266 714.71484 637.64844 L 713.67383 631.91797 C 712.55621 625.67882 711.38917 619.74271 710.17383 614.11133 C 708.95849 608.47994 707.69388 603.15261 706.38086 598.12891 C 705.06784 593.1052 703.70753 588.38682 702.29688 583.9707 C 700.88622 579.55459 699.42621 575.44141 697.91797 571.63281 C 696.22297 567.3362 694.49686 563.56852 692.74023 560.33008 C 690.98361 557.09164 689.19713 554.38333 687.37891 552.20312 C 686.4698 551.11302 685.55146 550.15366 684.62695 549.32812 C 683.70245 548.50259 682.77192 547.80901 681.83203 547.24805 C 680.89214 546.68708 679.94355 546.25928 678.98828 545.96289 C 678.03301 545.6665 677.07026 545.50251 676.09961 545.4707 z M 675.39258 554.31445 C 675.87001 554.27106 676.67233 554.55252 677.80078 555.16016 C 678.38672 555.46399 678.98894 555.89833 679.60742 556.46289 C 680.22591 557.02745 680.86066 557.72222 681.51172 558.54688 C 682.79209 560.18534 684.06629 562.15956 685.33594 564.4707 C 686.60559 566.78184 687.87006 569.4302 689.12891 572.41406 C 690.38775 575.39792 691.64267 578.71838 692.89062 582.375 C 694.13858 586.03162 695.38021 590.02409 696.61719 594.35352 L 654.03906 594.35352 C 654.90712 590.75109 655.83252 587.35172 656.81445 584.15625 C 657.79638 580.96078 658.83385 577.96824 659.92969 575.17969 C 661.02553 572.39114 662.17888 569.80745 663.38867 567.42578 C 664.59846 565.04411 665.86568 562.86545 667.18945 560.89062 C 668.57835 558.85071 669.95704 557.28358 671.32422 556.1875 C 672.00781 555.63946 672.68707 555.20851 673.36523 554.89648 C 674.0434 554.58446 674.71983 554.39042 675.39258 554.31445 z "
       id="path1453"
       transform="scale(0.26458333)" />
    <path
       style="opacity:1;fill:#ce8ae2;fill-opacity:1;stroke:none;stroke-width:15.00000286;stroke-linecap:round;stroke-linejoin:miter;stroke-miterlimit:4;stroke-dasharray:none;stroke-opacity:1;paint-order:fill markers stroke"
       d="M 674.99609 541.51953 C 673.23096 541.61087 671.49305 541.98321 669.80664 542.66016 C 668.0536 543.36385 666.35156 544.35816 664.71875 545.58594 L 664.71094 545.58594 L 664.71094 545.59375 C 662.61992 547.17784 660.66064 549.10144 658.81641 551.36133 C 656.97217 553.62121 655.24299 556.21694 653.60938 559.14844 C 651.97576 562.07993 650.43766 565.34638 648.97852 568.94531 C 647.51937 572.54424 646.13919 576.4761 644.81836 580.73828 L 644.81055 580.73828 C 643.50377 584.97973 642.31185 589.35837 641.23242 593.87305 C 640.153 598.38773 639.18556 603.03835 638.33203 607.82617 C 637.4785 612.61399 636.73845 617.53874 636.10938 622.59961 C 635.4803 627.66048 634.96271 632.85757 634.55664 638.19141 L 634.54883 638.25 L 634.54883 638.30078 C 634.50007 639.32451 634.69331 640.33187 635.05078 641.26172 C 635.40826 642.19156 635.92998 643.04389 636.53516 643.75586 L 636.54297 643.75586 L 636.55078 643.76367 C 637.23064 644.55686 638.09728 645.23728 639.06055 645.74023 C 640.02382 646.24318 641.08372 646.56866 642.14648 646.65039 L 642.15234 646.65039 C 643.20642 646.72844 644.30464 646.56978 645.33789 646.21484 C 646.37114 645.85991 647.33942 645.3087 648.13281 644.60547 C 648.91491 643.92506 649.5898 643.06608 650.08984 642.11328 C 650.58989 641.16048 650.91508 640.11384 650.99609 639.06055 L 650.99609 639.05273 L 650.99609 639.04688 C 651.3645 634.08294 651.96928 628.8784 652.75586 623.48828 C 653.54244 618.09817 654.51082 612.52247 655.60938 606.81641 L 695.59766 606.81641 C 696.62504 610.98303 697.62892 615.2956 698.59961 619.82227 C 699.5703 624.34893 700.50782 629.08971 701.40039 634.11523 L 702.39648 639.86523 L 702.41797 639.97656 C 702.64687 640.96852 703.08578 641.93173 703.67578 642.79297 C 704.26578 643.6542 705.00689 644.41346 705.84375 644.99609 C 706.67885 645.59275 707.67479 646.02941 708.7207 646.26953 C 709.76661 646.50965 710.8625 646.55321 711.89648 646.36133 C 712.92557 646.18709 713.9405 645.79452 714.84961 645.23633 C 715.75872 644.67814 716.562 643.95433 717.16797 643.12109 C 717.78225 642.27646 718.23695 641.27878 718.49805 640.23047 C 718.75915 639.18215 718.82665 638.0832 718.66602 637.03906 L 718.6582 636.98633 L 717.61133 631.21289 L 717.61133 631.19727 C 716.48644 624.9186 715.31155 618.94122 714.08594 613.26172 C 712.86033 607.58222 711.58317 602.20098 710.25391 597.11719 C 708.92465 592.0334 707.54327 587.24546 706.10742 582.75391 C 704.67157 578.26236 703.18209 574.06683 701.63672 570.16406 L 701.63672 570.15625 C 700.43799 567.11804 699.22736 564.3151 697.98828 561.74609 C 696.7492 559.17709 695.4814 556.84187 694.16797 554.74219 C 692.85453 552.6425 691.49601 550.77674 690.07422 549.14648 C 688.65243 547.51623 687.16765 546.12164 685.60352 544.96094 C 684.03907 543.80002 682.35754 542.89297 680.60742 542.29297 C 679.73236 541.99297 678.84053 541.76846 677.9375 541.62891 C 677.32065 541.53358 676.69343 541.5347 676.06836 541.51953 L 674.99609 541.51953 z M 676.09961 545.4707 C 677.07026 545.50251 678.03301 545.6665 678.98828 545.96289 C 679.94355 546.25928 680.89214 546.68708 681.83203 547.24805 C 682.77192 547.80901 683.70245 548.50259 684.62695 549.32812 C 685.55146 550.15366 686.4698 551.11302 687.37891 552.20312 C 689.19713 554.38333 690.98361 557.09164 692.74023 560.33008 C 694.49686 563.56852 696.22297 567.3362 697.91797 571.63281 C 699.42621 575.44141 700.88622 579.55459 702.29688 583.9707 C 703.70753 588.38682 705.06784 593.1052 706.38086 598.12891 C 707.69388 603.15261 708.95849 608.47994 710.17383 614.11133 C 711.38917 619.74271 712.55621 625.67882 713.67383 631.91797 L 714.71484 637.64844 C 714.80158 638.21266 714.7806 638.75455 714.65039 639.27539 C 714.52019 639.79623 714.28076 640.29601 713.93359 640.77344 C 713.58639 641.25087 713.18425 641.63032 712.72852 641.91211 C 712.27278 642.1939 711.76344 642.37803 711.19922 642.46484 C 710.65667 642.57332 710.13075 642.56805 709.62109 642.44922 C 709.11144 642.33039 708.61805 642.09798 708.14062 641.75 C 707.6632 641.42449 707.27289 641.0388 706.96875 640.59375 C 706.66461 640.1487 706.44663 639.6443 706.31641 639.08008 L 705.33984 633.41602 C 704.34158 627.79535 703.29975 622.43397 702.21484 617.33398 C 701.12994 612.234 700.00194 607.3954 698.83008 602.81641 L 698.76367 602.81641 L 652.15039 602.81641 C 650.84831 609.24002 649.76915 615.44597 648.91211 621.43555 C 648.05507 627.42513 647.42014 633.19834 647.00781 638.75391 C 646.96435 639.31813 646.81807 639.83881 646.56836 640.31641 C 646.31864 640.794 645.96548 641.22851 645.50977 641.61914 C 645.07572 642.00978 644.60389 642.2914 644.09375 642.46484 C 643.58361 642.63829 643.03516 642.70354 642.44922 642.66016 C 641.88497 642.61669 641.36431 642.46993 640.88672 642.2207 C 640.40913 641.97148 639.97462 641.6198 639.58398 641.16406 C 639.21507 640.73004 638.94298 640.29075 638.76953 639.8457 C 638.59608 639.40066 638.52127 638.94986 638.54297 638.49414 C 638.94444 633.2207 639.45509 628.08784 640.07617 623.09375 C 640.69725 618.09966 641.42876 613.244 642.26953 608.5293 C 643.1103 603.81459 644.06056 599.23997 645.12109 594.80469 C 646.18163 590.36941 647.35243 586.07379 648.63281 581.91797 C 649.92404 577.7513 651.2771 573.93662 652.69336 570.47266 C 654.10962 567.0087 655.58973 563.8961 657.13086 561.13477 C 658.67198 558.37343 660.27558 555.9631 661.94141 553.9043 C 663.60723 551.8455 665.33464 550.13759 667.125 548.78125 C 668.52473 547.72873 669.90892 546.92647 671.2793 546.375 C 672.64967 545.82353 674.00623 545.52285 675.34766 545.47266 C 675.59917 545.46324 675.84912 545.4625 676.09961 545.4707 z "
       id="rect1434"
       transform="scale(0.26458333)" />
    <text
       xml:space="preserve"
       style="font-style:normal;font-weight:normal;font-size:10.58333302px;line-height:125%;font-family:sans-serif;letter-spacing:0px;word-spacing:0px;fill:#000000;fill-opacity:1;stroke:none;stroke-width:0.26458332px;stroke-linecap:butt;stroke-linejoin:miter;stroke-opacity:1"
       x="136.94891"
       y="150.50958"
       id="text886"><tspan
         sodipodi:role="line"
         id="tspan884"
         x="136.94891"
         y="159.87335"
         style="stroke-width:0.26458332px" /></text>
    <g
       id="g1430"
       transform="translate(83.842316,2.464252)">
      <path
         inkscape:connector-curvature="0"
         id="path1280"
         d="m 53.311619,134.21195 a 8.0299058,11.100165 0 0 0 -5.342371,10.44778 8.0299058,11.100165 0 0 0 0.0018,0.0499 11.100165,8.0299058 18 0 0 -0.04762,-0.0168 11.100165,8.0299058 18 0 0 -11.586118,1.85397 l 3.102059,3.83268 -4.764231,1.27778 a 11.100165,8.0299058 18 0 0 8.285583,8.30939 11.100165,8.0299058 18 0 0 0.04827,0.0139 8.0299058,11.100165 36 0 0 -0.03066,0.04 8.0299058,11.100165 36 0 0 -1.817103,11.59199 l 4.603591,-1.7659 -0.256861,4.92601 a 8.0299058,11.100165 36 0 0 10.463107,-5.31236 8.0299058,11.100165 36 0 0 0.02772,-0.0413 11.100165,8.0299058 54 0 0 0.02838,0.0413 11.100165,8.0299058 54 0 0 10.463107,5.31041 l -0.256861,-4.92406 4.605548,1.76655 a 11.100165,8.0299058 54 0 0 -1.819061,-11.59264 11.100165,8.0299058 54 0 0 -0.03066,-0.0391 8.0299058,11.100165 72 0 0 0.04844,-0.0144 8.0299058,11.100165 72 0 0 8.283626,-8.31005 l -4.762273,-1.27729 3.1032,-3.83415 a 8.0299058,11.100165 72 0 0 -11.58726,-1.85233 8.0299058,11.100165 72 0 0 -0.04713,0.0173 8.0299058,11.100165 0 0 0 0.0013,-0.0507 8.0299058,11.100165 0 0 0 -5.343512,-10.44615 l -2.686516,4.13456 z"
         style="opacity:1;fill:url(#radialGradient1381);fill-opacity:1;stroke:none;stroke-width:3.96875;stroke-linecap:round;stroke-linejoin:miter;stroke-miterlimit:4;stroke-dasharray:none;stroke-opacity:1;paint-order:fill markers stroke" />
      <path
         inkscape:connector-curvature="0"
         id="path1315"
         d="m 49.19459,153.54399 a 1.0020003,1.0020003 0 0 0 0.643323,1.26259 1.0020003,1.0020003 0 0 0 1.138001,-0.39075 l 2.44227,0.79353 -3.548057,2.53637 4.707743,-0.0363 1.420223,4.48847 1.420356,-4.48857 4.70778,0.0364 -3.830024,-2.73786 1.489223,-4.4662 -3.787286,2.79661 -3.787305,-2.79651 1.3796,4.13745 -2.441956,-0.79344 a 1.0020003,1.0020003 0 0 0 -0.691296,-0.98512 1.0020003,1.0020003 0 0 0 -1.262598,0.64333 z"
         style="opacity:1;fill:#fbeeff;fill-opacity:1;stroke:none;stroke-width:3.96875024;stroke-linecap:round;stroke-linejoin:miter;stroke-miterlimit:4;stroke-dasharray:none;stroke-opacity:1;paint-order:fill markers stroke" />
      <path
         inkscape:connector-curvature="0"
         style="opacity:1;fill:#fbeeff;fill-opacity:1;stroke:none;stroke-width:3.96875024;stroke-linecap:round;stroke-linejoin:miter;stroke-miterlimit:4;stroke-dasharray:none;stroke-opacity:1;paint-order:fill markers stroke"
         d="m 51.793359,161.54193 a 1.0020003,1.0020003 0 0 0 1.399594,-0.22168 1.0020003,1.0020003 0 0 0 -0.01996,-1.20305 l 1.509408,-2.07752 1.315811,4.15818 1.420241,-4.48854 4.707659,0.0363 -3.829973,-2.73788 1.489415,-4.46612 -3.787401,2.79653 -3.787413,-2.79647 1.4894,4.46613 -3.829983,2.73777 4.361273,-0.0335 -1.509211,2.07726 a 1.0020003,1.0020003 0 0 0 -1.15053,0.35304 1.0020003,1.0020003 0 0 0 0.221674,1.3996 z"
         id="path1356" />
      <path
         id="path1358"
         d="m 60.203048,161.54191 a 1.0020003,1.0020003 0 0 0 0.221675,-1.3996 1.0020003,1.0020003 0 0 0 -1.150337,-0.35278 l -1.509407,-2.07751 4.361272,0.0335 -3.829981,-2.73777 1.489268,-4.46603 -3.787414,2.79647 -3.787267,-2.79662 1.489279,4.4662 -3.829971,2.73789 4.707789,-0.0364 1.420244,4.48854 1.315813,-4.15818 1.509212,2.07726 a 1.0020003,1.0020003 0 0 0 -0.01977,1.20331 1.0020003,1.0020003 0 0 0 1.399595,0.22168 z"
         style="opacity:1;fill:#fbeeff;fill-opacity:1;stroke:none;stroke-width:3.96875024;stroke-linecap:round;stroke-linejoin:miter;stroke-miterlimit:4;stroke-dasharray:none;stroke-opacity:1;paint-order:fill markers stroke"
         inkscape:connector-curvature="0" />
      <path
         inkscape:connector-curvature="0"
         style="opacity:1;fill:#fbeeff;fill-opacity:1;stroke:none;stroke-width:3.96875024;stroke-linecap:round;stroke-linejoin:miter;stroke-miterlimit:4;stroke-dasharray:none;stroke-opacity:1;paint-order:fill markers stroke"
         d="m 62.801728,153.54388 a 1.0020003,1.0020003 0 0 0 -1.262593,-0.64333 1.0020003,1.0020003 0 0 0 -0.690985,0.98502 l -2.44227,0.79355 1.379603,-4.13746 -3.787303,2.79651 -3.787241,-2.79645 1.489224,4.4662 -3.830074,2.7377 4.707827,-0.0363 1.420359,4.48858 1.420174,-4.48862 4.707742,0.0363 -3.548056,-2.53636 2.441958,-0.79344 a 1.0020003,1.0020003 0 0 0 1.138312,0.39065 1.0020003,1.0020003 0 0 0 0.643323,-1.26259 z"
         id="path1360" />
      <path
         id="path1362"
         d="m 55.998022,148.60091 a 1.0020003,1.0020003 0 0 0 -1.002,1.002 1.0020003,1.0020003 0 0 0 0.723286,0.96155 v 2.56795 l -3.508631,-2.59062 1.489301,4.46611 -3.829911,2.73773 4.707803,-0.0362 1.420152,4.48862 1.420316,-4.48862 4.707803,0.0362 -3.830074,-2.73773 1.489301,-4.46611 -3.508631,2.59062 v -2.56762 a 1.0020003,1.0020003 0 0 0 0.723285,-0.96188 1.0020003,1.0020003 0 0 0 -1.002,-1.002 z"
         style="opacity:1;fill:#fbeeff;fill-opacity:1;stroke:none;stroke-width:3.96875024;stroke-linecap:round;stroke-linejoin:miter;stroke-miterlimit:4;stroke-dasharray:none;stroke-opacity:1;paint-order:fill markers stroke"
         inkscape:connector-curvature="0" />
      <path
         inkscape:connector-curvature="0"
         id="path1412"
         d="m 53.534231,133.405 -0.498554,0.24479 c -3.307405,1.62386 -5.446163,5.66029 -5.670173,10.22713 -4.412588,-1.19759 -8.91189,-0.4103 -11.477665,2.23378 l -0.386677,0.39842 2.845035,3.51516 -4.369726,1.17193 0.07877,0.54976 c 0.522379,3.64742 3.700472,6.92884 7.974741,8.55305 -2.502532,3.82655 -3.144241,8.34891 -1.422436,11.60618 l 0.25947,0.49089 4.222133,-1.61961 -0.235497,4.51813 0.547154,0.0949 c 3.630138,0.63026 7.73279,-1.37804 10.598305,-4.94085 2.865898,3.56231 6.968666,5.56981 10.598469,4.93889 l 0.54699,-0.0951 -0.235496,-4.51601 4.22409,1.62026 0.25947,-0.49105 c 1.721228,-3.25775 1.07896,-7.78023 -1.424068,-11.60651 4.273782,-1.62479 7.451025,-4.90629 7.972621,-8.55353 l 0.07861,-0.54976 -4.367607,-1.17145 2.846176,-3.51662 -0.386841,-0.39858 c -2.566434,-2.64371 -7.066111,-3.43035 -11.478642,-2.23216 -0.224561,-4.56674 -2.363753,-8.6025 -5.671315,-10.22566 l -0.498553,-0.24462 -2.463904,3.79191 z m -0.430058,1.63722 2.894939,4.45535 2.893961,-4.45372 c 2.647744,1.60788 4.504326,5.3648 4.509653,9.61196 -3.1e-4,0.0125 -6.31e-4,0.025 -9.78e-4,0.0375 l -0.02528,0.9247 0.867943,-0.31998 c 0.0097,-0.004 0.01945,-0.007 0.02919,-0.0108 4.0405,-1.3075 8.187099,-0.70324 10.534866,1.31758 l -3.34261,4.12998 5.13003,1.37596 c -0.711001,3.01506 -3.710469,5.94181 -7.748215,7.25928 -0.01179,0.004 -0.02359,0.007 -0.03539,0.0104 l -0.886536,0.2611 0.571127,0.72671 c 0.0067,0.009 0.01337,0.017 0.02006,0.0256 2.491598,3.43855 3.198035,7.56851 2.001716,10.4256 l -4.960912,-1.90289 0.276758,5.30421 c -3.087728,0.25558 -6.798736,-1.6932 -9.299489,-5.12726 -0.0066,-0.01 -0.01302,-0.0192 -0.01957,-0.0287 l -0.522691,-0.76259 -0.514373,0.7683 c -0.0058,0.009 -0.01165,0.0171 -0.01745,0.0258 -2.500298,3.43265 -6.210054,5.38115 -9.297205,5.12628 l 0.276757,-5.30601 -4.959119,1.90224 c -1.197102,-2.85722 -0.490656,-6.98811 2.001718,-10.42739 0.0074,-0.01 0.01479,-0.0193 0.02218,-0.0289 l 0.56281,-0.73112 -0.887188,-0.25327 c -0.01066,-0.003 -0.02132,-0.006 -0.03196,-0.009 -4.03716,-1.31721 -7.036812,-4.24322 -7.748374,-7.25797 l 5.131989,-1.37645 -3.341631,-4.12869 c 2.347649,-2.02158 6.49522,-2.62622 10.536659,-1.31822 0.01142,0.004 0.02284,0.008 0.03425,0.0121 l 0.869738,0.30839 -0.03474,-0.92209 c -4.11e-4,-0.0109 -7.58e-4,-0.0218 -0.0011,-0.0326 0.0053,-4.24646 1.861256,-8.00306 4.508512,-9.61131 z"
         style="color:#000000;font-style:normal;font-variant:normal;font-weight:normal;font-stretch:normal;font-size:medium;line-height:normal;font-family:sans-serif;font-variant-ligatures:normal;font-variant-position:normal;font-variant-caps:normal;font-variant-numeric:normal;font-variant-alternates:normal;font-feature-settings:normal;text-indent:0;text-align:start;text-decoration:none;text-decoration-line:none;text-decoration-style:solid;text-decoration-color:#000000;letter-spacing:normal;word-spacing:normal;text-transform:none;writing-mode:lr-tb;direction:ltr;text-orientation:mixed;dominant-baseline:auto;baseline-shift:baseline;text-anchor:start;white-space:normal;shape-padding:0;clip-rule:nonzero;display:inline;overflow:visible;visibility:visible;opacity:1;isolation:auto;mix-blend-mode:normal;color-interpolation:sRGB;color-interpolation-filters:linearRGB;solid-color:#000000;solid-opacity:1;vector-effect:none;fill:#ce8ae2;fill-opacity:1;fill-rule:nonzero;stroke:none;stroke-width:3.96875024;stroke-linecap:round;stroke-linejoin:miter;stroke-miterlimit:4;stroke-dasharray:none;stroke-dashoffset:0;stroke-opacity:1;paint-order:fill markers stroke;color-rendering:auto;image-rendering:auto;shape-rendering:auto;text-rendering:auto;enable-background:accumulate" />
    </g>
  </g>
</svg>
