<?xml version="1.0" encoding="UTF-8" standalone="no"?>
<!-- Created with Inkscape (http://www.inkscape.org/) -->

<svg
   xmlns:dc="http://purl.org/dc/elements/1.1/"
   xmlns:cc="http://creativecommons.org/ns#"
   xmlns:rdf="http://www.w3.org/1999/02/22-rdf-syntax-ns#"
   xmlns:svg="http://www.w3.org/2000/svg"
   xmlns="http://www.w3.org/2000/svg"
   xmlns:xlink="http://www.w3.org/1999/xlink"
   xmlns:sodipodi="http://sodipodi.sourceforge.net/DTD/sodipodi-0.dtd"
   xmlns:inkscape="http://www.inkscape.org/namespaces/inkscape"
   width="210mm"
   height="297mm"
   viewBox="0 0 210 297"
   version="1.1"
   id="svg8"
   sodipodi:docname="full2annaver.svg"
   inkscape:version="0.92.3 (2405546, 2018-03-11)">
  <defs
     id="defs2">
    <linearGradient
       id="linearGradient1585"
       inkscape:collect="always">
      <stop
         id="stop1581"
         offset="0"
         style="stop-color:#f7e4fc;stop-opacity:1" />
      <stop
         id="stop1583"
         offset="1"
         style="stop-color:#eeb7fc;stop-opacity:1" />
    </linearGradient>
    <linearGradient
       inkscape:collect="always"
       id="linearGradient1375">
      <stop
         style="stop-color:#f5dcfb;stop-opacity:1"
         offset="0"
         id="stop1371" />
      <stop
         style="stop-color:#e697fa;stop-opacity:1"
         offset="1"
         id="stop1373" />
    </linearGradient>
    <marker
       inkscape:stockid="Arrow1Lstart"
       orient="auto"
       refY="0.0"
       refX="0.0"
       id="marker1241"
       style="overflow:visible"
       inkscape:isstock="true">
      <path
         id="path1239"
         d="M 0.0,0.0 L 5.0,-5.0 L -12.5,0.0 L 5.0,5.0 L 0.0,0.0 z "
         style="fill-rule:evenodd;stroke:none;stroke-width:1pt;stroke-opacity:1;fill:#ff0000;fill-opacity:1"
         transform="scale(0.8) translate(12.5,0)" />
    </marker>
    <marker
       inkscape:stockid="Arrow1Lstart"
       orient="auto"
       refY="0.0"
       refX="0.0"
       id="Arrow1Lstart"
       style="overflow:visible"
       inkscape:isstock="true">
      <path
         id="path957"
         d="M 0.0,0.0 L 5.0,-5.0 L -12.5,0.0 L 5.0,5.0 L 0.0,0.0 z "
         style="fill-rule:evenodd;stroke:none;stroke-width:1pt;stroke-opacity:1;fill:#ff0000;fill-opacity:1"
         transform="scale(0.8) translate(12.5,0)" />
    </marker>
    <radialGradient
       inkscape:collect="always"
       xlink:href="#linearGradient1375"
       id="radialGradient1381"
       cx="211.6468"
       cy="600.50568"
       fx="211.6468"
       fy="600.50568"
       r="263.73279"
       gradientTransform="matrix(0.08350002,0,0,0.07981468,38.325648,107.86161)"
       gradientUnits="userSpaceOnUse" />
    <radialGradient
       inkscape:collect="always"
       xlink:href="#linearGradient1585"
       id="radialGradient1446"
       cx="213.25417"
       cy="162.32709"
       fx="213.25417"
       fy="162.32709"
       r="45.508331"
       gradientTransform="matrix(0.99999997,0,0,0.41860464,2.9707211,94.37621)"
       gradientUnits="userSpaceOnUse" />
    <radialGradient
       inkscape:collect="always"
       xlink:href="#linearGradient1585"
       id="radialGradient1587"
       gradientUnits="userSpaceOnUse"
       gradientTransform="matrix(3.7795275,0,0,1.5821278,0,356.69749)"
       cx="213.25417"
       cy="162.32709"
       fx="213.25417"
       fy="162.32709"
       r="45.508331" />
    <radialGradient
       inkscape:collect="always"
       xlink:href="#linearGradient1585"
       id="radialGradient1589"
       gradientUnits="userSpaceOnUse"
       gradientTransform="matrix(3.7795275,0,0,1.5821278,0,356.69749)"
       cx="213.25417"
       cy="162.32709"
       fx="213.25417"
       fy="162.32709"
       r="45.508331" />
    <radialGradient
       inkscape:collect="always"
       xlink:href="#linearGradient1585"
       id="radialGradient1615"
       gradientUnits="userSpaceOnUse"
       gradientTransform="matrix(3.7795275,0,0,1.5821278,0,356.69749)"
       cx="213.25417"
       cy="162.32709"
       fx="213.25417"
       fy="162.32709"
       r="45.508331" />
    <radialGradient
       inkscape:collect="always"
       xlink:href="#linearGradient1585"
       id="radialGradient1617"
       gradientUnits="userSpaceOnUse"
       gradientTransform="matrix(0.99999997,0,0,0.41860464,2.9707211,94.37621)"
       cx="213.25417"
       cy="162.32709"
       fx="213.25417"
       fy="162.32709"
       r="45.508331" />
  </defs>
  <sodipodi:namedview
     id="base"
     pagecolor="#ffffff"
     bordercolor="#666666"
     borderopacity="1.0"
     inkscape:pageopacity="0.0"
     inkscape:pageshadow="2"
     inkscape:zoom="1"
     inkscape:cx="674.22408"
     inkscape:cy="578.82465"
     inkscape:document-units="px"
     inkscape:current-layer="layer1"
     showgrid="false"
     showborder="false"
     inkscape:snap-nodes="false"
     inkscape:window-width="1920"
     inkscape:window-height="1026"
     inkscape:window-x="1080"
     inkscape:window-y="695"
     inkscape:window-maximized="1"
     inkscape:snap-smooth-nodes="true"
     inkscape:snap-intersection-paths="true"
     inkscape:snap-object-midpoints="true"
     inkscape:snap-center="false"
     inkscape:measure-start="212.662,583.717"
     inkscape:measure-end="211.647,561.575"
     inkscape:snap-others="false" />
  <metadata
     id="metadata5">
    <rdf:RDF>
      <cc:Work
         rdf:about="">
        <dc:format>image/svg+xml</dc:format>
        <dc:type
           rdf:resource="http://purl.org/dc/dcmitype/StillImage" />
        <dc:title></dc:title>
      </cc:Work>
    </rdf:RDF>
  </metadata>
  <g
     inkscape:label="Calque 1"
     inkscape:groupmode="layer"
     id="layer1">
    <path
       style="opacity:1;fill:url(#radialGradient1446);fill-opacity:1;stroke:none;stroke-width:3.96875072;stroke-linecap:round;stroke-linejoin:miter;stroke-miterlimit:4;stroke-dasharray:none;stroke-opacity:1;paint-order:fill markers stroke"
       d="m 257.25338,162.64847 c -0.23025,0.003 -0.48182,0.0398 -0.74104,0.11317 -0.25922,0.0733 -0.52609,0.18308 -0.78599,0.33228 -0.36005,0.20671 -0.63544,0.45355 -0.85732,0.73794 -0.22188,0.28439 -0.39026,0.60635 -0.53692,0.96325 l -0.002,0.002 -1.16221,3.43751 c 1.28673,0.25806 2.67177,0.6059 3.87884,0.77567 0.31054,0.031 0.68534,0.037 1.06298,-0.0103 0.37764,-0.0474 0.75814,-0.1482 1.07952,-0.33176 0.30177,-0.17323 0.56049,-0.38269 0.76998,-0.60875 0.20949,-0.22606 0.36973,-0.46872 0.47439,-0.70745 0.10473,-0.23873 0.15597,-0.46588 0.15606,-0.67593 9e-5,-0.21004 -0.051,-0.40298 -0.15037,-0.57412 -0.0679,-0.11669 -0.16006,-0.22186 -0.27389,-0.31161 -0.11383,-0.0898 -0.24916,-0.16411 -0.40359,-0.21911 -0.15444,-0.055 -0.32814,-0.0904 -0.5178,-0.10284 -0.18966,-0.0124 -0.39544,-0.002 -0.61495,0.0362 -0.11869,0.0205 -0.22844,0.002 -0.32143,-0.0434 -0.093,-0.0454 -0.16927,-0.11792 -0.22169,-0.20464 -0.0524,-0.0867 -0.0805,-0.18803 -0.0775,-0.29145 0.003,-0.10343 0.0373,-0.20883 0.11058,-0.30438 0.23174,-0.30207 0.35937,-0.59142 0.40411,-0.84853 0.0448,-0.2571 0.007,-0.48194 -0.0935,-0.65525 -0.081,-0.13878 -0.2034,-0.25532 -0.36742,-0.34158 -0.16403,-0.0863 -0.36965,-0.14227 -0.61702,-0.16072 -0.0619,-0.005 -0.12593,-0.007 -0.19172,-0.006 z"
       id="path1479"
       inkscape:connector-curvature="0" />
    <path
       style="opacity:1;fill:#ce8ae2;fill-opacity:1;stroke:none;stroke-width:3.96875072;stroke-linecap:round;stroke-linejoin:miter;stroke-miterlimit:4;stroke-dasharray:none;stroke-opacity:1;paint-order:fill markers stroke"
       d="m 257.2415,161.58859 c -0.33246,0.003 -0.67556,0.0543 -1.01906,0.15244 -0.34351,0.0981 -0.68742,0.24303 -1.02113,0.4346 -0.23958,0.13755 -0.45343,0.29244 -0.64492,0.46044 -0.19149,0.168 -0.36062,0.34917 -0.51056,0.5395 -0.29989,0.38066 -0.5232,0.7978 -0.69609,1.21904 -0.004,0.0103 -0.008,0.0205 -0.0119,0.031 l -1.36529,4.03903 c -0.0508,0.15121 -0.0293,0.30771 0.0439,0.43408 0.0732,0.12637 0.19808,0.22261 0.3545,0.25373 l 4.51756,0.90796 c 0.0632,0.0123 0.12833,0.0131 0.19172,0.002 0.3673,0.0305 0.80044,0.0408 1.2547,-0.0212 0.22713,-0.031 0.45925,-0.0803 0.69143,-0.154 0.23218,-0.0737 0.4643,-0.17183 0.6904,-0.30127 0.39309,-0.22565 0.73607,-0.49913 1.02009,-0.80564 0.28402,-0.3065 0.50908,-0.64603 0.66559,-1.00304 0.15652,-0.357 0.24247,-0.73948 0.2403,-1.11724 -10e-4,-0.18888 -0.0238,-0.37622 -0.0713,-0.55914 -0.0475,-0.18292 -0.11962,-0.36119 -0.21808,-0.53072 v -0.002 c -0.10137,-0.17431 -0.22616,-0.32229 -0.37,-0.44752 -0.14384,-0.12523 -0.30662,-0.22746 -0.48318,-0.31006 -0.35311,-0.1652 -0.76203,-0.25184 -1.18752,-0.28526 0.13286,-0.32479 0.22507,-0.65545 0.24236,-0.97719 0.009,-0.16088 -0.002,-0.31936 -0.0346,-0.47388 -0.0331,-0.15452 -0.0892,-0.30514 -0.1726,-0.44958 h -0.002 c -0.0932,-0.16046 -0.20727,-0.30117 -0.33745,-0.42323 -0.13017,-0.12206 -0.27663,-0.22523 -0.4346,-0.31006 -0.31592,-0.16966 -0.67808,-0.26627 -1.05006,-0.29404 v 5.2e-4 c -0.093,-0.007 -0.18716,-0.0102 -0.28215,-0.009 z m 0.0119,1.05988 c 0.0658,-8.3e-4 0.12978,0.001 0.19172,0.006 0.24737,0.0185 0.45299,0.0745 0.61702,0.16072 0.16402,0.0863 0.28645,0.2028 0.36742,0.34158 0.10014,0.17331 0.13828,0.39815 0.0935,0.65525 -0.0447,0.25711 -0.17237,0.54646 -0.40411,0.84853 -0.0733,0.0955 -0.10756,0.20095 -0.11058,0.30438 -0.003,0.10342 0.0251,0.20473 0.0775,0.29145 0.0524,0.0867 0.1287,0.15922 0.22169,0.20464 0.093,0.0454 0.20274,0.0639 0.32143,0.0434 0.21951,-0.038 0.42529,-0.0486 0.61495,-0.0362 0.18966,0.0124 0.36336,0.0478 0.5178,0.10284 0.15443,0.055 0.28976,0.12936 0.40359,0.21911 0.11383,0.0897 0.20603,0.19492 0.27389,0.31161 0.0994,0.17114 0.15046,0.36408 0.15037,0.57412 -9e-5,0.21005 -0.0513,0.4372 -0.15606,0.67593 -0.10466,0.23873 -0.2649,0.48139 -0.47439,0.70745 -0.20949,0.22606 -0.46821,0.43552 -0.76998,0.60875 -0.32138,0.18356 -0.70188,0.28437 -1.07952,0.33176 -0.37764,0.0474 -0.75244,0.0414 -1.06298,0.0103 -1.20707,-0.16977 -2.59211,-0.51761 -3.87884,-0.77567 l 1.16221,-3.43751 0.002,-0.002 c 0.14666,-0.3569 0.31504,-0.67886 0.53692,-0.96325 0.22188,-0.28439 0.49727,-0.53123 0.85732,-0.73794 0.2599,-0.1492 0.52677,-0.25894 0.78599,-0.33228 0.25922,-0.0733 0.51079,-0.11028 0.74104,-0.11317 z"
       id="path1477"
       inkscape:connector-curvature="0" />
    <path
       style="opacity:1;fill:#ce8ae2;fill-opacity:1;stroke:none;stroke-width:3.96875072;stroke-linecap:round;stroke-linejoin:miter;stroke-miterlimit:4;stroke-dasharray:none;stroke-opacity:1;paint-order:fill markers stroke"
       d="m 243.88676,153.94874 c -0.32154,-0.006 -0.65871,0.0214 -1.01183,0.0817 -0.35312,0.0603 -0.7222,0.15376 -1.10691,0.28008 -0.45934,0.14642 -0.88842,0.32729 -1.28674,0.54261 -0.39832,0.21532 -0.76598,0.46509 -1.10329,0.74931 -0.33731,0.28422 -0.64405,0.60289 -0.92036,0.95601 -0.27631,0.35312 -0.52211,0.74069 -0.73742,1.16272 -0.21532,0.41915 -0.3986,0.83843 -0.54932,1.25832 -0.15073,0.41989 -0.26889,0.84029 -0.35502,1.26091 -0.0861,0.42061 -0.14021,0.84165 -0.16175,1.26297 -0.0215,0.42132 -0.0105,0.84301 0.0326,1.26504 0.0431,0.41915 0.10369,0.80767 0.1819,1.16582 0.0782,0.35814 0.17394,0.68574 0.28732,0.98288 0.11338,0.29714 0.24419,0.56382 0.39274,0.79995 0.14856,0.23614 0.31494,0.4419 0.49868,0.61702 0.18661,0.17225 0.38161,0.30781 0.5855,0.41186 0.20388,0.10406 0.4169,0.17653 0.6382,0.22324 0.22129,0.0467 0.45103,0.0675 0.68988,0.0677 0.23885,2.4e-4 0.48656,-0.0199 0.74311,-0.0553 0.13322,-0.023 0.21313,-0.0402 0.40514,-0.0889 0.19522,-0.0611 0.58997,-0.27188 1.17564,-0.73122 0.38757,-0.30432 0.76809,-0.66051 1.14205,-1.06815 0.37395,-0.40764 0.74142,-0.86671 1.10174,-1.37769 0.36032,-0.51098 0.71372,-1.07341 1.0604,-1.68776 0.34668,-0.61434 0.68655,-1.2806 1.01958,-1.99832 0.3445,-0.74643 0.59123,-1.34377 0.74052,-1.79163 0.058,-0.25305 0.0808,-0.45356 0.0687,-0.70641 -0.0373,-0.38757 -0.10258,-0.74406 -0.19586,-1.06919 -0.0933,-0.32513 -0.21455,-0.61891 -0.3638,-0.8816 -0.14924,-0.26269 -0.32651,-0.49428 -0.53175,-0.69453 -0.20524,-0.20024 -0.43845,-0.36914 -0.6997,-0.50694 -0.25838,-0.13781 -0.53268,-0.24247 -0.82269,-0.3142 -0.29,-0.0717 -0.59571,-0.11052 -0.91725,-0.11627 z m -0.032,1.05213 -5.2e-4,5.2e-4 c 0.2484,0.004 0.47623,0.0336 0.6873,0.0868 0.21106,0.0532 0.40536,0.12947 0.58601,0.22582 h 0.004 l 0.002,0.002 c 0.17217,0.0908 0.32567,0.19749 0.46147,0.32659 0.13581,0.12911 0.25388,0.28041 0.3545,0.46044 0.10063,0.18003 0.18401,0.38894 0.25064,0.63252 0.0666,0.24358 0.11656,0.52206 0.15037,0.84181 0.01,0.16215 0.0134,0.258 -0.0408,0.41031 -0.13157,0.38224 -0.34361,0.90803 -0.66198,1.59784 -0.32245,0.69476 -0.65021,1.33473 -0.98185,1.92081 -0.33164,0.58608 -0.66695,1.11814 -1.00407,1.59628 -0.33713,0.47815 -0.67604,0.90285 -1.01493,1.27383 -0.33889,0.37098 -0.67798,0.68835 -1.01492,0.95291 -0.27205,0.21338 -0.49035,0.36616 -0.62529,0.44752 -0.0482,0.0291 -0.0822,0.0409 -0.10283,0.047 -0.15326,0.0529 -0.31124,0.0826 -0.48576,0.11213 l -0.001,-0.003 -0.0155,0.006 c -0.37799,0.0559 -0.65762,0.0781 -0.9064,0.0279 -0.24878,-0.0502 -0.46671,-0.17278 -0.72089,-0.40566 -0.11445,-0.10985 -0.22663,-0.24999 -0.33279,-0.42272 -0.10617,-0.17272 -0.20624,-0.37826 -0.29714,-0.61753 -0.18181,-0.47854 -0.32621,-1.09361 -0.40515,-1.86035 v -0.002 c -0.0375,-0.36875 -0.0478,-0.73643 -0.0294,-1.10432 0.0183,-0.36789 0.0653,-0.7358 0.14107,-1.10536 0.0758,-0.36956 0.18042,-0.74089 0.31523,-1.11466 0.13481,-0.37377 0.29959,-0.75018 0.49506,-1.13068 l 0.002,-0.002 c 0.18633,-0.36521 0.39336,-0.69597 0.62425,-0.99477 0.23088,-0.29881 0.48542,-0.56546 0.76688,-0.80254 0.28145,-0.23708 0.59006,-0.44472 0.9281,-0.62477 0.33805,-0.18005 0.70574,-0.33272 1.1064,-0.46043 l 0.006,-0.002 0.004,-0.002 c 0.34093,-0.11194 0.65557,-0.19233 0.94723,-0.24391 0.29166,-0.0516 0.56035,-0.0744 0.80874,-0.0708 z"
       id="path1471"
       inkscape:connector-curvature="0" />
    <path
       style="opacity:1;fill:url(#radialGradient1617);fill-opacity:1;stroke:none;stroke-width:3.96875072;stroke-linecap:round;stroke-linejoin:miter;stroke-miterlimit:4;stroke-dasharray:none;stroke-opacity:1;paint-order:fill markers stroke"
       d="m 243.75033,151.71322 c -0.42328,4.7e-4 -0.8576,0.0393 -1.30276,0.11627 -0.44516,0.0769 -0.90116,0.19196 -1.36839,0.3452 -0.60864,0.19522 -1.17831,0.43945 -1.70946,0.73226 -0.53115,0.29279 -1.02378,0.63434 -1.47743,1.02474 -0.45365,0.3904 -0.86876,0.82921 -1.24488,1.31723 -0.37613,0.48802 -0.71325,1.02509 -1.01183,1.61075 -0.24977,0.49093 -0.46144,0.98886 -0.6351,1.49345 -0.17366,0.5046 -0.30913,1.01603 -0.4067,1.53428 -0.0976,0.51824 -0.1573,1.04323 -0.1788,1.57509 -0.0215,0.53187 -0.005,1.07045 0.0496,1.61593 0.0574,0.5426 0.14516,1.05264 0.26355,1.53065 0.1184,0.47801 0.26761,0.92398 0.44701,1.33739 0.17938,0.41341 0.38901,0.79426 0.62941,1.14308 0.24041,0.34882 0.51143,0.66559 0.81287,0.94981 0.31006,0.29283 0.64335,0.54137 0.99943,0.73949 0.35607,0.19812 0.73495,0.34583 1.13688,0.4377 0.40767,0.0919 0.81548,0.11827 1.22525,0.0977 0.40976,-0.0206 0.82149,-0.0882 1.23765,-0.18397 0.39069,-0.0899 0.78695,-0.20178 1.18029,-0.36742 0.39333,-0.16563 0.78376,-0.38504 1.16272,-0.68936 0.62012,-0.49954 1.22301,-1.09513 1.80867,-1.78697 0.58567,-0.69185 1.15411,-1.47995 1.70532,-2.3642 0.0115,1.01057 0.0644,1.93521 0.15917,2.77348 0.0947,0.83826 0.23128,1.59014 0.40927,2.25619 0.0402,0.14929 0.10353,0.27974 0.18965,0.39171 0.0861,0.11196 0.19505,0.20544 0.32712,0.28008 0.1378,0.0804 0.27691,0.13072 0.41754,0.1509 0.14064,0.0202 0.28279,0.0102 0.42634,-0.03 0.14928,-0.0402 0.27974,-0.10353 0.3917,-0.18966 0.11197,-0.0861 0.20545,-0.19504 0.28009,-0.32711 0.0804,-0.13206 0.13084,-0.26851 0.15089,-0.40928 0.0201,-0.14076 0.01,-0.28583 -0.0305,-0.43511 -0.14354,-0.52825 -0.25617,-1.12655 -0.33796,-1.79472 -0.0818,-0.66818 -0.13291,-1.40622 -0.15296,-2.21434 -0.0201,-0.80812 -0.009,-1.68638 0.0325,-2.63446 0.0417,-0.94809 0.11421,-1.966 0.21756,-3.05408 0.0907,-0.53994 0.12505,-0.95328 0.10336,-1.30948 -0.0546,-0.59428 -0.15483,-1.14214 -0.30128,-1.64383 -0.14645,-0.50169 -0.3389,-0.95722 -0.57723,-1.36632 -0.23832,-0.40911 -0.52298,-0.77179 -0.85317,-1.08831 -0.33019,-0.31652 -0.70607,-0.58687 -1.1281,-0.8108 -0.47155,-0.25193 -0.96126,-0.44074 -1.46916,-0.56638 -0.5079,-0.12563 -1.03398,-0.18808 -1.5782,-0.18758 z m 0.13643,2.23552 c 0.32154,0.006 0.62725,0.0445 0.91725,0.11627 0.29001,0.0717 0.56431,0.17639 0.82269,0.3142 0.26125,0.1378 0.49446,0.3067 0.6997,0.50694 0.20524,0.20025 0.38251,0.43184 0.53175,0.69453 0.14925,0.26269 0.27053,0.55647 0.3638,0.8816 0.0933,0.32513 0.15854,0.68162 0.19586,1.06919 0.0121,0.25285 -0.0107,0.45336 -0.0687,0.70641 -0.14929,0.44786 -0.39602,1.0452 -0.74052,1.79163 -0.33303,0.71772 -0.6729,1.38398 -1.01958,1.99832 -0.34668,0.61435 -0.70008,1.17678 -1.0604,1.68776 -0.36032,0.51098 -0.72779,0.97005 -1.10174,1.37769 -0.37396,0.40764 -0.75448,0.76383 -1.14205,1.06815 -0.58567,0.45934 -0.98042,0.67012 -1.17564,0.73122 -0.19201,0.0487 -0.27192,0.0659 -0.40514,0.0889 -0.25655,0.0354 -0.50426,0.0555 -0.74311,0.0553 -0.23885,-2.4e-4 -0.46859,-0.021 -0.68988,-0.0677 -0.2213,-0.0467 -0.43432,-0.11918 -0.6382,-0.22324 -0.20389,-0.10405 -0.39889,-0.23961 -0.5855,-0.41186 -0.18374,-0.17512 -0.35012,-0.38088 -0.49868,-0.61702 -0.14855,-0.23613 -0.27936,-0.50281 -0.39274,-0.79995 -0.11338,-0.29714 -0.2091,-0.62474 -0.28732,-0.98288 -0.0782,-0.35815 -0.13884,-0.74667 -0.1819,-1.16582 -0.0431,-0.42203 -0.0541,-0.84372 -0.0326,-1.26504 0.0215,-0.42132 0.0756,-0.84236 0.16175,-1.26297 0.0861,-0.42062 0.20429,-0.84102 0.35502,-1.26091 0.15072,-0.41989 0.334,-0.83917 0.54932,-1.25832 0.21531,-0.42203 0.46111,-0.8096 0.73742,-1.16272 0.27631,-0.35312 0.58305,-0.67179 0.92036,-0.95601 0.33731,-0.28422 0.70497,-0.53399 1.10329,-0.74931 0.39832,-0.21532 0.8274,-0.39619 1.28674,-0.54261 0.38471,-0.12632 0.75379,-0.21979 1.10691,-0.28008 0.35312,-0.0603 0.69029,-0.0874 1.01183,-0.0817 z"
       id="path1467"
       inkscape:connector-curvature="0" />
    <path
       style="opacity:1;fill:#ce8ae2;fill-opacity:1;stroke:none;stroke-width:3.96875072;stroke-linecap:round;stroke-linejoin:miter;stroke-miterlimit:4;stroke-dasharray:none;stroke-opacity:1;paint-order:fill markers stroke"
       d="m 243.75808,150.66419 c -0.48607,-5e-4 -0.98135,0.0419 -1.4826,0.12609 -0.50124,0.0842 -1.00846,0.21013 -1.51928,0.37724 -8e-4,2.6e-4 -6e-4,0.002 -0.002,0.002 -0.66961,0.21497 -1.30192,0.48825 -1.89394,0.81701 -0.59202,0.32875 -1.14371,0.71285 -1.65261,1.15031 -0.50891,0.43747 -0.975,0.92806 -1.39527,1.46916 -0.42026,0.54111 -0.79475,1.13284 -1.12086,1.77251 v 0.002 c -0.27125,0.53316 -0.50193,1.07692 -0.69143,1.62935 -0.18949,0.55244 -0.33779,1.11375 -0.44493,1.68259 -0.10715,0.56884 -0.1732,1.14515 -0.1974,1.72754 -0.0242,0.58239 -0.007,1.17064 0.0527,1.76372 v 0.004 l 0.002,0.002 c 0.062,0.58582 0.15878,1.1458 0.29146,1.67742 0.13267,0.53161 0.30114,1.03495 0.50642,1.50688 0.20529,0.47193 0.44726,0.91254 0.72709,1.3193 0.27984,0.40676 0.59764,0.77959 0.95395,1.1157 0.37295,0.35223 0.7833,0.65051 1.2237,0.88883 0.44039,0.23832 0.91084,0.41667 1.40301,0.52917 h 0.002 c 0.47484,0.107 0.95235,0.1246 1.43299,0.0971 0.48064,-0.0275 0.96441,-0.0999 1.45159,-0.17363 0.4905,-0.11472 0.97962,-0.25473 1.45366,-0.45217 0.47404,-0.19744 0.933,-0.4523 1.3627,-0.79737 l 0.002,-0.002 c 0.37668,-0.30343 0.72477,-0.70585 1.06454,-1.1374 0.33977,-0.43154 0.67123,-0.89222 1.01389,-1.31206 0.0498,0.46642 0.0783,0.96982 0.11989,1.45211 0.0416,0.48228 0.0963,0.94345 0.19844,1.3255 v 0.002 c 0.0718,0.26682 0.20418,0.52539 0.37878,0.75189 0.17461,0.22649 0.39146,0.42092 0.63304,0.55914 0.23918,0.13859 0.51593,0.2325 0.80099,0.27285 0.28505,0.0404 0.5784,0.0271 0.85111,-0.0486 0.26398,-0.0721 0.51937,-0.20337 0.7431,-0.3762 0.22374,-0.17284 0.41584,-0.38726 0.55398,-0.62581 0.14316,-0.24027 0.23867,-0.51857 0.28008,-0.80408 0.0414,-0.28551 0.0287,-0.57824 -0.0439,-0.84801 v -0.002 c -0.1266,-0.46589 -0.22826,-1.01102 -0.30334,-1.63349 -0.0751,-0.62247 -0.12351,-1.32218 -0.14366,-2.09651 -0.0202,-0.77434 -0.0118,-1.6236 0.0264,-2.54507 0.0382,-0.92147 0.10621,-1.91526 0.20619,-2.97914 0.087,-0.58423 0.11475,-1.11822 0.0739,-1.68724 -0.0665,-0.63729 -0.18752,-1.2424 -0.36226,-1.80764 -0.17473,-0.56524 -0.40307,-1.09061 -0.68522,-1.56941 -0.28216,-0.47881 -0.61793,-0.91081 -1.00666,-1.28881 -0.38873,-0.378 -0.83052,-0.70198 -1.32499,-0.9648 -0.48562,-0.25945 -0.99147,-0.45975 -1.5136,-0.60255 -0.52213,-0.1428 -1.06055,-0.22809 -1.61127,-0.25683 v -5.2e-4 c -0.13736,-0.007 -0.27556,-0.0106 -0.41444,-0.0109 z m -0.008,1.04903 c 0.54422,-5e-4 1.0703,0.0619 1.5782,0.18758 0.5079,0.12564 0.99761,0.31445 1.46916,0.56638 0.42203,0.22393 0.79791,0.49428 1.1281,0.8108 0.33019,0.31652 0.61485,0.6792 0.85317,1.08831 0.23833,0.4091 0.43078,0.86463 0.57723,1.36632 0.14645,0.50169 0.24673,1.04955 0.30128,1.64383 0.0217,0.3562 -0.0127,0.76954 -0.10336,1.30948 -0.10335,1.08808 -0.1759,2.10599 -0.21756,3.05408 -0.0417,0.94808 -0.0526,1.82634 -0.0325,2.63446 0.02,0.80812 0.0712,1.54616 0.15296,2.21434 0.0818,0.66817 0.19442,1.26647 0.33796,1.79472 0.0402,0.14928 0.0505,0.29435 0.0305,0.43511 -0.02,0.14077 -0.0705,0.27722 -0.15089,0.40928 -0.0746,0.13207 -0.16812,0.24099 -0.28009,0.32711 -0.11196,0.0861 -0.24242,0.14946 -0.3917,0.18966 -0.14355,0.0402 -0.2857,0.0502 -0.42634,0.03 -0.14063,-0.0202 -0.27974,-0.0705 -0.41754,-0.1509 -0.13207,-0.0746 -0.24099,-0.16812 -0.32712,-0.28008 -0.0861,-0.11197 -0.14945,-0.24242 -0.18965,-0.39171 -0.17799,-0.66605 -0.31454,-1.41793 -0.40927,-2.25619 -0.0947,-0.83827 -0.14768,-1.76291 -0.15917,-2.77348 -0.55121,0.88425 -1.11965,1.67235 -1.70532,2.3642 -0.58566,0.69184 -1.18855,1.28743 -1.80867,1.78697 -0.37896,0.30432 -0.76939,0.52373 -1.16272,0.68936 -0.39334,0.16564 -0.7896,0.2775 -1.18029,0.36742 -0.41616,0.0958 -0.82789,0.16337 -1.23765,0.18397 -0.40977,0.0206 -0.81758,-0.006 -1.22525,-0.0977 -0.40193,-0.0919 -0.78081,-0.23958 -1.13688,-0.4377 -0.35608,-0.19812 -0.68937,-0.44666 -0.99943,-0.73949 -0.30144,-0.28422 -0.57246,-0.60099 -0.81287,-0.94981 -0.2404,-0.34882 -0.45003,-0.72967 -0.62941,-1.14308 -0.1794,-0.41341 -0.32861,-0.85938 -0.44701,-1.33739 -0.11839,-0.47801 -0.20613,-0.98805 -0.26355,-1.53065 -0.0545,-0.54548 -0.0711,-1.08406 -0.0496,-1.61593 0.0215,-0.53186 0.0812,-1.05685 0.1788,-1.57509 0.0976,-0.51825 0.23304,-1.02968 0.4067,-1.53428 0.17366,-0.50459 0.38533,-1.00252 0.6351,-1.49345 0.29858,-0.58566 0.6357,-1.12273 1.01183,-1.61075 0.37612,-0.48802 0.79123,-0.92683 1.24488,-1.31723 0.45365,-0.3904 0.94628,-0.73195 1.47743,-1.02474 0.53115,-0.29281 1.10082,-0.53704 1.70946,-0.73226 0.46723,-0.15324 0.92323,-0.26826 1.36839,-0.3452 0.44516,-0.0769 0.87948,-0.1158 1.30276,-0.11627 z"
       id="path1461"
       inkscape:connector-curvature="0" />
    <g
       id="g1607">
      <path
         transform="scale(0.26458333)"
         id="path1465"
         d="M 727.11914 573 C 726.53322 572.95659 725.98476 573.01693 725.47461 573.17969 C 724.96446 573.34245 724.49262 573.60764 724.05859 573.97656 C 723.62455 574.34548 723.28246 574.76899 723.0332 575.24609 C 722.78394 575.7232 722.62751 576.2539 722.5625 576.83984 C 722.51911 577.42578 722.62826 578.0344 722.88867 578.66406 C 723.14909 579.29373 723.56078 579.94445 724.125 580.61719 C 724.68924 581.28992 725.27995 582.42448 725.89844 584.01953 C 726.51693 585.61459 727.1632 587.67015 727.83594 590.1875 C 728.53037 592.68316 729.12354 595.82709 729.50781 599.57422 C 729.89208 603.32135 730.06745 607.67167 729.92969 612.58203 C 729.82957 616.14875 729.51253 619.84334 729.26367 623.7207 C 729.01481 627.59807 728.83414 631.65821 729.00781 635.95508 C 729.0512 636.86655 729.41883 637.75696 730.11328 638.625 C 730.4822 639.03733 730.89388 639.36299 731.34961 639.60156 C 731.80534 639.84014 732.30512 639.99163 732.84766 640.05664 C 733.4119 640.10005 733.94884 640.03972 734.45898 639.87695 C 734.96913 639.71419 735.45249 639.449 735.9082 639.08008 C 736.36394 638.71114 736.71708 638.29258 736.9668 637.82617 C 737.21651 637.35976 737.36279 636.84549 737.40625 636.28125 L 737.66602 633.74219 C 738.03493 630.29167 738.25323 626.83539 738.41602 623.39844 C 738.5788 619.96148 738.68608 616.54384 738.83008 613.16797 C 739.1365 611.06771 739.54015 609.0479 740.03711 607.11133 C 740.53407 605.17476 741.125 603.32175 741.80078 601.55469 C 742.47656 599.78762 743.2372 598.10736 744.08008 596.51562 C 744.92296 594.92389 745.84745 593.42035 746.8457 592.00977 C 747.84397 590.58832 748.88689 589.32005 749.97461 588.20508 C 751.06233 587.09011 752.19388 586.12877 753.37109 585.32031 C 754.54831 584.51185 755.77035 583.85542 757.03711 583.35352 C 758.30387 582.85161 759.61632 582.5039 760.97266 582.30859 C 762.33984 582.11328 763.67555 582.04818 764.98047 582.11328 C 766.28539 582.17838 767.56017 582.3737 768.80273 582.69922 C 770.0453 583.02474 771.25541 583.48047 772.43555 584.06641 C 773.61568 584.65235 774.76519 585.36849 775.88281 586.21484 C 777.01128 587.06119 778.04026 588.00395 778.9707 589.04297 C 779.90115 590.08198 780.73242 591.21758 781.46484 592.44922 C 782.19726 593.68086 782.83084 595.00938 783.36523 596.43359 C 783.89963 597.85781 784.3355 599.37739 784.67188 600.99414 C 785.1927 603.50065 785.43095 606.07459 785.38477 608.7168 C 785.33859 611.359 785.00768 614.0698 784.39453 616.84766 C 783.78138 619.62551 782.88515 622.47129 781.70508 625.38477 C 780.52501 628.29824 779.06141 631.27908 777.31445 634.32812 C 777.03239 634.82725 776.85809 635.34841 776.79297 635.89062 C 776.72785 636.43284 776.77189 636.99609 776.92383 637.58203 C 777.07574 638.14626 777.31511 638.63932 777.64062 639.0625 C 777.96614 639.48568 778.37781 639.83897 778.87695 640.12109 C 779.37608 640.40314 779.89035 640.57745 780.42188 640.64258 C 780.9534 640.70771 781.50216 640.66365 782.06641 640.51172 C 782.65233 640.35982 783.1633 640.12045 783.59766 639.79492 C 784.03201 639.4694 784.38975 639.05772 784.67188 638.55859 C 786.69006 635.04297 788.37817 631.58761 789.73438 628.19141 C 791.09058 624.7952 792.1143 621.45847 792.80859 618.18164 C 793.50288 614.90481 793.86599 611.68679 793.89844 608.5293 C 793.91466 606.95055 793.84845 605.38681 793.69922 603.83789 C 793.54999 602.28897 793.31857 600.75543 793.00391 599.23633 C 792.54817 597.09874 791.95187 595.08177 791.2168 593.18555 C 790.48172 591.28933 789.60821 589.51419 788.59375 587.85938 C 787.57929 586.20456 786.42474 584.66922 785.13086 583.25586 C 783.83698 581.84249 782.40343 580.55079 780.83008 579.37891 C 779.26758 578.19618 777.65625 577.19423 775.99609 576.375 C 774.33594 575.55577 772.62695 574.91862 770.86914 574.46289 C 769.11133 574.00716 767.30469 573.73286 765.44922 573.64062 C 763.59375 573.54839 761.68946 573.63889 759.73633 573.91016 C 757.38173 574.25738 755.13922 574.89321 753.00977 575.81836 C 750.88031 576.7435 748.86328 577.95795 746.95898 579.46094 C 745.05469 580.96392 743.26313 582.7552 741.58398 584.83594 C 739.90484 586.91668 738.33875 589.2869 736.88477 591.94531 C 736.52669 589.98134 736.11621 588.14465 735.65234 586.43555 C 735.18848 584.72644 734.67122 583.14556 734.10156 581.69141 C 733.5319 580.23725 732.90983 578.91006 732.23438 577.71094 C 731.55892 576.51181 730.83008 575.44011 730.04883 574.49609 C 729.67991 574.04036 729.25195 573.68868 728.76367 573.43945 C 728.27539 573.19023 727.7268 573.04346 727.11914 573 z "
         style="opacity:1;fill:url(#radialGradient1587);fill-opacity:1.0;stroke:none;stroke-width:15.00000286;stroke-linecap:round;stroke-linejoin:miter;stroke-miterlimit:4;stroke-dasharray:none;stroke-opacity:1;paint-order:fill markers stroke" />
      <path
         transform="scale(0.26458333)"
         id="path1459"
         d="M 726.61914 568.98828 L 726.61719 568.99219 C 725.69534 569.01921 724.75711 569.20484 723.875 569.5332 C 722.99289 569.86157 722.1669 570.33267 721.4668 570.92773 C 720.67226 571.6031 720.0102 572.4578 719.51758 573.40039 C 719.02495 574.34298 718.70177 575.37347 718.58789 576.39844 L 718.58203 576.4707 L 718.57422 576.54492 C 718.47954 577.82382 718.71913 579.02895 719.17383 580.14258 C 719.62852 581.2562 720.29832 582.27832 721.0625 583.18945 C 721.08895 583.22101 721.4924 584.01662 722.05078 585.41016 C 722.60917 586.80369 723.3225 588.79515 723.9707 591.2207 L 723.97852 591.24219 L 723.98438 591.25781 C 724.5863 593.42099 725.08631 596.29238 725.45898 599.82422 C 725.83166 603.35606 726.07701 607.54834 726.16797 612.35352 C 725.60327 615.95257 725.22721 619.73132 725.03516 623.69141 C 724.8431 627.65149 724.83506 631.79292 725.00977 636.11719 L 725.00977 636.13281 L 725.00977 636.14648 C 725.05417 637.07829 725.27452 637.97886 725.62109 638.81836 C 725.96766 639.65786 726.44046 640.4363 726.98828 641.12109 L 727.0625 641.21094 L 727.13672 641.29102 C 727.79562 642.02742 728.61074 642.65213 729.50781 643.12305 C 730.40489 643.59396 731.38393 643.91107 732.36914 644.0293 L 732.45898 644.03711 L 732.53906 644.04492 C 733.57639 644.12467 734.64812 643.98562 735.66016 643.66406 C 736.6722 643.34251 737.62455 642.83844 738.42383 642.19141 C 739.24298 641.52827 739.9445 640.65983 740.46094 639.69141 C 740.97737 638.72298 741.30873 637.65456 741.39062 636.58984 L 741.64844 634.14648 L 741.64062 634.16992 C 742.00658 630.74711 742.26589 627.33414 742.42578 623.92969 C 742.58567 620.52524 742.64615 617.1293 742.61523 613.74414 C 742.96554 611.75568 743.38538 609.86266 743.875 608.0625 C 744.36462 606.26234 744.9246 604.55529 745.55078 602.93945 C 746.17696 601.32362 746.87086 599.79877 747.63086 598.36328 C 748.39086 596.92779 749.21635 595.58139 750.10742 594.32227 L 750.11523 594.31445 L 750.11523 594.30664 C 751.00299 593.04256 751.89805 591.94517 752.80664 591.00195 C 753.71523 590.05873 754.63731 589.27004 755.58008 588.61914 C 756.52284 587.96824 757.48628 587.45547 758.47656 587.06836 C 759.46685 586.68125 760.48401 586.41944 761.53516 586.26758 C 762.66439 586.10626 763.74225 586.04456 764.78125 586.08789 C 765.82025 586.13122 766.82089 586.27913 767.79688 586.53516 C 768.77286 586.79119 769.72386 587.15604 770.66406 587.63281 C 771.60427 588.10959 772.53319 588.69873 773.46484 589.4043 L 773.47266 589.41211 L 773.48047 589.41211 C 774.40259 590.1037 775.24385 590.86693 776.00586 591.71094 C 776.76787 592.55494 777.45006 593.47975 778.05469 594.49805 C 778.65932 595.51634 779.18675 596.62734 779.63672 597.8418 C 780.08669 599.05625 780.45978 600.37415 780.75781 601.80664 C 781.2169 604.01602 781.43005 606.30251 781.38867 608.66992 C 781.34729 611.03733 781.05082 613.48475 780.48828 616.02148 C 779.92574 618.55822 779.09853 621.18302 777.99414 623.90039 C 776.88975 626.61776 775.50873 629.42859 773.8418 632.33789 L 773.8418 632.35352 L 773.83398 632.36133 C 773.31124 633.28618 772.98413 634.33885 772.85352 635.41211 C 772.7229 636.48537 772.78877 637.57922 773.05078 638.58984 L 773.05859 638.60352 L 773.05859 638.61914 C 773.3317 639.63357 773.83507 640.61857 774.5 641.48047 C 775.16493 642.34237 775.99143 643.08118 776.91211 643.60156 C 777.82294 644.11639 778.86371 644.44419 779.92773 644.57617 C 780.99176 644.70815 782.07903 644.64432 783.08398 644.37695 C 784.10578 644.10968 785.10626 643.61369 785.98438 642.95117 C 786.86249 642.28865 787.61824 641.45961 788.14844 640.52344 C 788.14893 640.52257 788.15247 640.52431 788.15625 640.52344 C 790.25539 636.86378 792.02433 633.23263 793.45508 629.63672 C 794.88582 626.04081 795.97914 622.48074 796.72266 618.96289 C 797.09441 617.20397 797.3778 615.45547 797.57422 613.71875 C 797.77064 611.98203 797.87971 610.2557 797.89844 608.54297 C 797.91716 606.83024 797.84687 605.13031 797.68555 603.44336 C 797.52422 601.75641 797.27146 600.08321 796.92773 598.42383 L 796.91992 598.4082 L 796.91992 598.40039 C 796.42344 596.07175 795.76146 593.84795 794.9375 591.74023 C 794.11354 589.63252 793.12738 587.64104 791.98242 585.77539 C 790.83747 583.90974 789.53367 582.17081 788.07422 580.56836 C 786.61477 578.9659 784.99988 577.49976 783.23242 576.18164 C 781.48143 574.85758 779.64971 573.73044 777.75 572.80273 C 775.85029 571.87503 773.88275 571.1474 771.86133 570.62305 C 769.83991 570.09869 767.76457 569.77808 765.64844 569.66406 C 763.53231 569.55005 761.37524 569.64201 759.19141 569.94531 L 759.16797 569.95312 L 759.1543 569.95312 C 757.10754 570.25494 755.16048 570.81025 753.30273 571.58398 C 751.44499 572.35772 749.67706 573.349 747.98828 574.52344 C 746.2995 575.69787 744.69026 577.05664 743.15039 578.56055 C 741.61052 580.06446 740.13953 581.71441 738.72852 583.47656 C 738.02084 581.22374 737.23988 579.09091 736.32812 577.15039 C 735.41637 575.20987 734.37383 573.46164 733.14648 571.97461 C 732.4595 571.13015 731.56236 570.42723 730.56836 569.91602 C 729.57436 569.4048 728.48351 569.08529 727.41211 569.00781 L 727.4043 569.00391 C 727.14502 568.98501 726.8825 568.98072 726.61914 568.98828 z M 727.11914 573 C 727.7268 573.04346 728.27539 573.19023 728.76367 573.43945 C 729.25195 573.68868 729.67991 574.04036 730.04883 574.49609 C 730.83008 575.44011 731.55892 576.51181 732.23438 577.71094 C 732.90983 578.91006 733.5319 580.23725 734.10156 581.69141 C 734.67122 583.14556 735.18848 584.72644 735.65234 586.43555 C 736.11621 588.14465 736.52669 589.98134 736.88477 591.94531 C 738.33875 589.2869 739.90484 586.91668 741.58398 584.83594 C 743.26313 582.7552 745.05469 580.96392 746.95898 579.46094 C 748.86328 577.95795 750.88031 576.7435 753.00977 575.81836 C 755.13922 574.89321 757.38173 574.25738 759.73633 573.91016 C 761.68946 573.63889 763.59375 573.54839 765.44922 573.64062 C 767.30469 573.73286 769.11133 574.00716 770.86914 574.46289 C 772.62695 574.91862 774.33594 575.55577 775.99609 576.375 C 777.65625 577.19423 779.26758 578.19618 780.83008 579.37891 C 782.40343 580.55079 783.83698 581.84249 785.13086 583.25586 C 786.42474 584.66922 787.57929 586.20456 788.59375 587.85938 C 789.60821 589.51419 790.48172 591.28933 791.2168 593.18555 C 791.95187 595.08177 792.54817 597.09874 793.00391 599.23633 C 793.31857 600.75543 793.54999 602.28897 793.69922 603.83789 C 793.84845 605.38681 793.91466 606.95055 793.89844 608.5293 C 793.86599 611.68679 793.50288 614.90481 792.80859 618.18164 C 792.1143 621.45847 791.09058 624.7952 789.73438 628.19141 C 788.37817 631.58761 786.69006 635.04297 784.67188 638.55859 C 784.38975 639.05772 784.03201 639.4694 783.59766 639.79492 C 783.1633 640.12045 782.65233 640.35982 782.06641 640.51172 C 781.50216 640.66365 780.9534 640.70771 780.42188 640.64258 C 779.89035 640.57745 779.37608 640.40314 778.87695 640.12109 C 778.37781 639.83897 777.96614 639.48568 777.64062 639.0625 C 777.31511 638.63932 777.07574 638.14626 776.92383 637.58203 C 776.77189 636.99609 776.72785 636.43284 776.79297 635.89062 C 776.85809 635.34841 777.03239 634.82725 777.31445 634.32812 C 779.06141 631.27908 780.52501 628.29824 781.70508 625.38477 C 782.88515 622.47129 783.78138 619.62551 784.39453 616.84766 C 785.00768 614.0698 785.33859 611.359 785.38477 608.7168 C 785.43095 606.07459 785.1927 603.50065 784.67188 600.99414 C 784.3355 599.37739 783.89963 597.85781 783.36523 596.43359 C 782.83084 595.00938 782.19726 593.68086 781.46484 592.44922 C 780.73242 591.21758 779.90115 590.08198 778.9707 589.04297 C 778.04026 588.00395 777.01128 587.06119 775.88281 586.21484 C 774.76519 585.36849 773.61568 584.65235 772.43555 584.06641 C 771.25541 583.48047 770.0453 583.02474 768.80273 582.69922 C 767.56017 582.3737 766.28539 582.17838 764.98047 582.11328 C 763.67555 582.04818 762.33984 582.11328 760.97266 582.30859 C 759.61632 582.5039 758.30387 582.85161 757.03711 583.35352 C 755.77035 583.85542 754.54831 584.51185 753.37109 585.32031 C 752.19388 586.12877 751.06233 587.09011 749.97461 588.20508 C 748.88689 589.32005 747.84397 590.58832 746.8457 592.00977 C 745.84745 593.42035 744.92296 594.92389 744.08008 596.51562 C 743.2372 598.10736 742.47656 599.78762 741.80078 601.55469 C 741.125 603.32175 740.53407 605.17476 740.03711 607.11133 C 739.54015 609.0479 739.1365 611.06771 738.83008 613.16797 C 738.68608 616.54384 738.5788 619.96148 738.41602 623.39844 C 738.25323 626.83539 738.03493 630.29167 737.66602 633.74219 L 737.40625 636.28125 C 737.36279 636.84549 737.21651 637.35976 736.9668 637.82617 C 736.71708 638.29258 736.36394 638.71114 735.9082 639.08008 C 735.45249 639.449 734.96913 639.71419 734.45898 639.87695 C 733.94884 640.03972 733.4119 640.10005 732.84766 640.05664 C 732.30512 639.99163 731.80534 639.84014 731.34961 639.60156 C 730.89388 639.36299 730.4822 639.03733 730.11328 638.625 C 729.41883 637.75696 729.0512 636.86655 729.00781 635.95508 C 728.83414 631.65821 729.01481 627.59807 729.26367 623.7207 C 729.51253 619.84334 729.82957 616.14875 729.92969 612.58203 C 730.06745 607.67167 729.89208 603.32135 729.50781 599.57422 C 729.12354 595.82709 728.53037 592.68316 727.83594 590.1875 C 727.1632 587.67015 726.51693 585.61459 725.89844 584.01953 C 725.27995 582.42448 724.68924 581.28992 724.125 580.61719 C 723.56078 579.94445 723.14909 579.29373 722.88867 578.66406 C 722.62826 578.0344 722.51911 577.42578 722.5625 576.83984 C 722.62751 576.2539 722.78394 575.7232 723.0332 575.24609 C 723.28246 574.76899 723.62455 574.34548 724.05859 573.97656 C 724.49262 573.60764 724.96446 573.34245 725.47461 573.17969 C 725.98476 573.01693 726.53322 572.95659 727.11914 573 z "
         style="opacity:1;fill:#ce8ae2;fill-opacity:1;stroke:none;stroke-width:15.00000286;stroke-linecap:round;stroke-linejoin:miter;stroke-miterlimit:4;stroke-dasharray:none;stroke-opacity:1;paint-order:fill markers stroke" />
    </g>
    <path
       style="opacity:1;fill:#ce8ae2;fill-opacity:1;stroke:none;stroke-width:15.00000286;stroke-linecap:round;stroke-linejoin:miter;stroke-miterlimit:4;stroke-dasharray:none;stroke-opacity:1;paint-order:fill markers stroke"
       d="M 675.39258 554.31445 C 674.71983 554.39045 674.0434 554.58446 673.36523 554.89648 C 672.68707 555.20851 672.00781 555.63946 671.32422 556.1875 C 669.95704 557.28358 668.57835 558.85072 667.18945 560.89062 C 665.86568 562.86545 664.59846 565.04411 663.38867 567.42578 C 662.17888 569.80745 661.02553 572.39114 659.92969 575.17969 C 658.83385 577.96824 657.79638 580.96078 656.81445 584.15625 C 655.83252 587.35172 654.90712 590.75109 654.03906 594.35352 L 696.61719 594.35352 C 695.38021 590.02409 694.13858 586.03162 692.89062 582.375 C 691.64268 578.71838 690.38775 575.39792 689.12891 572.41406 C 687.87006 569.4302 686.60559 566.78184 685.33594 564.4707 C 684.06629 562.15956 682.79209 560.18533 681.51172 558.54688 C 680.86066 557.72222 680.22591 557.02745 679.60742 556.46289 C 678.98894 555.89833 678.38672 555.46399 677.80078 555.16016 C 676.67233 554.55252 675.87001 554.27106 675.39258 554.31445 z M 675.54102 558.5625 L 675.54297 558.5625 C 675.6841 558.6084 675.73656 558.5895 675.90234 558.68164 L 675.93164 558.69531 L 675.96289 558.71094 C 676.35683 558.91503 677.28362 559.64575 678.36328 561.00781 C 679.34485 562.26388 680.35586 563.85489 681.38867 565.75391 C 682.42149 567.65293 683.47605 569.85948 684.54297 572.34375 C 686.67682 577.31229 688.86181 583.3941 691.0293 590.35742 L 659.44922 590.35742 C 661.02343 584.62414 662.72547 579.40338 664.56445 574.82422 C 665.48394 572.53464 666.43888 570.40577 667.42773 568.45312 C 668.41658 566.50049 669.43968 564.72406 670.5 563.14062 L 670.50781 563.13281 C 671.66791 561.43142 672.69313 560.3398 673.54492 559.64844 C 674.39671 558.95707 675.07506 558.66596 675.54102 558.5625 z "
       transform="scale(0.26458333)"
       id="path1503" />
    <path
       style="opacity:1;fill:url(#radialGradient1589);fill-opacity:1.0;stroke:none;stroke-width:15.00000286;stroke-linecap:round;stroke-linejoin:miter;stroke-miterlimit:4;stroke-dasharray:none;stroke-opacity:1;paint-order:fill markers stroke"
       d="M 676.09961 545.4707 C 675.84912 545.4625 675.59917 545.46324 675.34766 545.47266 C 674.00623 545.52285 672.64967 545.82353 671.2793 546.375 C 669.90892 546.92647 668.52473 547.72873 667.125 548.78125 C 665.33464 550.13759 663.60723 551.8455 661.94141 553.9043 C 660.27558 555.9631 658.67198 558.37343 657.13086 561.13477 C 655.58973 563.8961 654.10962 567.0087 652.69336 570.47266 C 651.2771 573.93662 649.92404 577.7513 648.63281 581.91797 C 647.35243 586.07379 646.18163 590.36941 645.12109 594.80469 C 644.06056 599.23997 643.1103 603.81459 642.26953 608.5293 C 641.42876 613.244 640.69725 618.09966 640.07617 623.09375 C 639.45509 628.08784 638.94444 633.2207 638.54297 638.49414 C 638.52127 638.94986 638.59608 639.40066 638.76953 639.8457 C 638.94298 640.29075 639.21507 640.73004 639.58398 641.16406 C 639.97462 641.6198 640.40913 641.97148 640.88672 642.2207 C 641.36431 642.46993 641.88497 642.61669 642.44922 642.66016 C 643.03516 642.70354 643.58361 642.63829 644.09375 642.46484 C 644.60389 642.2914 645.07572 642.00978 645.50977 641.61914 C 645.96548 641.22851 646.31864 640.794 646.56836 640.31641 C 646.81807 639.83881 646.96435 639.31813 647.00781 638.75391 C 647.42014 633.19834 648.05507 627.42513 648.91211 621.43555 C 649.76915 615.44597 650.84831 609.24002 652.15039 602.81641 L 698.76367 602.81641 L 698.83008 602.81641 C 700.00194 607.3954 701.12994 612.234 702.21484 617.33398 C 703.29975 622.43397 704.34158 627.79535 705.33984 633.41602 L 706.31641 639.08008 C 706.44663 639.6443 706.66461 640.1487 706.96875 640.59375 C 707.27289 641.0388 707.6632 641.42449 708.14062 641.75 C 708.61805 642.09798 709.11144 642.33039 709.62109 642.44922 C 710.13075 642.56805 710.65667 642.57332 711.19922 642.46484 C 711.76344 642.37803 712.27278 642.1939 712.72852 641.91211 C 713.18425 641.63032 713.58639 641.25087 713.93359 640.77344 C 714.28076 640.29601 714.52019 639.79623 714.65039 639.27539 C 714.7806 638.75455 714.80158 638.21266 714.71484 637.64844 L 713.67383 631.91797 C 712.55621 625.67882 711.38917 619.74271 710.17383 614.11133 C 708.95849 608.47994 707.69388 603.15261 706.38086 598.12891 C 705.06784 593.1052 703.70753 588.38682 702.29688 583.9707 C 700.88622 579.55459 699.42621 575.44141 697.91797 571.63281 C 696.22297 567.3362 694.49686 563.56852 692.74023 560.33008 C 690.98361 557.09164 689.19713 554.38333 687.37891 552.20312 C 686.4698 551.11302 685.55146 550.15366 684.62695 549.32812 C 683.70245 548.50259 682.77192 547.80901 681.83203 547.24805 C 680.89214 546.68708 679.94355 546.25928 678.98828 545.96289 C 678.03301 545.6665 677.07026 545.50251 676.09961 545.4707 z M 675.39258 554.31445 C 675.87001 554.27106 676.67233 554.55252 677.80078 555.16016 C 678.38672 555.46399 678.98894 555.89833 679.60742 556.46289 C 680.22591 557.02745 680.86066 557.72222 681.51172 558.54688 C 682.79209 560.18534 684.06629 562.15956 685.33594 564.4707 C 686.60559 566.78184 687.87006 569.4302 689.12891 572.41406 C 690.38775 575.39792 691.64267 578.71838 692.89062 582.375 C 694.13858 586.03162 695.38021 590.02409 696.61719 594.35352 L 654.03906 594.35352 C 654.90712 590.75109 655.83252 587.35172 656.81445 584.15625 C 657.79638 580.96078 658.83385 577.96824 659.92969 575.17969 C 661.02553 572.39114 662.17888 569.80745 663.38867 567.42578 C 664.59846 565.04411 665.86568 562.86545 667.18945 560.89062 C 668.57835 558.85071 669.95704 557.28358 671.32422 556.1875 C 672.00781 555.63946 672.68707 555.20851 673.36523 554.89648 C 674.0434 554.58446 674.71983 554.39042 675.39258 554.31445 z "
       id="path1453"
       transform="scale(0.26458333)" />
    <path
       style="opacity:1;fill:#ce8ae2;fill-opacity:1;stroke:none;stroke-width:15.00000286;stroke-linecap:round;stroke-linejoin:miter;stroke-miterlimit:4;stroke-dasharray:none;stroke-opacity:1;paint-order:fill markers stroke"
       d="M 674.99609 541.51953 C 673.23096 541.61087 671.49305 541.98321 669.80664 542.66016 C 668.0536 543.36385 666.35156 544.35816 664.71875 545.58594 L 664.71094 545.58594 L 664.71094 545.59375 C 662.61992 547.17784 660.66064 549.10144 658.81641 551.36133 C 656.97217 553.62121 655.24299 556.21694 653.60938 559.14844 C 651.97576 562.07993 650.43766 565.34638 648.97852 568.94531 C 647.51937 572.54424 646.13919 576.4761 644.81836 580.73828 L 644.81055 580.73828 C 643.50377 584.97973 642.31185 589.35837 641.23242 593.87305 C 640.153 598.38773 639.18556 603.03835 638.33203 607.82617 C 637.4785 612.61399 636.73845 617.53874 636.10938 622.59961 C 635.4803 627.66048 634.96271 632.85757 634.55664 638.19141 L 634.54883 638.25 L 634.54883 638.30078 C 634.50007 639.32451 634.69331 640.33187 635.05078 641.26172 C 635.40826 642.19156 635.92998 643.04389 636.53516 643.75586 L 636.54297 643.75586 L 636.55078 643.76367 C 637.23064 644.55686 638.09728 645.23728 639.06055 645.74023 C 640.02382 646.24318 641.08372 646.56866 642.14648 646.65039 L 642.15234 646.65039 C 643.20642 646.72844 644.30464 646.56978 645.33789 646.21484 C 646.37114 645.85991 647.33942 645.3087 648.13281 644.60547 C 648.91491 643.92506 649.5898 643.06608 650.08984 642.11328 C 650.58989 641.16048 650.91508 640.11384 650.99609 639.06055 L 650.99609 639.05273 L 650.99609 639.04688 C 651.3645 634.08294 651.96928 628.8784 652.75586 623.48828 C 653.54244 618.09817 654.51082 612.52247 655.60938 606.81641 L 695.59766 606.81641 C 696.62504 610.98303 697.62892 615.2956 698.59961 619.82227 C 699.5703 624.34893 700.50782 629.08971 701.40039 634.11523 L 702.39648 639.86523 L 702.41797 639.97656 C 702.64687 640.96852 703.08578 641.93173 703.67578 642.79297 C 704.26578 643.6542 705.00689 644.41346 705.84375 644.99609 C 706.67885 645.59275 707.67479 646.02941 708.7207 646.26953 C 709.76661 646.50965 710.8625 646.55321 711.89648 646.36133 C 712.92557 646.18709 713.9405 645.79452 714.84961 645.23633 C 715.75872 644.67814 716.562 643.95433 717.16797 643.12109 C 717.78225 642.27646 718.23695 641.27878 718.49805 640.23047 C 718.75915 639.18215 718.82665 638.0832 718.66602 637.03906 L 718.6582 636.98633 L 717.61133 631.21289 L 717.61133 631.19727 C 716.48644 624.9186 715.31155 618.94122 714.08594 613.26172 C 712.86033 607.58222 711.58317 602.20098 710.25391 597.11719 C 708.92465 592.0334 707.54327 587.24546 706.10742 582.75391 C 704.67157 578.26236 703.18209 574.06683 701.63672 570.16406 L 701.63672 570.15625 C 700.43799 567.11804 699.22736 564.3151 697.98828 561.74609 C 696.7492 559.17709 695.4814 556.84187 694.16797 554.74219 C 692.85453 552.6425 691.49601 550.77674 690.07422 549.14648 C 688.65243 547.51623 687.16765 546.12164 685.60352 544.96094 C 684.03907 543.80002 682.35754 542.89297 680.60742 542.29297 C 679.73236 541.99297 678.84053 541.76846 677.9375 541.62891 C 677.32065 541.53358 676.69343 541.5347 676.06836 541.51953 L 674.99609 541.51953 z M 676.09961 545.4707 C 677.07026 545.50251 678.03301 545.6665 678.98828 545.96289 C 679.94355 546.25928 680.89214 546.68708 681.83203 547.24805 C 682.77192 547.80901 683.70245 548.50259 684.62695 549.32812 C 685.55146 550.15366 686.4698 551.11302 687.37891 552.20312 C 689.19713 554.38333 690.98361 557.09164 692.74023 560.33008 C 694.49686 563.56852 696.22297 567.3362 697.91797 571.63281 C 699.42621 575.44141 700.88622 579.55459 702.29688 583.9707 C 703.70753 588.38682 705.06784 593.1052 706.38086 598.12891 C 707.69388 603.15261 708.95849 608.47994 710.17383 614.11133 C 711.38917 619.74271 712.55621 625.67882 713.67383 631.91797 L 714.71484 637.64844 C 714.80158 638.21266 714.7806 638.75455 714.65039 639.27539 C 714.52019 639.79623 714.28076 640.29601 713.93359 640.77344 C 713.58639 641.25087 713.18425 641.63032 712.72852 641.91211 C 712.27278 642.1939 711.76344 642.37803 711.19922 642.46484 C 710.65667 642.57332 710.13075 642.56805 709.62109 642.44922 C 709.11144 642.33039 708.61805 642.09798 708.14062 641.75 C 707.6632 641.42449 707.27289 641.0388 706.96875 640.59375 C 706.66461 640.1487 706.44663 639.6443 706.31641 639.08008 L 705.33984 633.41602 C 704.34158 627.79535 703.29975 622.43397 702.21484 617.33398 C 701.12994 612.234 700.00194 607.3954 698.83008 602.81641 L 698.76367 602.81641 L 652.15039 602.81641 C 650.84831 609.24002 649.76915 615.44597 648.91211 621.43555 C 648.05507 627.42513 647.42014 633.19834 647.00781 638.75391 C 646.96435 639.31813 646.81807 639.83881 646.56836 640.31641 C 646.31864 640.794 645.96548 641.22851 645.50977 641.61914 C 645.07572 642.00978 644.60389 642.2914 644.09375 642.46484 C 643.58361 642.63829 643.03516 642.70354 642.44922 642.66016 C 641.88497 642.61669 641.36431 642.46993 640.88672 642.2207 C 640.40913 641.97148 639.97462 641.6198 639.58398 641.16406 C 639.21507 640.73004 638.94298 640.29075 638.76953 639.8457 C 638.59608 639.40066 638.52127 638.94986 638.54297 638.49414 C 638.94444 633.2207 639.45509 628.08784 640.07617 623.09375 C 640.69725 618.09966 641.42876 613.244 642.26953 608.5293 C 643.1103 603.81459 644.06056 599.23997 645.12109 594.80469 C 646.18163 590.36941 647.35243 586.07379 648.63281 581.91797 C 649.92404 577.7513 651.2771 573.93662 652.69336 570.47266 C 654.10962 567.0087 655.58973 563.8961 657.13086 561.13477 C 658.67198 558.37343 660.27558 555.9631 661.94141 553.9043 C 663.60723 551.8455 665.33464 550.13759 667.125 548.78125 C 668.52473 547.72873 669.90892 546.92647 671.2793 546.375 C 672.64967 545.82353 674.00623 545.52285 675.34766 545.47266 C 675.59917 545.46324 675.84912 545.4625 676.09961 545.4707 z "
       id="rect1434"
       transform="scale(0.26458333)" />
    <text
       xml:space="preserve"
       style="font-style:normal;font-weight:normal;font-size:10.58333302px;line-height:125%;font-family:sans-serif;letter-spacing:0px;word-spacing:0px;fill:#000000;fill-opacity:1;stroke:none;stroke-width:0.26458332px;stroke-linecap:butt;stroke-linejoin:miter;stroke-opacity:1"
       x="136.94891"
       y="150.50958"
       id="text886"><tspan
         sodipodi:role="line"
         id="tspan884"
         x="136.94891"
         y="159.87335"
         style="stroke-width:0.26458332px" /></text>
    <g
       id="g1430"
       transform="translate(83.842316,2.464252)">
      <path
         inkscape:connector-curvature="0"
         id="path1280"
         d="m 53.311619,134.21195 a 8.0299058,11.100165 0 0 0 -5.342371,10.44778 8.0299058,11.100165 0 0 0 0.0018,0.0499 11.100165,8.0299058 18 0 0 -0.04762,-0.0168 11.100165,8.0299058 18 0 0 -11.586118,1.85397 l 3.102059,3.83268 -4.764231,1.27778 a 11.100165,8.0299058 18 0 0 8.285583,8.30939 11.100165,8.0299058 18 0 0 0.04827,0.0139 8.0299058,11.100165 36 0 0 -0.03066,0.04 8.0299058,11.100165 36 0 0 -1.817103,11.59199 l 4.603591,-1.7659 -0.256861,4.92601 a 8.0299058,11.100165 36 0 0 10.463107,-5.31236 8.0299058,11.100165 36 0 0 0.02772,-0.0413 11.100165,8.0299058 54 0 0 0.02838,0.0413 11.100165,8.0299058 54 0 0 10.463107,5.31041 l -0.256861,-4.92406 4.605548,1.76655 a 11.100165,8.0299058 54 0 0 -1.819061,-11.59264 11.100165,8.0299058 54 0 0 -0.03066,-0.0391 8.0299058,11.100165 72 0 0 0.04844,-0.0144 8.0299058,11.100165 72 0 0 8.283626,-8.31005 l -4.762273,-1.27729 3.1032,-3.83415 a 8.0299058,11.100165 72 0 0 -11.58726,-1.85233 8.0299058,11.100165 72 0 0 -0.04713,0.0173 8.0299058,11.100165 0 0 0 0.0013,-0.0507 8.0299058,11.100165 0 0 0 -5.343512,-10.44615 l -2.686516,4.13456 z"
         style="opacity:1;fill:url(#radialGradient1381);fill-opacity:1;stroke:none;stroke-width:3.96875;stroke-linecap:round;stroke-linejoin:miter;stroke-miterlimit:4;stroke-dasharray:none;stroke-opacity:1;paint-order:fill markers stroke" />
      <path
         inkscape:connector-curvature="0"
         id="path1315"
         d="m 49.19459,153.54399 a 1.0020003,1.0020003 0 0 0 0.643323,1.26259 1.0020003,1.0020003 0 0 0 1.138001,-0.39075 l 2.44227,0.79353 -3.548057,2.53637 4.707743,-0.0363 1.420223,4.48847 1.420356,-4.48857 4.70778,0.0364 -3.830024,-2.73786 1.489223,-4.4662 -3.787286,2.79661 -3.787305,-2.79651 1.3796,4.13745 -2.441956,-0.79344 a 1.0020003,1.0020003 0 0 0 -0.691296,-0.98512 1.0020003,1.0020003 0 0 0 -1.262598,0.64333 z"
         style="opacity:1;fill:#fbeeff;fill-opacity:1;stroke:none;stroke-width:3.96875024;stroke-linecap:round;stroke-linejoin:miter;stroke-miterlimit:4;stroke-dasharray:none;stroke-opacity:1;paint-order:fill markers stroke" />
      <path
         inkscape:connector-curvature="0"
         style="opacity:1;fill:#fbeeff;fill-opacity:1;stroke:none;stroke-width:3.96875024;stroke-linecap:round;stroke-linejoin:miter;stroke-miterlimit:4;stroke-dasharray:none;stroke-opacity:1;paint-order:fill markers stroke"
         d="m 51.793359,161.54193 a 1.0020003,1.0020003 0 0 0 1.399594,-0.22168 1.0020003,1.0020003 0 0 0 -0.01996,-1.20305 l 1.509408,-2.07752 1.315811,4.15818 1.420241,-4.48854 4.707659,0.0363 -3.829973,-2.73788 1.489415,-4.46612 -3.787401,2.79653 -3.787413,-2.79647 1.4894,4.46613 -3.829983,2.73777 4.361273,-0.0335 -1.509211,2.07726 a 1.0020003,1.0020003 0 0 0 -1.15053,0.35304 1.0020003,1.0020003 0 0 0 0.221674,1.3996 z"
         id="path1356" />
      <path
         id="path1358"
         d="m 60.203048,161.54191 a 1.0020003,1.0020003 0 0 0 0.221675,-1.3996 1.0020003,1.0020003 0 0 0 -1.150337,-0.35278 l -1.509407,-2.07751 4.361272,0.0335 -3.829981,-2.73777 1.489268,-4.46603 -3.787414,2.79647 -3.787267,-2.79662 1.489279,4.4662 -3.829971,2.73789 4.707789,-0.0364 1.420244,4.48854 1.315813,-4.15818 1.509212,2.07726 a 1.0020003,1.0020003 0 0 0 -0.01977,1.20331 1.0020003,1.0020003 0 0 0 1.399595,0.22168 z"
         style="opacity:1;fill:#fbeeff;fill-opacity:1;stroke:none;stroke-width:3.96875024;stroke-linecap:round;stroke-linejoin:miter;stroke-miterlimit:4;stroke-dasharray:none;stroke-opacity:1;paint-order:fill markers stroke"
         inkscape:connector-curvature="0" />
      <path
         inkscape:connector-curvature="0"
         style="opacity:1;fill:#fbeeff;fill-opacity:1;stroke:none;stroke-width:3.96875024;stroke-linecap:round;stroke-linejoin:miter;stroke-miterlimit:4;stroke-dasharray:none;stroke-opacity:1;paint-order:fill markers stroke"
         d="m 62.801728,153.54388 a 1.0020003,1.0020003 0 0 0 -1.262593,-0.64333 1.0020003,1.0020003 0 0 0 -0.690985,0.98502 l -2.44227,0.79355 1.379603,-4.13746 -3.787303,2.79651 -3.787241,-2.79645 1.489224,4.4662 -3.830074,2.7377 4.707827,-0.0363 1.420359,4.48858 1.420174,-4.48862 4.707742,0.0363 -3.548056,-2.53636 2.441958,-0.79344 a 1.0020003,1.0020003 0 0 0 1.138312,0.39065 1.0020003,1.0020003 0 0 0 0.643323,-1.26259 z"
         id="path1360" />
      <path
         id="path1362"
         d="m 55.998022,148.60091 a 1.0020003,1.0020003 0 0 0 -1.002,1.002 1.0020003,1.0020003 0 0 0 0.723286,0.96155 v 2.56795 l -3.508631,-2.59062 1.489301,4.46611 -3.829911,2.73773 4.707803,-0.0362 1.420152,4.48862 1.420316,-4.48862 4.707803,0.0362 -3.830074,-2.73773 1.489301,-4.46611 -3.508631,2.59062 v -2.56762 a 1.0020003,1.0020003 0 0 0 0.723285,-0.96188 1.0020003,1.0020003 0 0 0 -1.002,-1.002 z"
         style="opacity:1;fill:#fbeeff;fill-opacity:1;stroke:none;stroke-width:3.96875024;stroke-linecap:round;stroke-linejoin:miter;stroke-miterlimit:4;stroke-dasharray:none;stroke-opacity:1;paint-order:fill markers stroke"
         inkscape:connector-curvature="0" />
      <path
         inkscape:connector-curvature="0"
         id="path1412"
         d="m 53.534231,133.405 -0.498554,0.24479 c -3.307405,1.62386 -5.446163,5.66029 -5.670173,10.22713 -4.412588,-1.19759 -8.91189,-0.4103 -11.477665,2.23378 l -0.386677,0.39842 2.845035,3.51516 -4.369726,1.17193 0.07877,0.54976 c 0.522379,3.64742 3.700472,6.92884 7.974741,8.55305 -2.502532,3.82655 -3.144241,8.34891 -1.422436,11.60618 l 0.25947,0.49089 4.222133,-1.61961 -0.235497,4.51813 0.547154,0.0949 c 3.630138,0.63026 7.73279,-1.37804 10.598305,-4.94085 2.865898,3.56231 6.968666,5.56981 10.598469,4.93889 l 0.54699,-0.0951 -0.235496,-4.51601 4.22409,1.62026 0.25947,-0.49105 c 1.721228,-3.25775 1.07896,-7.78023 -1.424068,-11.60651 4.273782,-1.62479 7.451025,-4.90629 7.972621,-8.55353 l 0.07861,-0.54976 -4.367607,-1.17145 2.846176,-3.51662 -0.386841,-0.39858 c -2.566434,-2.64371 -7.066111,-3.43035 -11.478642,-2.23216 -0.224561,-4.56674 -2.363753,-8.6025 -5.671315,-10.22566 l -0.498553,-0.24462 -2.463904,3.79191 z m -0.430058,1.63722 2.894939,4.45535 2.893961,-4.45372 c 2.647744,1.60788 4.504326,5.3648 4.509653,9.61196 -3.1e-4,0.0125 -6.31e-4,0.025 -9.78e-4,0.0375 l -0.02528,0.9247 0.867943,-0.31998 c 0.0097,-0.004 0.01945,-0.007 0.02919,-0.0108 4.0405,-1.3075 8.187099,-0.70324 10.534866,1.31758 l -3.34261,4.12998 5.13003,1.37596 c -0.711001,3.01506 -3.710469,5.94181 -7.748215,7.25928 -0.01179,0.004 -0.02359,0.007 -0.03539,0.0104 l -0.886536,0.2611 0.571127,0.72671 c 0.0067,0.009 0.01337,0.017 0.02006,0.0256 2.491598,3.43855 3.198035,7.56851 2.001716,10.4256 l -4.960912,-1.90289 0.276758,5.30421 c -3.087728,0.25558 -6.798736,-1.6932 -9.299489,-5.12726 -0.0066,-0.01 -0.01302,-0.0192 -0.01957,-0.0287 l -0.522691,-0.76259 -0.514373,0.7683 c -0.0058,0.009 -0.01165,0.0171 -0.01745,0.0258 -2.500298,3.43265 -6.210054,5.38115 -9.297205,5.12628 l 0.276757,-5.30601 -4.959119,1.90224 c -1.197102,-2.85722 -0.490656,-6.98811 2.001718,-10.42739 0.0074,-0.01 0.01479,-0.0193 0.02218,-0.0289 l 0.56281,-0.73112 -0.887188,-0.25327 c -0.01066,-0.003 -0.02132,-0.006 -0.03196,-0.009 -4.03716,-1.31721 -7.036812,-4.24322 -7.748374,-7.25797 l 5.131989,-1.37645 -3.341631,-4.12869 c 2.347649,-2.02158 6.49522,-2.62622 10.536659,-1.31822 0.01142,0.004 0.02284,0.008 0.03425,0.0121 l 0.869738,0.30839 -0.03474,-0.92209 c -4.11e-4,-0.0109 -7.58e-4,-0.0218 -0.0011,-0.0326 0.0053,-4.24646 1.861256,-8.00306 4.508512,-9.61131 z"
         style="color:#000000;font-style:normal;font-variant:normal;font-weight:normal;font-stretch:normal;font-size:medium;line-height:normal;font-family:sans-serif;font-variant-ligatures:normal;font-variant-position:normal;font-variant-caps:normal;font-variant-numeric:normal;font-variant-alternates:normal;font-feature-settings:normal;text-indent:0;text-align:start;text-decoration:none;text-decoration-line:none;text-decoration-style:solid;text-decoration-color:#000000;letter-spacing:normal;word-spacing:normal;text-transform:none;writing-mode:lr-tb;direction:ltr;text-orientation:mixed;dominant-baseline:auto;baseline-shift:baseline;text-anchor:start;white-space:normal;shape-padding:0;clip-rule:nonzero;display:inline;overflow:visible;visibility:visible;opacity:1;isolation:auto;mix-blend-mode:normal;color-interpolation:sRGB;color-interpolation-filters:linearRGB;solid-color:#000000;solid-opacity:1;vector-effect:none;fill:#ce8ae2;fill-opacity:1;fill-rule:nonzero;stroke:none;stroke-width:3.96875024;stroke-linecap:round;stroke-linejoin:miter;stroke-miterlimit:4;stroke-dasharray:none;stroke-dashoffset:0;stroke-opacity:1;paint-order:fill markers stroke;color-rendering:auto;image-rendering:auto;shape-rendering:auto;text-rendering:auto;enable-background:accumulate" />
    </g>
    <g
       id="g1613"
       transform="matrix(0.98217718,0,0,1,24.426723,0)"
       style="stroke-width:1.00903237">
      <path
         style="opacity:1;fill:url(#radialGradient1615);fill-opacity:1;stroke:none;stroke-width:15.13548756;stroke-linecap:round;stroke-linejoin:miter;stroke-miterlimit:4;stroke-dasharray:none;stroke-opacity:1;paint-order:fill markers stroke"
         d="m 727.11914,573 c -0.58592,-0.0434 -1.13438,0.0169 -1.64453,0.17969 -0.51015,0.16276 -0.98199,0.42795 -1.41602,0.79687 -0.43404,0.36892 -0.77613,0.79243 -1.02539,1.26953 -0.24926,0.47711 -0.40569,1.00781 -0.4707,1.59375 -0.0434,0.58594 0.0658,1.19456 0.32617,1.82422 0.26042,0.62967 0.67211,1.28039 1.23633,1.95313 0.56424,0.67273 1.15495,1.80729 1.77344,3.40234 0.61849,1.59506 1.26476,3.65062 1.9375,6.16797 0.69443,2.49566 1.2876,5.63959 1.67187,9.38672 0.38427,3.74713 0.55964,8.09745 0.42188,13.00781 -0.10012,3.56672 -0.41716,7.26131 -0.66602,11.13867 -0.24886,3.87737 -0.42953,7.93751 -0.25586,12.23438 0.0434,0.91147 0.41102,1.80188 1.10547,2.66992 0.36892,0.41233 0.7806,0.73799 1.23633,0.97656 0.45573,0.23858 0.95551,0.39007 1.49805,0.45508 0.56424,0.0434 1.10118,-0.0169 1.61132,-0.17969 0.51015,-0.16276 0.99351,-0.42795 1.44922,-0.79687 0.45574,-0.36894 0.80888,-0.7875 1.0586,-1.25391 0.24971,-0.46641 0.39599,-0.98068 0.43945,-1.54492 l 0.25977,-2.53906 c 0.36891,-3.45052 0.58721,-6.9068 0.75,-10.34375 0.16278,-3.43696 0.27006,-6.8546 0.41406,-10.23047 0.30642,-2.10026 0.71007,-4.12007 1.20703,-6.05664 0.49696,-1.93657 1.08789,-3.78958 1.76367,-5.55664 0.67578,-1.76707 1.43642,-3.44733 2.2793,-5.03907 0.84288,-1.59173 1.76737,-3.09527 2.76562,-4.50585 0.99827,-1.42145 2.04119,-2.68972 3.12891,-3.80469 1.08772,-1.11497 2.21927,-2.07631 3.39648,-2.88477 1.17722,-0.80846 2.39926,-1.46489 3.66602,-1.96679 1.26676,-0.50191 2.57921,-0.84962 3.93555,-1.04493 1.36718,-0.19531 2.70289,-0.26041 4.00781,-0.19531 1.30492,0.0651 2.5797,0.26042 3.82226,0.58594 1.24257,0.32552 2.45268,0.78125 3.63282,1.36719 1.18013,0.58594 2.32964,1.30208 3.44726,2.14843 1.12847,0.84635 2.15745,1.78911 3.08789,2.82813 0.93045,1.03901 1.76172,2.17461 2.49414,3.40625 0.73242,1.23164 1.366,2.56016 1.90039,3.98437 0.5344,1.42422 0.97027,2.9438 1.30665,4.56055 0.52082,2.50651 0.75907,5.08045 0.71289,7.72266 -0.0462,2.6422 -0.37709,5.353 -0.99024,8.13086 -0.61315,2.77785 -1.50938,5.62363 -2.68945,8.53711 -1.18007,2.91347 -2.64367,5.89431 -4.39063,8.94335 -0.28206,0.49913 -0.45636,1.02029 -0.52148,1.5625 -0.0651,0.54222 -0.0211,1.10547 0.13086,1.69141 0.15191,0.56423 0.39128,1.05729 0.71679,1.48047 0.32552,0.42318 0.73719,0.77647 1.23633,1.05859 0.49913,0.28205 1.0134,0.45636 1.54493,0.52149 0.53152,0.0651 1.08028,0.0211 1.64453,-0.13086 0.58592,-0.1519 1.09689,-0.39127 1.53125,-0.7168 0.43435,-0.32552 0.79209,-0.7372 1.07422,-1.23633 2.01818,-3.51562 3.70629,-6.97098 5.0625,-10.36718 1.3562,-3.39621 2.37992,-6.73294 3.07421,-10.00977 0.69429,-3.27683 1.0574,-6.49485 1.08985,-9.65234 0.0162,-1.57875 -0.05,-3.14249 -0.19922,-4.69141 -0.14923,-1.54892 -0.38065,-3.08246 -0.69531,-4.60156 -0.45574,-2.13759 -1.05204,-4.15456 -1.78711,-6.05078 -0.73508,-1.89622 -1.60859,-3.67136 -2.62305,-5.32617 -1.01446,-1.65482 -2.16901,-3.19016 -3.46289,-4.60352 -1.29388,-1.41337 -2.72743,-2.70507 -4.30078,-3.87695 -1.5625,-1.18273 -3.17383,-2.18468 -4.83399,-3.00391 -1.66015,-0.81923 -3.36914,-1.45638 -5.12695,-1.91211 -1.75781,-0.45573 -3.56445,-0.73003 -5.41992,-0.82227 -1.85547,-0.0922 -3.75976,-0.002 -5.71289,0.26954 -2.3546,0.34722 -4.59711,0.98305 -6.72656,1.9082 -2.12946,0.92514 -4.14649,2.13959 -6.05079,3.64258 -1.90429,1.50298 -3.69585,3.29426 -5.375,5.375 -1.67914,2.08074 -3.24523,4.45096 -4.69921,7.10937 -0.35808,-1.96397 -0.76856,-3.80066 -1.23243,-5.50976 -0.46386,-1.70911 -0.98112,-3.28999 -1.55078,-4.74414 -0.56966,-1.45416 -1.19173,-2.78135 -1.86718,-3.98047 -0.67546,-1.19913 -1.4043,-2.27083 -2.18555,-3.21485 -0.36892,-0.45573 -0.79688,-0.80741 -1.28516,-1.05664 -0.48828,-0.24922 -1.03687,-0.39599 -1.64453,-0.43945 z"
         id="path1609"
         transform="scale(0.26458333)"
         inkscape:connector-curvature="0" />
      <path
         style="opacity:1;fill:#ce8ae2;fill-opacity:1;stroke:none;stroke-width:15.13548756;stroke-linecap:round;stroke-linejoin:miter;stroke-miterlimit:4;stroke-dasharray:none;stroke-opacity:1;paint-order:fill markers stroke"
         d="m 726.61914,568.98828 -0.002,0.004 c -0.92185,0.027 -1.86008,0.21265 -2.74219,0.54101 -0.88211,0.32837 -1.7081,0.79947 -2.4082,1.39453 -0.79454,0.67537 -1.4566,1.53007 -1.94922,2.47266 -0.49263,0.94259 -0.81581,1.97308 -0.92969,2.99805 l -0.006,0.0723 -0.008,0.0742 c -0.0947,1.2789 0.14491,2.48403 0.59961,3.59766 0.45469,1.11362 1.12449,2.13574 1.88867,3.04687 0.0264,0.0316 0.4299,0.82717 0.98828,2.22071 0.55839,1.39353 1.27172,3.38499 1.91992,5.81054 l 0.008,0.0215 0.006,0.0156 c 0.60192,2.16318 1.10193,5.03457 1.4746,8.56641 0.37268,3.53184 0.61803,7.72412 0.70899,12.5293 -0.5647,3.59905 -0.94076,7.3778 -1.13281,11.33789 -0.19206,3.96008 -0.2001,8.10151 -0.0254,12.42578 v 0.0156 0.0137 c 0.0444,0.93181 0.26475,1.83238 0.61132,2.67188 0.34657,0.8395 0.81937,1.61794 1.36719,2.30273 l 0.0742,0.0899 0.0742,0.0801 c 0.6589,0.7364 1.47402,1.36111 2.37109,1.83203 0.89708,0.47091 1.87612,0.78802 2.86133,0.90625 l 0.0898,0.008 0.0801,0.008 c 1.03733,0.0797 2.10906,-0.0593 3.1211,-0.38086 1.01204,-0.32155 1.96439,-0.82562 2.76367,-1.47265 0.81915,-0.66314 1.52067,-1.53158 2.03711,-2.5 0.51643,-0.96843 0.84779,-2.03685 0.92968,-3.10157 l 0.25782,-2.44336 -0.008,0.0234 c 0.36596,-3.42281 0.62527,-6.83578 0.78516,-10.24023 0.15989,-3.40445 0.22037,-6.80039 0.18945,-10.18555 0.35031,-1.98846 0.77015,-3.88148 1.25977,-5.68164 0.48962,-1.80016 1.0496,-3.50721 1.67578,-5.12305 0.62618,-1.61583 1.32008,-3.14068 2.08008,-4.57617 0.76,-1.43549 1.58549,-2.78189 2.47656,-4.04101 l 0.008,-0.008 v -0.008 c 0.88776,-1.26408 1.78282,-2.36147 2.69141,-3.30469 0.90859,-0.94322 1.83067,-1.73191 2.77344,-2.38281 0.94276,-0.6509 1.9062,-1.16367 2.89648,-1.55078 0.99029,-0.38711 2.00745,-0.64892 3.0586,-0.80078 1.12923,-0.16132 2.20709,-0.22302 3.24609,-0.17969 1.039,0.0433 2.03964,0.19124 3.01563,0.44727 0.97598,0.25603 1.92698,0.62088 2.86718,1.09765 0.94021,0.47678 1.86913,1.06592 2.80078,1.77149 l 0.008,0.008 h 0.008 c 0.92212,0.69159 1.76338,1.45482 2.52539,2.29883 0.76201,0.844 1.4442,1.76881 2.04883,2.78711 0.60463,1.01829 1.13206,2.12929 1.58203,3.34375 0.44997,1.21445 0.82306,2.53235 1.12109,3.96484 0.45909,2.20938 0.67224,4.49587 0.63086,6.86328 -0.0414,2.36741 -0.33785,4.81483 -0.90039,7.35156 -0.56254,2.53674 -1.38975,5.16154 -2.49414,7.87891 -1.10439,2.71737 -2.48541,5.5282 -4.15234,8.4375 v 0.0156 l -0.008,0.008 c -0.52274,0.92485 -0.84985,1.97752 -0.98046,3.05078 -0.13062,1.07326 -0.0648,2.16711 0.19726,3.17773 l 0.008,0.0137 v 0.0156 c 0.27311,1.01443 0.77648,1.99943 1.44141,2.86133 0.66493,0.8619 1.49143,1.60071 2.41211,2.12109 0.91083,0.51483 1.9516,0.84263 3.01562,0.97461 1.06403,0.13198 2.1513,0.0681 3.15625,-0.19922 1.0218,-0.26727 2.02228,-0.76326 2.9004,-1.42578 0.87811,-0.66252 1.63386,-1.49156 2.16406,-2.42773 4.9e-4,-8.7e-4 0.004,8.7e-4 0.008,0 2.09914,-3.65966 3.86808,-7.29081 5.29883,-10.88672 1.43074,-3.59591 2.52406,-7.15598 3.26758,-10.67383 0.37175,-1.75892 0.65514,-3.50742 0.85156,-5.24414 0.19642,-1.73672 0.30549,-3.46305 0.32422,-5.17578 0.0187,-1.71273 -0.0516,-3.41266 -0.21289,-5.09961 -0.16133,-1.68695 -0.41409,-3.36015 -0.75782,-5.01953 l -0.008,-0.0156 v -0.008 c -0.49648,-2.32864 -1.15846,-4.55244 -1.98242,-6.66016 -0.82396,-2.10771 -1.81012,-4.09919 -2.95508,-5.96484 -1.14495,-1.86565 -2.44875,-3.60458 -3.9082,-5.20703 -1.45945,-1.60246 -3.07434,-3.0686 -4.8418,-4.38672 -1.75099,-1.32406 -3.58271,-2.4512 -5.48242,-3.37891 -1.89971,-0.9277 -3.86725,-1.65533 -5.88867,-2.17968 -2.02142,-0.52436 -4.09676,-0.84497 -6.21289,-0.95899 -2.11613,-0.11401 -4.2732,-0.022 -6.45703,0.28125 l -0.0234,0.008 h -0.0137 c -2.04676,0.30182 -3.99382,0.85713 -5.85157,1.63086 -1.85774,0.77374 -3.62567,1.76502 -5.31445,2.93946 -1.68878,1.17443 -3.29802,2.5332 -4.83789,4.03711 -1.53987,1.50391 -3.01086,3.15386 -4.42187,4.91601 -0.70768,-2.25282 -1.48864,-4.38565 -2.4004,-6.32617 -0.91175,-1.94052 -1.95429,-3.68875 -3.18164,-5.17578 -0.68698,-0.84446 -1.58412,-1.54738 -2.57812,-2.05859 -0.994,-0.51122 -2.08485,-0.83073 -3.15625,-0.90821 l -0.008,-0.004 c -0.25928,-0.0189 -0.5218,-0.0232 -0.78516,-0.0156 z m 0.5,4.01172 c 0.60766,0.0435 1.15625,0.19023 1.64453,0.43945 0.48828,0.24923 0.91624,0.60091 1.28516,1.05664 0.78125,0.94402 1.51009,2.01572 2.18555,3.21485 0.67545,1.19912 1.29752,2.52631 1.86718,3.98047 0.56966,1.45415 1.08692,3.03503 1.55078,4.74414 0.46387,1.7091 0.87435,3.54579 1.23243,5.50976 1.45398,-2.65841 3.02007,-5.02863 4.69921,-7.10937 1.67915,-2.08074 3.47071,-3.87202 5.375,-5.375 1.9043,-1.50299 3.92133,-2.71744 6.05079,-3.64258 2.12945,-0.92515 4.37196,-1.56098 6.72656,-1.9082 1.95313,-0.27127 3.85742,-0.36177 5.71289,-0.26954 1.85547,0.0922 3.66211,0.36654 5.41992,0.82227 1.75781,0.45573 3.4668,1.09288 5.12695,1.91211 1.66016,0.81923 3.27149,1.82118 4.83399,3.00391 1.57335,1.17188 3.0069,2.46358 4.30078,3.87695 1.29388,1.41336 2.44843,2.9487 3.46289,4.60352 1.01446,1.65481 1.88797,3.42995 2.62305,5.32617 0.73507,1.89622 1.33137,3.91319 1.78711,6.05078 0.31466,1.5191 0.54608,3.05264 0.69531,4.60156 0.14923,1.54892 0.21544,3.11266 0.19922,4.69141 -0.0325,3.15749 -0.39556,6.37551 -1.08985,9.65234 -0.69429,3.27683 -1.71801,6.61356 -3.07421,10.00977 -1.35621,3.3962 -3.04432,6.85156 -5.0625,10.36718 -0.28213,0.49913 -0.63987,0.91081 -1.07422,1.23633 -0.43436,0.32553 -0.94533,0.5649 -1.53125,0.7168 -0.56425,0.15193 -1.11301,0.19599 -1.64453,0.13086 -0.53153,-0.0651 -1.0458,-0.23944 -1.54493,-0.52149 -0.49914,-0.28212 -0.91081,-0.63541 -1.23633,-1.05859 -0.32551,-0.42318 -0.56488,-0.91624 -0.71679,-1.48047 -0.15194,-0.58594 -0.19598,-1.14919 -0.13086,-1.69141 0.0651,-0.54221 0.23942,-1.06337 0.52148,-1.5625 1.74696,-3.04904 3.21056,-6.02988 4.39063,-8.94335 1.18007,-2.91348 2.0763,-5.75926 2.68945,-8.53711 0.61315,-2.77786 0.94406,-5.48866 0.99024,-8.13086 0.0462,-2.64221 -0.19207,-5.21615 -0.71289,-7.72266 -0.33638,-1.61675 -0.77225,-3.13633 -1.30665,-4.56055 -0.53439,-1.42421 -1.16797,-2.75273 -1.90039,-3.98437 -0.73242,-1.23164 -1.56369,-2.36724 -2.49414,-3.40625 -0.93044,-1.03902 -1.95942,-1.98178 -3.08789,-2.82813 -1.11762,-0.84635 -2.26713,-1.56249 -3.44726,-2.14843 -1.18014,-0.58594 -2.39025,-1.04167 -3.63282,-1.36719 -1.24256,-0.32552 -2.51734,-0.52084 -3.82226,-0.58594 -1.30492,-0.0651 -2.64063,0 -4.00781,0.19531 -1.35634,0.19531 -2.66879,0.54302 -3.93555,1.04493 -1.26676,0.5019 -2.4888,1.15833 -3.66602,1.96679 -1.17721,0.80846 -2.30876,1.7698 -3.39648,2.88477 -1.08772,1.11497 -2.13064,2.38324 -3.12891,3.80469 -0.99825,1.41058 -1.92274,2.91412 -2.76562,4.50585 -0.84288,1.59174 -1.60352,3.272 -2.2793,5.03907 -0.67578,1.76706 -1.26671,3.62007 -1.76367,5.55664 -0.49696,1.93657 -0.90061,3.95638 -1.20703,6.05664 -0.144,3.37587 -0.25128,6.79351 -0.41406,10.23047 -0.16279,3.43695 -0.38109,6.89323 -0.75,10.34375 l -0.25977,2.53906 c -0.0435,0.56424 -0.18974,1.07851 -0.43945,1.54492 -0.24972,0.46641 -0.60286,0.88497 -1.0586,1.25391 -0.45571,0.36892 -0.93907,0.63411 -1.44922,0.79687 -0.51014,0.16277 -1.04708,0.2231 -1.61132,0.17969 -0.54254,-0.065 -1.04232,-0.2165 -1.49805,-0.45508 -0.45573,-0.23857 -0.86741,-0.56423 -1.23633,-0.97656 -0.69445,-0.86804 -1.06208,-1.75845 -1.10547,-2.66992 -0.17367,-4.29687 0.007,-8.35701 0.25586,-12.23438 0.24886,-3.87736 0.5659,-7.57195 0.66602,-11.13867 0.13776,-4.91036 -0.0376,-9.26068 -0.42188,-13.00781 -0.38427,-3.74713 -0.97744,-6.89106 -1.67187,-9.38672 -0.67274,-2.51735 -1.31901,-4.57291 -1.9375,-6.16797 -0.61849,-1.59505 -1.2092,-2.72961 -1.77344,-3.40234 -0.56422,-0.67274 -0.97591,-1.32346 -1.23633,-1.95313 -0.26041,-0.62966 -0.36956,-1.23828 -0.32617,-1.82422 0.065,-0.58594 0.22144,-1.11664 0.4707,-1.59375 0.24926,-0.4771 0.59135,-0.90061 1.02539,-1.26953 0.43403,-0.36892 0.90587,-0.63411 1.41602,-0.79687 0.51015,-0.16276 1.05861,-0.2231 1.64453,-0.17969 z"
         id="path1611"
         transform="scale(0.26458333)"
         inkscape:connector-curvature="0" />
    </g>
  </g>
</svg>
