<?xml version="1.0" encoding="UTF-8" standalone="no"?>
<!-- Created with Inkscape (http://www.inkscape.org/) -->

<svg
   xmlns:dc="http://purl.org/dc/elements/1.1/"
   xmlns:cc="http://creativecommons.org/ns#"
   xmlns:rdf="http://www.w3.org/1999/02/22-rdf-syntax-ns#"
   xmlns:svg="http://www.w3.org/2000/svg"
   xmlns="http://www.w3.org/2000/svg"
   xmlns:sodipodi="http://sodipodi.sourceforge.net/DTD/sodipodi-0.dtd"
   xmlns:inkscape="http://www.inkscape.org/namespaces/inkscape"
   width="210mm"
   height="297mm"
   viewBox="0 0 744.09448819 1052.3622047"
   id="svg2"
   version="1.1"
   inkscape:version="0.91 r13725"
   sodipodi:docname="lollipop4.svg">
  <defs
     id="defs4">
    <inkscape:perspective
       sodipodi:type="inkscape:persp3d"
       inkscape:vp_x="0 : 526.1811 : 1"
       inkscape:vp_y="0 : 1000 : 0"
       inkscape:vp_z="744.09449 : 526.1811 : 1"
       inkscape:persp3d-origin="372.04724 : 350.7874 : 1"
       id="perspective4336" />
  </defs>
  <sodipodi:namedview
     id="base"
     pagecolor="#ffffff"
     bordercolor="#666666"
     borderopacity="1.0"
     inkscape:pageopacity="0.0"
     inkscape:pageshadow="2"
     inkscape:zoom="1.231578"
     inkscape:cx="272.98162"
     inkscape:cy="768.23883"
     inkscape:document-units="px"
     inkscape:current-layer="layer1"
     showgrid="false"
     inkscape:window-width="1920"
     inkscape:window-height="992"
     inkscape:window-x="1080"
     inkscape:window-y="695"
     inkscape:window-maximized="1"
     inkscape:object-nodes="false"
     inkscape:object-paths="true"
     inkscape:snap-smooth-nodes="false" />
  <metadata
     id="metadata7">
    <rdf:RDF>
      <cc:Work
         rdf:about="">
        <dc:format>image/svg+xml</dc:format>
        <dc:type
           rdf:resource="http://purl.org/dc/dcmitype/StillImage" />
        <dc:title />
      </cc:Work>
    </rdf:RDF>
  </metadata>
  <g
     inkscape:label="Calque 1"
     inkscape:groupmode="layer"
     id="layer1">
    <circle
       r="150"
       style="opacity:1;fill:#efefef;fill-opacity:1;stroke:none;stroke-width:3.0999999;stroke-miterlimit:4;stroke-dasharray:none;stroke-opacity:1"
       id="circle4348"
       cx="366.25266"
       cy="488.00348"
       inkscape:export-xdpi="90"
       inkscape:export-ydpi="90" />
    <path
       style="opacity:1;fill:#e266af;fill-opacity:1;stroke:none;stroke-width:3.0999999;stroke-miterlimit:4;stroke-dasharray:none;stroke-opacity:1"
       d="m 244.24337,131.94537 -12.30469,58.32031 3.51563,0 12.30469,-58.32031 -3.51563,0 z m 66.71875,0 -12.30469,58.32031 3.51563,0 12.30469,-58.32031 -3.51563,0 z m 16.5625,0 -12.30469,58.32031 3.51563,0 12.30469,-58.32031 -3.51563,0 z m 17.03125,6.17187 c -1.01562,0 -1.91406,0.40365 -2.69531,1.21094 -0.78125,0.78125 -1.17188,1.67969 -1.17188,2.69531 0,0.67708 0.23438,1.25 0.70313,1.71875 0.49479,0.46875 1.10677,0.70313 1.83594,0.70313 1.04166,0 1.95312,-0.39063 2.73437,-1.17188 0.80729,-0.78125 1.21094,-1.64062 1.21094,-2.57812 0,-0.75521 -0.2474,-1.36719 -0.74219,-1.83594 -0.49479,-0.49479 -1.11979,-0.74219 -1.875,-0.74219 z m -69.0625,11.91406 c -4.19271,0 -8.22917,1.15886 -12.10937,3.47657 -3.85417,2.3177 -6.96615,5.40364 -9.33594,9.25781 -2.34375,3.82812 -3.51563,7.83854 -3.51563,12.03125 0,4.6875 1.51042,8.54167 4.53125,11.5625 3.02084,2.99479 6.95313,4.49219 11.79688,4.49219 3.25521,0 6.43229,-0.71615 9.53125,-2.14844 3.09896,-1.43229 5.76823,-3.29427 8.00781,-5.58594 2.26563,-2.31771 4.08854,-4.96094 5.46875,-7.92969 1.38021,-2.99479 2.07031,-5.97656 2.07031,-8.94531 0,-4.6875 -1.52343,-8.55469 -4.57031,-11.60156 -3.04687,-3.07292 -7.00521,-4.60938 -11.875,-4.60938 z m 99.60938,0 c -2.96875,0 -6.14584,1.1198 -9.53125,3.35938 -3.38542,2.21354 -5.8724,4.6875 -7.46094,7.42187 l 1.05469,-4.92187 c 0.28645,-1.32813 0.42968,-2.63021 0.42968,-3.90625 0,-0.59896 -0.013,-1.04167 -0.0391,-1.32813 l -3.75,0 c 0.15625,0.52084 0.23438,1.1849 0.23438,1.99219 0,0.96354 -0.13021,2.04427 -0.39063,3.24219 l -11.44531,53.94531 3.51562,0 6.28907,-29.72656 c 0.36458,2.83854 1.77083,5.33854 4.21875,7.5 2.44791,2.16146 5.18229,3.24219 8.20312,3.24219 2.73438,0 5.46875,-0.66407 8.20313,-1.99219 2.76041,-1.35417 5.20833,-3.13802 7.34375,-5.35156 2.16145,-2.23959 3.90625,-4.9349 5.23437,-8.08594 1.35417,-3.15104 2.03125,-6.40625 2.03125,-9.76563 0,-4.5052 -1.30208,-8.22916 -3.90625,-11.17187 -2.57812,-2.96875 -5.98958,-4.45313 -10.23437,-4.45313 z m 47.73437,0 c -4.19271,0 -8.22917,1.15886 -12.10937,3.47657 -3.85417,2.3177 -6.96615,5.40364 -9.33594,9.25781 -2.34375,3.82812 -3.51563,7.83854 -3.51563,12.03125 0,4.6875 1.51042,8.54167 4.53125,11.5625 3.02084,2.99479 6.95313,4.49219 11.79688,4.49219 3.25521,0 6.43229,-0.71615 9.53125,-2.14844 3.09896,-1.43229 5.76823,-3.29427 8.00781,-5.58594 2.26563,-2.31771 4.08854,-4.96094 5.46875,-7.92969 1.38021,-2.99479 2.07031,-5.97656 2.07031,-8.94531 0,-4.6875 -1.52343,-8.55469 -4.57031,-11.60156 -3.04687,-3.07292 -7.00521,-4.60938 -11.875,-4.60938 z m 49.92188,0 c -2.96875,0 -6.14584,1.1198 -9.53125,3.35938 -3.38542,2.21354 -5.8724,4.6875 -7.46094,7.42187 l 1.05469,-4.92187 c 0.28645,-1.32813 0.42968,-2.63021 0.42968,-3.90625 0,-0.59896 -0.013,-1.04167 -0.0391,-1.32813 l -3.75,0 c 0.15625,0.52084 0.23438,1.1849 0.23438,1.99219 0,0.96354 -0.13021,2.04427 -0.39063,3.24219 l -11.44531,53.94531 3.51562,0 6.28907,-29.72656 c 0.36458,2.83854 1.77083,5.33854 4.21875,7.5 2.44791,2.16146 5.18229,3.24219 8.20312,3.24219 2.73438,0 5.46875,-0.66407 8.20313,-1.99219 2.76041,-1.35417 5.20833,-3.13802 7.34375,-5.35156 2.16145,-2.23959 3.90625,-4.9349 5.23437,-8.08594 1.35417,-3.15104 2.03125,-6.40625 2.03125,-9.76563 0,-4.5052 -1.30208,-8.22916 -3.90625,-11.17187 -2.57812,-2.96875 -5.98958,-4.45313 -10.23437,-4.45313 z m -132.57813,0.625 -8.39844,39.60938 3.51563,0 8.35937,-39.60938 -3.47656,0 z m -65.27344,2.89063 c 4.03646,0 7.33073,1.27604 9.88282,3.82812 2.57812,2.55209 3.86718,5.75521 3.86718,9.60938 0,3.48958 -1.01562,6.82292 -3.04687,10 -2.03125,3.17708 -4.66146,5.70312 -7.89063,7.57812 -3.22916,1.875 -6.5625,2.8125 -10,2.8125 -4.01041,0 -7.27864,-1.26302 -9.80468,-3.78906 -2.52605,-2.55208 -3.78907,-5.74219 -3.78907,-9.57031 0,-3.54167 1.01563,-6.90104 3.04688,-10.07813 2.03125,-3.20312 4.64844,-5.72916 7.85156,-7.57812 3.20313,-1.875 6.4974,-2.8125 9.88281,-2.8125 z m 99.45313,0 c 3.35937,0 6.11979,1.21094 8.28125,3.63281 2.16146,2.42188 3.24219,5.50781 3.24219,9.25781 0,2.8125 -0.57292,5.53386 -1.71875,8.16407 -1.14584,2.6302 -2.61719,4.86979 -4.41407,6.71875 -1.79687,1.82291 -3.8151,3.29427 -6.05468,4.41406 -2.21355,1.09375 -4.38802,1.64062 -6.52344,1.64062 -3.38542,0 -6.15886,-1.21093 -8.32031,-3.63281 -2.13542,-2.44792 -3.20313,-5.54687 -3.20313,-9.29687 0,-1.4323 0.14323,-2.77344 0.42969,-4.02344 0.98958,-4.6875 3.28125,-8.67188 6.875,-11.95313 3.59375,-3.28125 7.39583,-4.92187 11.40625,-4.92187 z m 47.89062,0 c 4.03646,0 7.33073,1.27604 9.88282,3.82812 2.57812,2.55209 3.86718,5.75521 3.86718,9.60938 0,3.48958 -1.01562,6.82292 -3.04687,10 -2.03125,3.17708 -4.66146,5.70312 -7.89063,7.57812 -3.22916,1.875 -6.5625,2.8125 -10,2.8125 -4.01041,0 -7.27864,-1.26302 -9.80468,-3.78906 -2.52605,-2.55208 -3.78907,-5.74219 -3.78907,-9.57031 0,-3.54167 1.01563,-6.90104 3.04688,-10.07813 2.03125,-3.20312 4.64844,-5.72916 7.85156,-7.57812 3.20313,-1.875 6.4974,-2.8125 9.88281,-2.8125 z m 49.76563,0 c 3.35937,0 6.11979,1.21094 8.28125,3.63281 2.16146,2.42188 3.24219,5.50781 3.24219,9.25781 0,2.8125 -0.57292,5.53386 -1.71875,8.16407 -1.14584,2.6302 -2.61719,4.86979 -4.41407,6.71875 -1.79687,1.82291 -3.8151,3.29427 -6.05468,4.41406 -2.21355,1.09375 -4.38802,1.64062 -6.52344,1.64062 -3.38542,0 -6.15886,-1.21093 -8.32031,-3.63281 -2.13542,-2.44792 -3.20313,-5.54687 -3.20313,-9.29687 0,-1.4323 0.14323,-2.77344 0.42969,-4.02344 0.98958,-4.6875 3.28125,-8.67188 6.875,-11.95313 3.59375,-3.28125 7.39583,-4.92187 11.40625,-4.92187 z"
       id="circle4164"
       inkscape:connector-curvature="0" />
    <path
       style="opacity:1;fill:#b09eda;fill-opacity:1;stroke:none;stroke-width:3.0999999;stroke-miterlimit:4;stroke-dasharray:none;stroke-opacity:1"
       d="m 244.24337,131.94537 -12.30469,58.32031 3.51563,0 12.30469,-58.32031 -3.51563,0 z m 66.71875,0 -12.30469,58.32031 3.51563,0 12.30469,-58.32031 -3.51563,0 z m 16.5625,0 -12.30469,58.32031 3.51563,0 12.30469,-58.32031 -3.51563,0 z m 17.03125,6.17187 c -1.01562,0 -1.91406,0.40365 -2.69531,1.21094 -0.78125,0.78125 -1.17188,1.67969 -1.17188,2.69531 0,0.67708 0.23438,1.25 0.70313,1.71875 0.49479,0.46875 1.10677,0.70313 1.83594,0.70313 1.04166,0 1.95312,-0.39063 2.73437,-1.17188 0.80729,-0.78125 1.21094,-1.64062 1.21094,-2.57812 0,-0.75521 -0.2474,-1.36719 -0.74219,-1.83594 -0.49479,-0.49479 -1.11979,-0.74219 -1.875,-0.74219 z m -69.0625,11.91406 c -4.19271,0 -8.22917,1.15886 -12.10937,3.47657 -3.85417,2.3177 -6.96615,5.40364 -9.33594,9.25781 -2.34375,3.82812 -3.51563,7.83854 -3.51563,12.03125 0,4.6875 1.51042,8.54167 4.53125,11.5625 3.02084,2.99479 6.95313,4.49219 11.79688,4.49219 3.25521,0 6.43229,-0.71615 9.53125,-2.14844 3.09896,-1.43229 5.76823,-3.29427 8.00781,-5.58594 2.26563,-2.31771 4.08854,-4.96094 5.46875,-7.92969 1.38021,-2.99479 2.07031,-5.97656 2.07031,-8.94531 0,-4.6875 -1.52343,-8.55469 -4.57031,-11.60156 -3.04687,-3.07292 -7.00521,-4.60938 -11.875,-4.60938 z m 99.60938,0 c -2.96875,0 -6.14584,1.1198 -9.53125,3.35938 -3.38542,2.21354 -5.8724,4.6875 -7.46094,7.42187 l 1.05469,-4.92187 c 0.28645,-1.32813 0.42968,-2.63021 0.42968,-3.90625 0,-0.59896 -0.013,-1.04167 -0.0391,-1.32813 l -3.75,0 c 0.15625,0.52084 0.23438,1.1849 0.23438,1.99219 0,0.96354 -0.13021,2.04427 -0.39063,3.24219 l -11.44531,53.94531 3.51562,0 6.28907,-29.72656 c 0.36458,2.83854 1.77083,5.33854 4.21875,7.5 2.44791,2.16146 5.18229,3.24219 8.20312,3.24219 2.73438,0 5.46875,-0.66407 8.20313,-1.99219 2.76041,-1.35417 5.20833,-3.13802 7.34375,-5.35156 2.16145,-2.23959 3.90625,-4.9349 5.23437,-8.08594 1.35417,-3.15104 2.03125,-6.40625 2.03125,-9.76563 0,-4.5052 -1.30208,-8.22916 -3.90625,-11.17187 -2.57812,-2.96875 -5.98958,-4.45313 -10.23437,-4.45313 z m 47.73437,0 c -4.19271,0 -8.22917,1.15886 -12.10937,3.47657 -3.85417,2.3177 -6.96615,5.40364 -9.33594,9.25781 -2.34375,3.82812 -3.51563,7.83854 -3.51563,12.03125 0,4.6875 1.51042,8.54167 4.53125,11.5625 3.02084,2.99479 6.95313,4.49219 11.79688,4.49219 3.25521,0 6.43229,-0.71615 9.53125,-2.14844 3.09896,-1.43229 5.76823,-3.29427 8.00781,-5.58594 2.26563,-2.31771 4.08854,-4.96094 5.46875,-7.92969 1.38021,-2.99479 2.07031,-5.97656 2.07031,-8.94531 0,-4.6875 -1.52343,-8.55469 -4.57031,-11.60156 -3.04687,-3.07292 -7.00521,-4.60938 -11.875,-4.60938 z m 49.92188,0 c -2.96875,0 -6.14584,1.1198 -9.53125,3.35938 -3.38542,2.21354 -5.8724,4.6875 -7.46094,7.42187 l 1.05469,-4.92187 c 0.28645,-1.32813 0.42968,-2.63021 0.42968,-3.90625 0,-0.59896 -0.013,-1.04167 -0.0391,-1.32813 l -3.75,0 c 0.15625,0.52084 0.23438,1.1849 0.23438,1.99219 0,0.96354 -0.13021,2.04427 -0.39063,3.24219 l -11.44531,53.94531 3.51562,0 6.28907,-29.72656 c 0.36458,2.83854 1.77083,5.33854 4.21875,7.5 2.44791,2.16146 5.18229,3.24219 8.20312,3.24219 1.87832,0 3.75645,-0.32252 5.63477,-0.94922 a 319.61227,319.61227 0 0 0 0.99218,-3.89063 c -1.99278,0.89255 -3.95573,1.36328 -5.88476,1.36328 -3.38542,0 -6.15886,-1.21093 -8.32031,-3.63281 -2.13542,-2.44792 -3.20313,-5.54687 -3.20313,-9.29687 0,-1.4323 0.14323,-2.77344 0.42969,-4.02344 0.98958,-4.6875 3.28125,-8.67188 6.875,-11.95313 3.59375,-3.28125 7.39583,-4.92187 11.40625,-4.92187 2.27414,0 4.26701,0.56787 5.99219,1.67773 a 319.61227,319.61227 0 0 0 0.60742,-4.02148 c -1.7355,-0.77713 -3.68564,-1.17188 -5.85742,-1.17188 z m -132.57813,0.625 -8.39844,39.60938 3.51563,0 8.35937,-39.60938 -3.47656,0 z m -65.27344,2.89063 c 4.03646,0 7.33073,1.27604 9.88282,3.82812 2.57812,2.55209 3.86718,5.75521 3.86718,9.60938 0,3.48958 -1.01562,6.82292 -3.04687,10 -2.03125,3.17708 -4.66146,5.70312 -7.89063,7.57812 -3.22916,1.875 -6.5625,2.8125 -10,2.8125 -4.01041,0 -7.27864,-1.26302 -9.80468,-3.78906 -2.52605,-2.55208 -3.78907,-5.74219 -3.78907,-9.57031 0,-3.54167 1.01563,-6.90104 3.04688,-10.07813 2.03125,-3.20312 4.64844,-5.72916 7.85156,-7.57812 3.20313,-1.875 6.4974,-2.8125 9.88281,-2.8125 z m 99.45313,0 c 3.35937,0 6.11979,1.21094 8.28125,3.63281 2.16146,2.42188 3.24219,5.50781 3.24219,9.25781 0,2.8125 -0.57292,5.53386 -1.71875,8.16407 -1.14584,2.6302 -2.61719,4.86979 -4.41407,6.71875 -1.79687,1.82291 -3.8151,3.29427 -6.05468,4.41406 -2.21355,1.09375 -4.38802,1.64062 -6.52344,1.64062 -3.38542,0 -6.15886,-1.21093 -8.32031,-3.63281 -2.13542,-2.44792 -3.20313,-5.54687 -3.20313,-9.29687 0,-1.4323 0.14323,-2.77344 0.42969,-4.02344 0.98958,-4.6875 3.28125,-8.67188 6.875,-11.95313 3.59375,-3.28125 7.39583,-4.92187 11.40625,-4.92187 z m 47.89062,0 c 4.03646,0 7.33073,1.27604 9.88282,3.82812 2.57812,2.55209 3.86718,5.75521 3.86718,9.60938 0,3.48958 -1.01562,6.82292 -3.04687,10 -2.03125,3.17708 -4.66146,5.70312 -7.89063,7.57812 -3.22916,1.875 -6.5625,2.8125 -10,2.8125 -4.01041,0 -7.27864,-1.26302 -9.80468,-3.78906 -2.52605,-2.55208 -3.78907,-5.74219 -3.78907,-9.57031 0,-3.54167 1.01563,-6.90104 3.04688,-10.07813 2.03125,-3.20312 4.64844,-5.72916 7.85156,-7.57812 3.20313,-1.875 6.4974,-2.8125 9.88281,-2.8125 z"
       id="circle4162"
       inkscape:connector-curvature="0" />
    <path
       style="opacity:1;fill:#6c6496;fill-opacity:1;stroke:none;stroke-width:3.0999999;stroke-miterlimit:4;stroke-dasharray:none;stroke-opacity:1"
       d="m 244.24337,131.94537 -12.30469,58.32031 3.51563,0 12.30469,-58.32031 -3.51563,0 z m 66.71875,0 -12.30469,58.32031 3.51563,0 12.30469,-58.32031 -3.51563,0 z m 16.5625,0 -12.30469,58.32031 3.51563,0 12.30469,-58.32031 -3.51563,0 z m 17.03125,6.17187 c -1.01562,0 -1.91406,0.40365 -2.69531,1.21094 -0.78125,0.78125 -1.17188,1.67969 -1.17188,2.69531 0,0.67708 0.23438,1.25 0.70313,1.71875 0.49479,0.46875 1.10677,0.70313 1.83594,0.70313 1.04166,0 1.95312,-0.39063 2.73437,-1.17188 0.80729,-0.78125 1.21094,-1.64062 1.21094,-2.57812 0,-0.75521 -0.2474,-1.36719 -0.74219,-1.83594 -0.49479,-0.49479 -1.11979,-0.74219 -1.875,-0.74219 z m -69.0625,11.91406 c -4.19271,0 -8.22917,1.15886 -12.10937,3.47657 -3.85417,2.3177 -6.96615,5.40364 -9.33594,9.25781 -2.34375,3.82812 -3.51563,7.83854 -3.51563,12.03125 0,4.6875 1.51042,8.54167 4.53125,11.5625 3.02084,2.99479 6.95313,4.49219 11.79688,4.49219 3.25521,0 6.43229,-0.71615 9.53125,-2.14844 3.09896,-1.43229 5.76823,-3.29427 8.00781,-5.58594 2.26563,-2.31771 4.08854,-4.96094 5.46875,-7.92969 1.38021,-2.99479 2.07031,-5.97656 2.07031,-8.94531 0,-4.6875 -1.52343,-8.55469 -4.57031,-11.60156 -3.04687,-3.07292 -7.00521,-4.60938 -11.875,-4.60938 z m 99.60938,0 c -2.96875,0 -6.14584,1.1198 -9.53125,3.35938 -3.38542,2.21354 -5.8724,4.6875 -7.46094,7.42187 l 1.05469,-4.92187 c 0.28645,-1.32813 0.42968,-2.63021 0.42968,-3.90625 0,-0.59896 -0.013,-1.04167 -0.0391,-1.32813 l -3.75,0 c 0.15625,0.52084 0.23438,1.1849 0.23438,1.99219 0,0.96354 -0.13021,2.04427 -0.39063,3.24219 l -11.44531,53.94531 3.51562,0 6.28907,-29.72656 c 0.36458,2.83854 1.77083,5.33854 4.21875,7.5 2.44791,2.16146 5.18229,3.24219 8.20312,3.24219 2.73438,0 5.46875,-0.66407 8.20313,-1.99219 2.76041,-1.35417 5.20833,-3.13802 7.34375,-5.35156 2.16145,-2.23959 3.90625,-4.9349 5.23437,-8.08594 1.35417,-3.15104 2.03125,-6.40625 2.03125,-9.76563 0,-4.5052 -1.30208,-8.22916 -3.90625,-11.17187 -2.57812,-2.96875 -5.98958,-4.45313 -10.23437,-4.45313 z m 47.73437,0 c -4.19271,0 -8.22917,1.15886 -12.10937,3.47657 -3.85417,2.3177 -6.96615,5.40364 -9.33594,9.25781 -2.34375,3.82812 -3.51563,7.83854 -3.51563,12.03125 0,4.6875 1.51042,8.54167 4.53125,11.5625 3.02084,2.99479 6.95313,4.49219 11.79688,4.49219 3.25521,0 6.43229,-0.71615 9.53125,-2.14844 3.09896,-1.43229 5.76823,-3.29427 8.00781,-5.58594 2.26563,-2.31771 4.08854,-4.96094 5.46875,-7.92969 1.38021,-2.99479 2.07031,-5.97656 2.07031,-8.94531 0,-4.6875 -1.52343,-8.55469 -4.57031,-11.60156 -3.04687,-3.07292 -7.00521,-4.60938 -11.875,-4.60938 z m -82.65625,0.625 -8.39844,39.60938 3.51563,0 8.35937,-39.60938 -3.47656,0 z m -65.27344,2.89063 c 4.03646,0 7.33073,1.27604 9.88282,3.82812 2.57812,2.55209 3.86718,5.75521 3.86718,9.60938 0,3.48958 -1.01562,6.82292 -3.04687,10 -2.03125,3.17708 -4.66146,5.70312 -7.89063,7.57812 -3.22916,1.875 -6.5625,2.8125 -10,2.8125 -4.01041,0 -7.27864,-1.26302 -9.80468,-3.78906 -2.52605,-2.55208 -3.78907,-5.74219 -3.78907,-9.57031 0,-3.54167 1.01563,-6.90104 3.04688,-10.07813 2.03125,-3.20312 4.64844,-5.72916 7.85156,-7.57812 3.20313,-1.875 6.4974,-2.8125 9.88281,-2.8125 z m 99.45313,0 c 3.35937,0 6.11979,1.21094 8.28125,3.63281 2.16146,2.42188 3.24219,5.50781 3.24219,9.25781 0,2.8125 -0.57292,5.53386 -1.71875,8.16407 -1.14584,2.6302 -2.61719,4.86979 -4.41407,6.71875 -1.79687,1.82291 -3.8151,3.29427 -6.05468,4.41406 -2.21355,1.09375 -4.38802,1.64062 -6.52344,1.64062 -3.38542,0 -6.15886,-1.21093 -8.32031,-3.63281 -2.13542,-2.44792 -3.20313,-5.54687 -3.20313,-9.29687 0,-1.4323 0.14323,-2.77344 0.42969,-4.02344 0.98958,-4.6875 3.28125,-8.67188 6.875,-11.95313 3.59375,-3.28125 7.39583,-4.92187 11.40625,-4.92187 z m 47.89062,0 c 4.03646,0 7.33073,1.27604 9.88282,3.82812 2.57812,2.55209 3.86718,5.75521 3.86718,9.60938 0,3.48958 -1.01562,6.82292 -3.04687,10 -2.03125,3.17708 -4.66146,5.70312 -7.89063,7.57812 -3.22916,1.875 -6.5625,2.8125 -10,2.8125 -4.01041,0 -7.27864,-1.26302 -9.80468,-3.78906 -2.52605,-2.55208 -3.78907,-5.74219 -3.78907,-9.57031 0,-3.54167 1.01563,-6.90104 3.04688,-10.07813 2.03125,-3.20312 4.64844,-5.72916 7.85156,-7.57812 3.20313,-1.875 6.4974,-2.8125 9.88281,-2.8125 z"
       id="circle4160"
       inkscape:connector-curvature="0" />
    <path
       style="opacity:1;fill:#d396d0;fill-opacity:1;stroke:none;stroke-width:3.0999999;stroke-miterlimit:4;stroke-dasharray:none;stroke-opacity:1"
       d="m 244.24337,131.94537 -12.30469,58.32031 3.51563,0 12.30469,-58.32031 -3.51563,0 z m 66.71875,0 -12.30469,58.32031 3.51563,0 12.30469,-58.32031 -3.51563,0 z m 16.5625,0 -12.30469,58.32031 3.51563,0 12.30469,-58.32031 -3.51563,0 z m 17.03125,6.17187 c -1.01562,0 -1.91406,0.40365 -2.69531,1.21094 -0.78125,0.78125 -1.17188,1.67969 -1.17188,2.69531 0,0.67708 0.23438,1.25 0.70313,1.71875 0.49479,0.46875 1.10677,0.70313 1.83594,0.70313 1.04166,0 1.95312,-0.39063 2.73437,-1.17188 0.80729,-0.78125 1.21094,-1.64062 1.21094,-2.57812 0,-0.75521 -0.2474,-1.36719 -0.74219,-1.83594 -0.49479,-0.49479 -1.11979,-0.74219 -1.875,-0.74219 z m -69.0625,11.91406 c -4.19271,0 -8.22917,1.15886 -12.10937,3.47657 -3.85417,2.3177 -6.96615,5.40364 -9.33594,9.25781 -2.34375,3.82812 -3.51563,7.83854 -3.51563,12.03125 0,4.6875 1.51042,8.54167 4.53125,11.5625 3.02084,2.99479 6.95313,4.49219 11.79688,4.49219 3.25521,0 6.43229,-0.71615 9.53125,-2.14844 3.09896,-1.43229 5.76823,-3.29427 8.00781,-5.58594 2.26563,-2.31771 4.08854,-4.96094 5.46875,-7.92969 1.38021,-2.99479 2.07031,-5.97656 2.07031,-8.94531 0,-4.6875 -1.52343,-8.55469 -4.57031,-11.60156 -3.04687,-3.07292 -7.00521,-4.60938 -11.875,-4.60938 z m 99.60938,0 c -2.96875,0 -6.14584,1.1198 -9.53125,3.35938 -3.38542,2.21354 -5.8724,4.6875 -7.46094,7.42187 l 1.05469,-4.92187 c 0.28645,-1.32813 0.42968,-2.63021 0.42968,-3.90625 0,-0.59896 -0.013,-1.04167 -0.0391,-1.32813 l -3.75,0 c 0.15625,0.52084 0.23438,1.1849 0.23438,1.99219 0,0.96354 -0.13021,2.04427 -0.39063,3.24219 l -11.44531,53.94531 3.51562,0 6.28907,-29.72656 c 0.36458,2.83854 1.77083,5.33854 4.21875,7.5 2.44791,2.16146 5.18229,3.24219 8.20312,3.24219 2.73438,0 5.46875,-0.66407 8.20313,-1.99219 2.76041,-1.35417 5.20833,-3.13802 7.34375,-5.35156 2.16145,-2.23959 3.90625,-4.9349 5.23437,-8.08594 1.35417,-3.15104 2.03125,-6.40625 2.03125,-9.76563 0,-4.5052 -1.30208,-8.22916 -3.90625,-11.17187 -2.57812,-2.96875 -5.98958,-4.45313 -10.23437,-4.45313 z m -34.92188,0.625 -8.39844,39.60938 3.51563,0 8.35937,-39.60938 -3.47656,0 z m -65.27344,2.89063 c 4.03646,0 7.33073,1.27604 9.88282,3.82812 2.57812,2.55209 3.86718,5.75521 3.86718,9.60938 0,3.48958 -1.01562,6.82292 -3.04687,10 -2.03125,3.17708 -4.66146,5.70312 -7.89063,7.57812 -3.22916,1.875 -6.5625,2.8125 -10,2.8125 -4.01041,0 -7.27864,-1.26302 -9.80468,-3.78906 -2.52605,-2.55208 -3.78907,-5.74219 -3.78907,-9.57031 0,-3.54167 1.01563,-6.90104 3.04688,-10.07813 2.03125,-3.20312 4.64844,-5.72916 7.85156,-7.57812 3.20313,-1.875 6.4974,-2.8125 9.88281,-2.8125 z m 99.45313,0 c 3.35937,0 6.11979,1.21094 8.28125,3.63281 2.16146,2.42188 3.24219,5.50781 3.24219,9.25781 0,2.8125 -0.57292,5.53386 -1.71875,8.16407 -1.14584,2.6302 -2.61719,4.86979 -4.41407,6.71875 -1.79687,1.82291 -3.8151,3.29427 -6.05468,4.41406 -2.21355,1.09375 -4.38802,1.64062 -6.52344,1.64062 -3.38542,0 -6.15886,-1.21093 -8.32031,-3.63281 -2.13542,-2.44792 -3.20313,-5.54687 -3.20313,-9.29687 0,-1.4323 0.14323,-2.77344 0.42969,-4.02344 0.98958,-4.6875 3.28125,-8.67188 6.875,-11.95313 3.59375,-3.28125 7.39583,-4.92187 11.40625,-4.92187 z m 34.33398,1.31836 c -2.92698,2.1233 -5.36658,4.75149 -7.30273,7.90039 -2.34375,3.82812 -3.51563,7.83854 -3.51563,12.03125 0,3.2788 0.75638,6.14016 2.23438,8.60351 a 251.73003,251.73003 0 0 0 1.92187,-5.26367 c -0.37168,-1.28066 -0.5625,-2.65267 -0.5625,-4.12109 0,-3.54167 1.01563,-6.90104 3.04688,-10.07813 0.82609,-1.30268 1.75352,-2.48769 2.77344,-3.5664 a 251.73003,251.73003 0 0 0 1.40429,-5.50586 z"
       id="circle4158"
       inkscape:connector-curvature="0" />
    <path
       style="opacity:1;fill:#e266af;fill-opacity:1;stroke:none;stroke-width:3.0999999;stroke-miterlimit:4;stroke-dasharray:none;stroke-opacity:1"
       d="m 244.24337,131.94537 -12.30469,58.32031 3.51563,0 12.30469,-58.32031 -3.51563,0 z"
       id="path4468"
       inkscape:connector-curvature="0" />
    <path
       style="opacity:1;fill:#e266af;fill-opacity:1;stroke:none;stroke-width:3.0999999;stroke-miterlimit:4;stroke-dasharray:none;stroke-opacity:1"
       d="m 310.96212,131.94537 -12.30469,58.32031 3.51563,0 12.30469,-58.32031 -3.51563,0 z"
       id="path4466"
       inkscape:connector-curvature="0" />
    <path
       style="opacity:1;fill:#e266af;fill-opacity:1;stroke:none;stroke-width:3.0999999;stroke-miterlimit:4;stroke-dasharray:none;stroke-opacity:1"
       d="m 327.52462,131.94537 -12.30469,58.32031 3.51563,0 12.30469,-58.32031 -3.51563,0 z"
       id="path4464"
       inkscape:connector-curvature="0" />
    <path
       style="opacity:1;fill:#e266af;fill-opacity:1;stroke:none;stroke-width:3.0999999;stroke-miterlimit:4;stroke-dasharray:none;stroke-opacity:1"
       d="m 344.55587,138.11724 c -1.01562,0 -1.91406,0.40365 -2.69531,1.21094 -0.78125,0.78125 -1.17188,1.67969 -1.17188,2.69531 0,0.67708 0.23438,1.25 0.70313,1.71875 0.49479,0.46875 1.10677,0.70313 1.83594,0.70313 1.04166,0 1.95312,-0.39063 2.73437,-1.17188 0.80729,-0.78125 1.21094,-1.64062 1.21094,-2.57812 0,-0.75521 -0.2474,-1.36719 -0.74219,-1.83594 -0.49479,-0.49479 -1.11979,-0.74219 -1.875,-0.74219 z"
       id="path4462"
       inkscape:connector-curvature="0" />
    <path
       style="opacity:1;fill:#e266af;fill-opacity:1;stroke:none;stroke-width:3.0999999;stroke-miterlimit:4;stroke-dasharray:none;stroke-opacity:1"
       d="m 375.10275,150.0313 c -2.96875,0 -6.14584,1.1198 -9.53125,3.35938 -3.38542,2.21354 -5.8724,4.6875 -7.46094,7.42187 l 1.05469,-4.92187 c 0.28645,-1.32813 0.42968,-2.63021 0.42968,-3.90625 0,-0.59896 -0.013,-1.04167 -0.0391,-1.32813 l -3.75,0 c 0.15625,0.52084 0.23438,1.1849 0.23438,1.99219 0,0.96354 -0.13021,2.04427 -0.39063,3.24219 l -11.44531,53.94531 3.51562,0 6.28907,-29.72656 c 0.36458,2.83854 1.77083,5.33854 4.21875,7.5 1.24978,1.10353 2.57548,1.92081 3.97461,2.46094 a 219.20311,219.20311 0 0 0 1.53515,-3.17774 c -1.87641,-0.55949 -3.50622,-1.60575 -4.88476,-3.15039 -2.13542,-2.44792 -3.20313,-5.54687 -3.20313,-9.29687 0,-1.4323 0.14323,-2.77344 0.42969,-4.02344 0.98958,-4.6875 3.28125,-8.67188 6.875,-11.95313 3.59375,-3.28125 7.39583,-4.92187 11.40625,-4.92187 0.38533,0 0.76129,0.0209 1.13086,0.0527 a 219.20311,219.20311 0 0 0 0.89648,-3.51172 c -0.42132,-0.0318 -0.84599,-0.0566 -1.28515,-0.0566 z"
       id="path4458"
       inkscape:connector-curvature="0" />
    <path
       style="opacity:1;fill:#e266af;fill-opacity:1;stroke:none;stroke-width:3.0999999;stroke-miterlimit:4;stroke-dasharray:none;stroke-opacity:1"
       d="m 340.18087,150.6563 -8.39844,39.60938 3.51563,0 8.35937,-39.60938 -3.47656,0 z"
       id="path4456"
       inkscape:connector-curvature="0" />
    <path
       style="opacity:1;fill:#b09eda;fill-opacity:1;stroke:none;stroke-width:3.0999999;stroke-miterlimit:4;stroke-dasharray:none;stroke-opacity:1"
       d="m 244.24337,131.94537 -12.30469,58.32031 3.51563,0 12.30469,-58.32031 -3.51563,0 z m 66.71875,0 -12.30469,58.32031 3.51563,0 12.30469,-58.32031 -3.51563,0 z m 16.5625,0 -12.30469,58.32031 3.51563,0 12.30469,-58.32031 -3.51563,0 z m 17.03125,6.17187 c -1.01562,0 -1.91406,0.40365 -2.69531,1.21094 -0.78125,0.78125 -1.17188,1.67969 -1.17188,2.69531 0,0.67708 0.23438,1.25 0.70313,1.71875 0.49479,0.46875 1.10677,0.70313 1.83594,0.70313 0.39377,0 0.76258,-0.0739 1.11914,-0.18555 a 186.67619,186.67619 0 0 0 1.48828,-5.82813 c -0.37577,-0.20132 -0.79757,-0.31445 -1.2793,-0.31445 z m -69.0625,11.91406 c -4.19271,0 -8.22917,1.15886 -12.10937,3.47657 -3.85417,2.3177 -6.96615,5.40364 -9.33594,9.25781 -2.34375,3.82812 -3.51563,7.83854 -3.51563,12.03125 0,4.6875 1.51042,8.54167 4.53125,11.5625 3.02084,2.99479 6.95313,4.49219 11.79688,4.49219 3.25521,0 6.43229,-0.71615 9.53125,-2.14844 3.09896,-1.43229 5.76823,-3.29427 8.00781,-5.58594 2.26563,-2.31771 4.08854,-4.96094 5.46875,-7.92969 1.38021,-2.99479 2.07031,-5.97656 2.07031,-8.94531 0,-4.6875 -1.52343,-8.55469 -4.57031,-11.60156 -3.04687,-3.07292 -7.00521,-4.60938 -11.875,-4.60938 z m 64.6875,0.625 -3.76562,17.75782 a 186.67619,186.67619 0 0 0 6.29882,-17.75782 l -2.5332,0 z m -65.27344,2.89063 c 4.03646,0 7.33073,1.27604 9.88282,3.82812 2.57812,2.55209 3.86718,5.75521 3.86718,9.60938 0,3.48958 -1.01562,6.82292 -3.04687,10 -2.03125,3.17708 -4.66146,5.70312 -7.89063,7.57812 -3.22916,1.875 -6.5625,2.8125 -10,2.8125 -4.01041,0 -7.27864,-1.26302 -9.80468,-3.78906 -2.52605,-2.55208 -3.78907,-5.74219 -3.78907,-9.57031 0,-3.54167 1.01563,-6.90104 3.04688,-10.07813 2.03125,-3.20312 4.64844,-5.72916 7.85156,-7.57812 3.20313,-1.875 6.4974,-2.8125 9.88281,-2.8125 z"
       id="circle4154"
       inkscape:connector-curvature="0" />
    <path
       style="opacity:1;fill:#6c6496;fill-opacity:1;stroke:none;stroke-width:3.0999999;stroke-miterlimit:4;stroke-dasharray:none;stroke-opacity:1"
       d="m 244.24337,131.94537 -12.30469,58.32031 3.51563,0 12.30469,-58.32031 -3.51563,0 z m 66.71875,0 -6.77148,32.09375 a 155.56349,155.56349 0 0 0 7.3125,-18 l 2.97461,-14.09375 -3.51563,0 z m -35.46875,18.08593 c -4.19271,0 -8.22917,1.15886 -12.10937,3.47657 -3.85417,2.3177 -6.96615,5.40364 -9.33594,9.25781 -2.34375,3.82812 -3.51563,7.83854 -3.51563,12.03125 0,4.6875 1.51042,8.54167 4.53125,11.5625 3.02084,2.99479 6.95313,4.49219 11.79688,4.49219 3.25521,0 6.43229,-0.71615 9.53125,-2.14844 3.09896,-1.43229 5.76823,-3.29427 8.00781,-5.58594 2.26563,-2.31771 4.08854,-4.96094 5.46875,-7.92969 1.38021,-2.99479 2.07031,-5.97656 2.07031,-8.94531 0,-4.6875 -1.52343,-8.55469 -4.57031,-11.60156 -3.04687,-3.07292 -7.00521,-4.60938 -11.875,-4.60938 z m -0.58594,3.51563 c 4.03646,0 7.33073,1.27604 9.88282,3.82812 2.57812,2.55209 3.86718,5.75521 3.86718,9.60938 0,3.48958 -1.01562,6.82292 -3.04687,10 -2.03125,3.17708 -4.66146,5.70312 -7.89063,7.57812 -3.22916,1.875 -6.5625,2.8125 -10,2.8125 -4.01041,0 -7.27864,-1.26302 -9.80468,-3.78906 -2.52605,-2.55208 -3.78907,-5.74219 -3.78907,-9.57031 0,-3.54167 1.01563,-6.90104 3.04688,-10.07813 2.03125,-3.20312 4.64844,-5.72916 7.85156,-7.57812 3.20313,-1.875 6.4974,-2.8125 9.88281,-2.8125 z"
       id="circle4150"
       inkscape:connector-curvature="0" />
    <path
       style="opacity:1;fill:#d396d0;fill-opacity:1;stroke:none;stroke-width:3.0999999;stroke-miterlimit:4;stroke-dasharray:none;stroke-opacity:1"
       d="m 244.24337,131.94537 -12.30469,58.32031 3.51563,0 12.30469,-58.32031 -3.51563,0 z m 31.25,18.08593 c -4.19271,0 -8.22917,1.15886 -12.10937,3.47657 -3.85417,2.3177 -6.96615,5.40364 -9.33594,9.25781 -2.34375,3.82812 -3.51563,7.83854 -3.51563,12.03125 0,4.55946 1.44077,8.32404 4.29883,11.30664 a 127.27921,127.27921 0 0 0 2.72071,-2.92188 c -2.27439,-2.48351 -3.42579,-5.53358 -3.42579,-9.16601 0,-3.54167 1.01563,-6.90104 3.04688,-10.07813 2.03125,-3.20312 4.64844,-5.72916 7.85156,-7.57812 3.20313,-1.875 6.4974,-2.8125 9.88281,-2.8125 1.00147,0 1.9571,0.0792 2.86719,0.23633 a 127.27921,127.27921 0 0 0 1.62695,-3.36914 c -1.23269,-0.24635 -2.52937,-0.38282 -3.9082,-0.38282 z"
       id="circle4148"
       inkscape:connector-curvature="0" />
    <path
       style="opacity:1;fill:#e266af;fill-opacity:1;stroke:none;stroke-width:3.0999999;stroke-miterlimit:4;stroke-dasharray:none;stroke-opacity:1"
       d="m 244.24102,131.94537 -7.13282,33.81054 a 100.40916,100.40916 0 0 0 4.60938,-5.18358 l 6.03907,-28.62696 -3.51563,0 z"
       id="path4146"
       inkscape:connector-curvature="0" />
    <path
       style="opacity:1;fill:#e266af;fill-opacity:1;stroke:none;stroke-width:3.0999999;stroke-miterlimit:4;stroke-dasharray:none;stroke-opacity:1"
       d="m 341.83862,135.22738 c -1.6509,-0.25444 -3.24046,1.08105 -3.55041,3.09195 -0.0919,0.59914 -0.061,1.20761 0.0899,1.77145 l -10e-4,-1e-5 0.007,0.0224 0.007,0.0225 0.0307,0.10653 0.001,0.005 0.15331,0.53176 3.88164,6.55722 c 0.0546,0.0619 0.12436,0.10121 0.20023,0.11292 0.0765,0.0116 0.15556,-0.005 0.22659,-0.0489 l 5.67407,-5.08284 0.37492,-0.56332 -0.003,-7.4e-4 c 0.32593,-0.49905 0.54693,-1.08195 0.6425,-1.69469 0.30985,-2.01086 -0.77721,-4.03471 -2.42805,-4.28919 -1.11615,-0.17069 -2.25547,0.61759 -2.95468,1.74556 -0.32735,-1.28686 -1.23373,-2.11464 -2.35023,-2.28722 z m 1.8324,5.63574 c 0.0283,0.11035 0.061,0.21867 0.0981,0.32459 -0.0371,-0.10592 -0.0698,-0.21424 -0.0981,-0.32459 z m -0.19108,0.27973 c -0.0362,0.0467 -0.0734,0.0924 -0.11147,0.13697 0.0381,-0.0446 0.0752,-0.0903 0.11147,-0.13697 z m 0.35477,0.21013 c 0.0201,0.0531 0.0413,0.10556 0.0636,0.15728 -0.0223,-0.0517 -0.0435,-0.10416 -0.0636,-0.15728 z m -0.57427,0.0577 c -0.0396,0.0423 -0.0801,0.0835 -0.12129,0.12344 0.0412,-0.04 0.0817,-0.0811 0.12129,-0.12344 z m 0.71275,0.2466 c 0.026,0.0533 0.0532,0.10561 0.0815,0.157 -0.0283,-0.0514 -0.0555,-0.10374 -0.0815,-0.157 z m -5.28074,-0.76889 c 0.0215,0.0412 0.0437,0.0819 0.0667,0.12194 -0.0229,-0.04 -0.0452,-0.0807 -0.0667,-0.12194 z m 4.32746,0.76505 c -0.0408,0.0359 -0.0823,0.0706 -0.12437,0.1041 0.0421,-0.0335 0.0836,-0.0682 0.12437,-0.1041 z m 5.26944,0.85002 -0.0173,0.0145 z m -4.14549,-0.54993 c 0.0293,0.0477 0.0597,0.0945 0.0911,0.14021 -0.0314,-0.0457 -0.0618,-0.0925 -0.0911,-0.14021 z m -5.26098,-0.74956 c 0.0195,0.0295 0.0393,0.0586 0.0596,0.0873 -0.0203,-0.0287 -0.0401,-0.0578 -0.0596,-0.0873 z m 3.87971,0.66307 c -0.0452,0.0323 -0.0909,0.0632 -0.13729,0.0928 0.0463,-0.0296 0.0921,-0.0605 0.13729,-0.0928 z m 5.26834,0.84469 -0.0258,0.0174 z m -3.68829,-0.4821 c 0.0315,0.0412 0.0639,0.0814 0.0971,0.12054 -0.0332,-0.0392 -0.0656,-0.0794 -0.0971,-0.12054 z m -5.26488,-0.76756 c 0.0236,0.029 0.0477,0.0575 0.0722,0.0854 -0.0245,-0.0279 -0.0486,-0.0564 -0.0722,-0.0854 z m 3.4133,0.58704 c -0.0473,0.0269 -0.095,0.0524 -0.14321,0.0764 0.0482,-0.024 0.0959,-0.0495 0.14321,-0.0764 z m 5.26889,0.8388 c -0.0147,0.008 -0.0295,0.0159 -0.0443,0.0236 0.0148,-0.008 0.0296,-0.0156 0.0443,-0.0236 z m -3.20319,-0.41847 c 0.0356,0.0375 0.0719,0.0739 0.10901,0.10918 -0.0371,-0.0353 -0.0735,-0.0717 -0.10901,-0.10918 z m -5.26388,-0.77631 c 0.0285,0.0285 0.0575,0.0562 0.087,0.0833 -0.0295,-0.0271 -0.0585,-0.0548 -0.087,-0.0833 z m 2.91334,0.50624 c -0.0492,0.0213 -0.0987,0.0411 -0.14856,0.0594 0.0498,-0.0183 0.0994,-0.0381 0.14856,-0.0594 z m 5.27153,0.83254 c -0.021,0.009 -0.0421,0.0171 -0.0633,0.0252 0.0212,-0.008 0.0423,-0.0165 0.0633,-0.0252 z m -2.68477,-0.3494 c 0.0387,0.0328 0.0781,0.0645 0.11813,0.0949 -0.0401,-0.0304 -0.0795,-0.0621 -0.11813,-0.0949 z m -5.26373,-0.78418 c 0.0321,0.0257 0.0647,0.0505 0.0977,0.0746 -0.033,-0.0241 -0.0656,-0.0489 -0.0977,-0.0746 z m 2.3838,0.41654 c -0.05,0.0152 -0.10014,0.029 -0.15052,0.0412 0.0504,-0.0122 0.10057,-0.026 0.15052,-0.0412 z m 5.27247,0.82792 c -0.0261,0.008 -0.0523,0.0146 -0.0786,0.0213 0.0263,-0.007 0.0525,-0.0138 0.0786,-0.0213 z m -2.14152,-0.27984 c 0.0424,0.0285 0.0855,0.0558 0.12921,0.0817 -0.0437,-0.0259 -0.0868,-0.0532 -0.12921,-0.0817 z m -5.26308,-0.79076 c 0.037,0.0233 0.0744,0.0456 0.11221,0.0669 -0.0378,-0.0213 -0.0752,-0.0436 -0.11221,-0.0669 z m 1.83134,0.32341 c -0.0495,0.009 -0.0992,0.0165 -0.14883,0.0225 0.0497,-0.006 0.0993,-0.0135 0.14883,-0.0225 z m 5.27641,0.82327 c -0.0335,0.006 -0.067,0.0107 -0.10055,0.015 0.0335,-0.004 0.0671,-0.009 0.10055,-0.015 z m -1.57914,-0.20704 c 0.0461,0.0238 0.0928,0.0461 0.13992,0.067 -0.0472,-0.0209 -0.0938,-0.0432 -0.13992,-0.067 z m -5.26258,-0.79706 c 0.0412,0.0197 0.0828,0.0383 0.12474,0.0557 -0.042,-0.0174 -0.0836,-0.036 -0.12474,-0.0557 z m 1.26218,0.22568 c -0.0505,0.003 -0.101,0.004 -0.15141,0.004 0.0504,1.8e-4 0.1009,-10e-4 0.15141,-0.004 z m 5.28008,0.81878 c -0.04,0.002 -0.0801,0.004 -0.12007,0.004 0.04,-3.8e-4 0.08,-0.002 0.12007,-0.004 z m -1.00157,-0.1323 c 0.0494,0.0184 0.0992,0.0353 0.14948,0.0506 -0.0503,-0.0153 -0.1001,-0.0322 -0.14948,-0.0506 z m -5.26031,-0.80258 c 0.0442,0.0151 0.0888,0.0289 0.13375,0.0414 -0.0449,-0.0125 -0.0895,-0.0263 -0.13375,-0.0414 z m 0.67831,0.12326 c -0.097,-0.003 -0.19355,-0.0119 -0.2893,-0.0263 0.0958,0.0144 0.1923,0.0232 0.2893,0.0263 z m 5.2832,0.81622 c -0.0897,-0.003 -0.179,-0.0117 -0.26762,-0.0247 0.0886,0.013 0.17792,0.0213 0.26762,0.0247 z"
       id="rect4371"
       inkscape:connector-curvature="0"
       sodipodi:nodetypes="cccccccccccccccccccccccccccccccccccccccccccccccccccccccccccccccccccccccccccccccccccccccccccccccccccccccccccccccccccccccccccccccc" />
    <path
       style="opacity:1;fill:#b09eda;fill-opacity:1;stroke:none;stroke-width:3.0999999;stroke-miterlimit:4;stroke-dasharray:none;stroke-opacity:1"
       d="m 341.22461,135.20517 c -1.41446,0.11265 -2.66434,1.35374 -2.93555,3.11328 -0.0919,0.59914 -0.0611,1.20764 0.0899,1.77148 l -0.002,0 0.008,0.0234 0.006,0.0215 0.0313,0.10743 0,0.006 0.15429,0.53125 3.88086,6.55664 c 0.0546,0.0619 0.1253,0.10158 0.20117,0.11329 0.0765,0.0116 0.15554,-0.005 0.22657,-0.0488 l 1.32031,-1.1836 3.41992,-10.30664 c -0.15501,-0.0604 -0.31298,-0.1148 -0.48047,-0.14062 -1.11615,-0.17069 -2.25587,0.61812 -2.95508,1.74609 -0.32735,-1.28686 -1.23311,-2.11453 -2.34961,-2.28711 l -0.002,-0.002 c -0.20636,-0.0318 -0.41121,-0.0376 -0.61328,-0.0215 z"
       id="rect4484"
       inkscape:connector-curvature="0" />
    <path
       style="opacity:1;fill:#e266af;fill-opacity:1;stroke:none;stroke-width:3.0999999;stroke-miterlimit:4;stroke-dasharray:none;stroke-opacity:1"
       d="m 353.80521,338.60266 a 150,150 0 0 0 -44.99024,10.97461 128.52889,184.93267 60 0 1 2.91992,1.02344 128.52889,184.93267 60 0 1 55.66602,138.2461 128.52889,184.93267 60 0 0 -13.5957,-150.24415 z"
       id="circle4214"
       inkscape:connector-curvature="0"
       inkscape:export-xdpi="90"
       inkscape:export-ydpi="90" />
    <path
       style="opacity:1;fill:#d396d0;fill-opacity:1;stroke:none;stroke-width:3.0999999;stroke-miterlimit:4;stroke-dasharray:none;stroke-opacity:1"
       d="m 280.04349,365.47571 a 150,150 0 0 0 -33.25977,32.13477 128.52889,184.93267 30 0 1 3.27735,-0.62696 128.52889,184.93267 30 0 1 117.33203,91.89063 128.52889,184.93267 30 0 0 -87.34961,-123.39844 z"
       id="circle4292"
       inkscape:connector-curvature="0"
       inkscape:export-xdpi="90"
       inkscape:export-ydpi="90" />
    <path
       style="opacity:1;fill:#6c6496;fill-opacity:1;stroke:none;stroke-width:3.0999999;stroke-miterlimit:4;stroke-dasharray:none;stroke-opacity:1"
       d="m 266.98099,418.10852 a 128.52889,184.93267 0 0 0 -37.01172,7.60157 150,150 0 0 0 -12.50977,44.29297 128.52889,184.93267 0 0 1 2.375,-2.04297 128.52889,184.93267 0 0 1 147.5586,20.91406 128.52889,184.93267 0 0 0 -100.41211,-70.76563 z"
       id="circle4294"
       inkscape:connector-curvature="0"
       inkscape:export-xdpi="90"
       inkscape:export-ydpi="90" />
    <path
       style="opacity:1;fill:#b09eda;fill-opacity:1;stroke:none;stroke-width:3.0999999;stroke-miterlimit:4;stroke-dasharray:none;stroke-opacity:1"
       d="m 296.08255,464.47766 a 184.93267,128.52889 60 0 0 -79.08789,37.15235 150,150 0 0 0 11.28125,44.81445 184.93267,128.52889 60 0 1 1.11133,-3.20703 184.93267,128.52889 60 0 1 138.24609,-55.66601 184.93267,128.52889 60 0 0 -71.55078,-23.09376 z"
       id="circle4296"
       inkscape:connector-curvature="0"
       inkscape:export-xdpi="90"
       inkscape:export-ydpi="90" />
    <path
       style="opacity:1;fill:#e266af;fill-opacity:1;stroke:none;stroke-width:3.0999999;stroke-miterlimit:4;stroke-dasharray:none;stroke-opacity:1"
       d="m 367.66068,487.57923 a 184.93267,128.52889 30 0 0 -123.4043,87.37695 150,150 0 0 0 32.0625,32.86719 184.93267,128.52889 30 0 1 -0.54883,-2.91211 184.93267,128.52889 30 0 1 91.89063,-117.33203 z"
       id="circle4298"
       inkscape:connector-curvature="0"
       inkscape:export-xdpi="90"
       inkscape:export-ydpi="90" />
    <path
       style="opacity:1;fill:#d396d0;fill-opacity:1;stroke:none;stroke-width:3.0999999;stroke-miterlimit:4;stroke-dasharray:none;stroke-opacity:1"
       d="m 367.66068,487.57923 a 184.93267,128.52889 0 0 0 -63.36133,136.87304 150,150 0 0 0 43.86328,12.33204 184.93267,128.52889 0 0 1 -1.41602,-1.64649 184.93267,128.52889 0 0 1 20.91407,-147.55859 z"
       id="circle4300"
       inkscape:connector-curvature="0"
       inkscape:export-xdpi="90"
       inkscape:export-ydpi="90" />
    <path
       style="opacity:1;fill:#6c6496;fill-opacity:1;stroke:none;stroke-width:3.0999999;stroke-miterlimit:4;stroke-dasharray:none;stroke-opacity:1"
       d="m 365.10404,487.32142 a 128.52889,184.93267 60 0 0 13.42968,150.10351 150,150 0 0 0 44.95703,-10.90625 128.52889,184.93267 60 0 1 -2.71875,-0.95117 128.52889,184.93267 60 0 1 -55.66796,-138.24609 z"
       id="circle4302"
       inkscape:connector-curvature="0"
       inkscape:export-xdpi="90"
       inkscape:export-ydpi="90" />
    <path
       style="opacity:1;fill:#b09eda;fill-opacity:1;stroke:none;stroke-width:3.0999999;stroke-miterlimit:4;stroke-dasharray:none;stroke-opacity:1"
       d="m 365.11185,487.29407 a 128.52889,184.93267 30 0 0 87.16992,123.36719 150,150 0 0 0 33.29297,-32.07031 128.52889,184.93267 30 0 1 -3.13086,0.59375 128.52889,184.93267 30 0 1 -117.33203,-91.89063 z"
       id="circle4304"
       inkscape:connector-curvature="0"
       inkscape:export-xdpi="90"
       inkscape:export-ydpi="90" />
    <path
       style="opacity:1;fill:#e266af;fill-opacity:1;stroke:none;stroke-width:3.0999999;stroke-miterlimit:4;stroke-dasharray:none;stroke-opacity:1"
       d="m 365.11185,487.29407 a 128.52889,184.93267 0 0 0 137.33203,63.19727 150,150 0 0 0 12.57422,-44.30469 128.52889,184.93267 0 0 1 -2.34766,2.02148 128.52889,184.93267 0 0 1 -147.55859,-20.91406 z"
       id="circle4306"
       inkscape:connector-curvature="0"
       inkscape:export-xdpi="90"
       inkscape:export-ydpi="90" />
    <path
       style="opacity:1;fill:#d396d0;fill-opacity:1;stroke:none;stroke-width:3.0999999;stroke-miterlimit:4;stroke-dasharray:none;stroke-opacity:1"
       d="m 505.02005,431.32532 a 184.93267,128.52889 60 0 1 -0.50586,1.44336 184.93267,128.52889 60 0 1 -138.24609,55.66602 184.93267,128.52889 60 0 0 149.41797,-12.61719 150,150 0 0 0 -10.66602,-44.49219 z"
       id="circle4308"
       inkscape:connector-curvature="0"
       inkscape:export-xdpi="90"
       inkscape:export-ydpi="90" />
    <path
       style="opacity:1;fill:#6c6496;fill-opacity:1;stroke:none;stroke-width:3.0999999;stroke-miterlimit:4;stroke-dasharray:none;stroke-opacity:1"
       d="m 457.81497,369.42102 a 184.93267,128.52889 30 0 1 0.31641,1.67579 184.93267,128.52889 30 0 1 -91.89063,117.33007 184.93267,128.52889 30 0 0 123.12305,-85.8164 150,150 0 0 0 -31.54883,-33.18946 z"
       id="circle4310"
       inkscape:connector-curvature="0"
       inkscape:export-xdpi="90"
       inkscape:export-ydpi="90" />
    <path
       style="opacity:1;fill:#b09eda;fill-opacity:1;stroke:none;stroke-width:3.0999999;stroke-miterlimit:4;stroke-dasharray:none;stroke-opacity:1"
       d="m 385.94583,339.46595 a 184.93267,128.52889 0 0 1 1.20899,1.40429 A 184.93267,128.52889 0 0 1 366.24075,488.42688 184.93267,128.52889 0 0 0 429.897,352.3722 150,150 0 0 0 385.94583,339.46595 Z"
       id="circle4312"
       inkscape:connector-curvature="0"
       inkscape:export-xdpi="90"
       inkscape:export-ydpi="90" />
  </g>
</svg>
